RobotoFlex_opsz14_wght100_wdth25.ufo
<glyph name="exclam" format="2">
  <advance width="512"/>
  <unicode hex="0021"/>
  <outline>
    <contour>
      <point x="186" y="67.0588235294" type="qcurve" smooth="yes"/>
      <point x="186" y="103.7450980392"/>
      <point x="222.3725490196" y="156.1176470588"/>
      <point x="256.431372549" y="156.1176470588" type="qcurve" smooth="yes"/>
      <point x="290.4901960784" y="156.1176470588"/>
      <point x="325.862745098" y="103.7450980392"/>
      <point x="325.862745098" y="67.0588235294" type="qcurve" smooth="yes"/>
      <point x="325.862745098" y="30.3725490196"/>
      <point x="290.4901960784" y="-22"/>
      <point x="256.431372549" y="-22" type="qcurve" smooth="yes"/>
      <point x="223.0588235294" y="-22"/>
      <point x="186" y="30.3725490196"/>
    </contour>
    <contour>
      <point x="218.6862745098" y="390.7450980392" type="line"/>
      <point x="212" y="1456" type="line"/>
      <point x="299.862745098" y="1456" type="line"/>
      <point x="292.862745098" y="390.7450980392" type="line"/>
    </contour>
  </outline>
</glyph>
<glyph name="quotedbl" format="2">
	<unicode hex="0022"/>
	<advance width="596"/>
	<outline>
		<contour>
			<point x="108.0262745098" y="1100.7309803922" type="line"/>
			<point x="100" y="1356.6611764706" type="line"/>
			<point x="100" y="1456" type="line"/>
			<point x="198.1976470588" y="1456" type="line"/>
			<point x="198.1976470588" y="1356.6611764706" type="line"/>
			<point x="189.8576470588" y="1100.7309803922" type="line"/>
		</contour>
		<contour>
			<point x="406.2239215686" y="1100.7309803922" type="line"/>
			<point x="398.1976470588" y="1356.6611764706" type="line"/>
			<point x="398.1976470588" y="1456" type="line"/>
			<point x="496.0815686275" y="1456" type="line"/>
			<point x="496.0815686275" y="1356.6611764706" type="line"/>
			<point x="487.7415686275" y="1100.7309803922" type="line"/>
		</contour>
	</outline>
</glyph>
<glyph name="parenleft" format="2">
	<unicode hex="0028"/>
	<advance width="593"/>
	<outline>
		<contour>
			<point x="558" y="-436" type="line"/>
			<point x="362" y="-361"/>
			<point x="124" y="87"/>
			<point x="124" y="515" type="qcurve" smooth="yes"/>
			<point x="124" y="525" type="line" smooth="yes"/>
			<point x="124" y="924"/>
			<point x="362" y="1401"/>
			<point x="558" y="1476" type="qcurve"/>
			<point x="558" y="1401" type="line"/>
			<point x="407" y="1333"/>
			<point x="213" y="908"/>
			<point x="213" y="532" type="qcurve" smooth="yes"/>
			<point x="213" y="508" type="line" smooth="yes"/>
			<point x="213" y="132"/>
			<point x="407" y="-292"/>
			<point x="558" y="-360" type="qcurve"/>
		</contour>
	</outline>
</glyph>
<glyph name="parenright" format="2">
  <advance width="593"/>
  <unicode hex="0029"/>
  <outline>
    <contour>
      <point x="35" y="-436" type="qcurve"/>
      <point x="35" y="-356" type="line"/>
      <point x="186" y="-289"/>
      <point x="381" y="101"/>
      <point x="381" y="508" type="qcurve" smooth="yes"/>
      <point x="381" y="532" type="line" smooth="yes"/>
      <point x="381" y="939"/>
      <point x="186" y="1329"/>
      <point x="35" y="1396" type="qcurve"/>
      <point x="35" y="1476" type="line"/>
      <point x="232" y="1401"/>
      <point x="470" y="924"/>
      <point x="470" y="525" type="qcurve" smooth="yes"/>
      <point x="470" y="515" type="line" smooth="yes"/>
      <point x="470" y="87"/>
      <point x="232" y="-361"/>
    </contour>
  </outline>
</glyph>
<glyph name="plus" format="2">
	<unicode hex="002B"/>
	<advance width="990"/>
	<outline>
		<contour>
			<point x="67" y="635" type="line"/>
			<point x="67" y="715" type="line"/>
			<point x="923" y="715" type="line"/>
			<point x="923" y="635" type="line"/>
		</contour>
		<contour>
			<point x="452" y="223" type="line"/>
			<point x="452" y="1125" type="line"/>
			<point x="538" y="1125" type="line"/>
			<point x="538" y="223" type="line"/>
		</contour>
	</outline>
</glyph>
<glyph name="slash" format="2">
	<unicode hex="002F"/>
	<advance width="493"/>
	<outline>
		<contour>
			<point x="-104" y="-125" type="line"/>
			<point x="505" y="1456" type="line"/>
			<point x="597" y="1456" type="line"/>
			<point x="-14" y="-125" type="line"/>
		</contour>
	</outline>
</glyph>
<glyph name="zero" format="2">
	<unicode hex="0030"/>
	<advance width="1038"/>
	<outline>
		<contour>
			<point x="125" y="444" type="qcurve" smooth="yes"/>
			<point x="125" y="1010" type="line" smooth="yes"/>
			<point x="125" y="1235"/>
			<point x="332" y="1486"/>
			<point x="519" y="1486" type="qcurve" smooth="yes"/>
			<point x="706" y="1486"/>
			<point x="913" y="1235"/>
			<point x="913" y="1010" type="qcurve" smooth="yes"/>
			<point x="913" y="444" type="line" smooth="yes"/>
			<point x="913" y="220"/>
			<point x="706" y="-30"/>
			<point x="519" y="-30" type="qcurve" smooth="yes"/>
			<point x="332" y="-30"/>
			<point x="125" y="220"/>
		</contour>
		<contour>
			<point x="211" y="438" type="line" smooth="yes"/>
			<point x="211" y="266"/>
			<point x="371" y="50"/>
			<point x="519" y="50" type="qcurve" smooth="yes"/>
			<point x="666" y="50"/>
			<point x="828" y="266"/>
			<point x="828" y="438" type="qcurve" smooth="yes"/>
			<point x="828" y="1013" type="line" smooth="yes"/>
			<point x="828" y="1185"/>
			<point x="667" y="1406"/>
			<point x="519" y="1406" type="qcurve" smooth="yes"/>
			<point x="370" y="1406"/>
			<point x="211" y="1185"/>
			<point x="211" y="1013" type="qcurve" smooth="yes"/>
		</contour>
	</outline>
</glyph>
<glyph name="one" format="2">
  <advance width="1038"/>
  <unicode hex="0031"/>
  <outline>
    <contour>
      <point x="553" y="0" type="line"/>
      <point x="553" y="1365" type="line"/>
      <point x="185" y="1238" type="line"/>
      <point x="185" y="1326" type="line"/>
      <point x="606" y="1476" type="line"/>
      <point x="642" y="1476" type="line"/>
      <point x="642" y="0" type="line"/>
    </contour>
  </outline>
</glyph>
<glyph name="two" format="2">
	<unicode hex="0032"/>
	<advance width="1038"/>
	<outline>
		<contour>
			<point x="106" y="0" type="line"/>
			<point x="106" y="83" type="line"/>
			<point x="631" y="713" type="line" smooth="yes"/>
			<point x="711" y="808"/>
			<point x="813" y="1006"/>
			<point x="813" y="1125" type="qcurve" smooth="yes"/>
			<point x="813" y="1238"/>
			<point x="665" y="1403"/>
			<point x="525" y="1402" type="qcurve" smooth="yes"/>
			<point x="377" y="1401"/>
			<point x="196" y="1228"/>
			<point x="196" y="1045" type="qcurve" smooth="yes"/>
			<point x="196" y="1029" type="line"/>
			<point x="108" y="1029" type="line"/>
			<point x="108" y="1044" type="line" smooth="yes"/>
			<point x="108" y="1252"/>
			<point x="338" y="1486"/>
			<point x="525" y="1486" type="qcurve" smooth="yes"/>
			<point x="704" y="1486"/>
			<point x="902" y="1275"/>
			<point x="902" y="1127" type="qcurve" smooth="yes"/>
			<point x="902" y="998"/>
			<point x="811" y="798"/>
			<point x="693" y="657" type="qcurve" smooth="yes"/>
			<point x="209" y="81" type="line"/>
			<point x="949" y="81" type="line"/>
			<point x="949" y="0" type="line"/>
		</contour>
	</outline>
</glyph>
<glyph name="three" format="2">
	<unicode hex="0033"/>
	<advance width="1038"/>
	<outline>
		<contour>
			<point x="97" y="379" type="qcurve" smooth="yes"/>
			<point x="97" y="391" type="line"/>
			<point x="184" y="391" type="line"/>
			<point x="184" y="381" type="line" smooth="yes"/>
			<point x="184" y="238"/>
			<point x="372" y="53"/>
			<point x="518" y="53" type="qcurve" smooth="yes"/>
			<point x="662" y="53"/>
			<point x="848" y="238"/>
			<point x="848" y="382" type="qcurve" smooth="yes"/>
			<point x="848" y="555"/>
			<point x="623" y="716"/>
			<point x="480" y="716" type="qcurve" smooth="yes"/>
			<point x="361" y="716" type="line"/>
			<point x="361" y="801" type="line"/>
			<point x="470" y="801" type="line" smooth="yes"/>
			<point x="610" y="801"/>
			<point x="798" y="962"/>
			<point x="798" y="1097" type="qcurve" smooth="yes"/>
			<point x="798" y="1232"/>
			<point x="640" y="1404"/>
			<point x="518" y="1403" type="qcurve" smooth="yes"/>
			<point x="388" y="1403"/>
			<point x="221" y="1232"/>
			<point x="221" y="1099" type="qcurve" smooth="yes"/>
			<point x="221" y="1079" type="line"/>
			<point x="136" y="1079" type="line"/>
			<point x="136" y="1099" type="line" smooth="yes"/>
			<point x="136" y="1268"/>
			<point x="351" y="1486"/>
			<point x="518" y="1486" type="qcurve" smooth="yes"/>
			<point x="679" y="1486"/>
			<point x="887" y="1268"/>
			<point x="887" y="1099" type="qcurve" smooth="yes"/>
			<point x="887" y="993"/>
			<point x="768" y="815"/>
			<point x="647" y="763" type="qcurve"/>
			<point x="647" y="759" type="line"/>
			<point x="768" y="732"/>
			<point x="939" y="545"/>
			<point x="939" y="377" type="qcurve" smooth="yes"/>
			<point x="939" y="200"/>
			<point x="702" y="-30"/>
			<point x="518" y="-31" type="qcurve" smooth="yes"/>
			<point x="334" y="-32"/>
			<point x="97" y="199"/>
		</contour>
	</outline>
</glyph>
<glyph name="four" format="2">
	<unicode hex="0034"/>
	<advance width="1038"/>
	<outline>
		<contour>
			<point x="718" y="0" type="line"/>
			<point x="718" y="393" type="line"/>
			<point x="718" y="414" type="line"/>
			<point x="718" y="1273" type="line"/>
			<point x="708" y="1273" type="line"/>
			<point x="142" y="447" type="line"/>
			<point x="742" y="447" type="line"/>
			<point x="770" y="447" type="line"/>
			<point x="1005" y="447" type="line"/>
			<point x="1005" y="362" type="line"/>
			<point x="44" y="362" type="line"/>
			<point x="44" y="448" type="line"/>
			<point x="738" y="1456" type="line"/>
			<point x="802" y="1456" type="line"/>
			<point x="802" y="0" type="line"/>
		</contour>
	</outline>
</glyph>
<glyph name="five" format="2">
  <advance width="1038"/>
  <unicode hex="0035"/>
  <outline>
    <contour>
      <point x="97" y="363" type="qcurve" smooth="yes"/>
      <point x="97" y="376" type="line"/>
      <point x="183" y="376" type="line"/>
      <point x="183" y="366" type="line" smooth="yes"/>
      <point x="183" y="230"/>
      <point x="358" y="55"/>
      <point x="520" y="55" type="qcurve" smooth="yes"/>
      <point x="670" y="55"/>
      <point x="846" y="270"/>
      <point x="846" y="465" type="qcurve" smooth="yes"/>
      <point x="846" y="645"/>
      <point x="670" y="833"/>
      <point x="521" y="833" type="qcurve" smooth="yes"/>
      <point x="443" y="834"/>
      <point x="261" y="736"/>
      <point x="217" y="677" type="qcurve"/>
      <point x="144" y="712" type="line"/>
      <point x="218" y="1456" type="line"/>
      <point x="871" y="1456" type="line"/>
      <point x="871" y="1371" type="line"/>
      <point x="293" y="1371" type="line"/>
      <point x="228" y="766" type="line"/>
      <point x="267" y="825"/>
      <point x="449" y="918"/>
      <point x="536" y="918" type="qcurve" smooth="yes"/>
      <point x="710" y="918"/>
      <point x="935" y="679"/>
      <point x="935" y="465" type="qcurve" smooth="yes"/>
      <point x="935" y="235"/>
      <point x="707" y="-30"/>
      <point x="520" y="-30" type="qcurve" smooth="yes"/>
      <point x="335" y="-30"/>
      <point x="97" y="174"/>
    </contour>
  </outline>
</glyph>
<glyph name="six" format="2">
  <advance width="1038"/>
  <unicode hex="0036"/>
  <outline>
    <contour>
      <point x="86" y="614" type="qcurve" smooth="yes"/>
      <point x="86" y="644" type="line" smooth="yes"/>
      <point x="86" y="1028"/>
      <point x="464" y="1486"/>
      <point x="754" y="1486" type="qcurve" smooth="yes"/>
      <point x="773" y="1486" type="line"/>
      <point x="773" y="1401" type="line"/>
      <point x="754" y="1401" type="line" smooth="yes"/>
      <point x="511" y="1401"/>
      <point x="173" y="1013"/>
      <point x="173" y="654" type="qcurve" smooth="yes"/>
      <point x="173" y="604" type="line" smooth="yes"/>
      <point x="173" y="303"/>
      <point x="388" y="55"/>
      <point x="547" y="55" type="qcurve" smooth="yes"/>
      <point x="707" y="55"/>
      <point x="872" y="269"/>
      <point x="872" y="464" type="qcurve" smooth="yes"/>
      <point x="872" y="646"/>
      <point x="707" y="844"/>
      <point x="552" y="844" type="qcurve" smooth="yes"/>
      <point x="397" y="844"/>
      <point x="167" y="627"/>
      <point x="167" y="464" type="qcurve"/>
      <point x="127" y="464" type="line"/>
      <point x="127" y="668"/>
      <point x="379" y="929"/>
      <point x="564" y="929" type="qcurve" smooth="yes"/>
      <point x="751" y="929"/>
      <point x="961" y="672"/>
      <point x="961" y="464" type="qcurve" smooth="yes"/>
      <point x="961" y="244"/>
      <point x="737" y="-30"/>
      <point x="548" y="-30" type="qcurve" smooth="yes"/>
      <point x="346" y="-30"/>
      <point x="86" y="296"/>
    </contour>
  </outline>
</glyph>
<glyph name="seven" format="2">
  <advance width="1038"/>
  <unicode hex="0037"/>
  <outline>
    <contour>
      <point x="291" y="0" type="line"/>
      <point x="864" y="1371" type="line"/>
      <point x="64" y="1371" type="line"/>
      <point x="64" y="1456" type="line"/>
      <point x="956" y="1456" type="line"/>
      <point x="956" y="1383" type="line"/>
      <point x="384" y="0" type="line"/>
    </contour>
  </outline>
</glyph>
<glyph name="eight" format="2">
  <advance width="1038"/>
  <unicode hex="0038"/>
  <outline>
    <contour>
      <point x="93" y="379" type="qcurve" smooth="yes"/>
      <point x="93" y="520"/>
      <point x="250" y="702"/>
      <point x="371" y="743" type="qcurve"/>
      <point x="371" y="747" type="line"/>
      <point x="265" y="783"/>
      <point x="137" y="972"/>
      <point x="137" y="1094" type="qcurve" smooth="yes"/>
      <point x="137" y="1271"/>
      <point x="353" y="1486"/>
      <point x="517" y="1486" type="qcurve" smooth="yes"/>
      <point x="681" y="1486"/>
      <point x="900" y="1268"/>
      <point x="900" y="1094" type="qcurve" smooth="yes"/>
      <point x="900" y="972"/>
      <point x="772" y="784"/>
      <point x="665" y="747" type="qcurve"/>
      <point x="665" y="743" type="line"/>
      <point x="791" y="708"/>
      <point x="945" y="522"/>
      <point x="945" y="379" type="qcurve" smooth="yes"/>
      <point x="945" y="184"/>
      <point x="699" y="-30"/>
      <point x="517" y="-30" type="qcurve" smooth="yes"/>
      <point x="335" y="-30"/>
      <point x="93" y="184"/>
    </contour>
    <contour>
      <point x="182" y="382" type="qcurve" smooth="yes"/>
      <point x="182" y="236"/>
      <point x="362" y="54"/>
      <point x="517" y="55" type="qcurve" smooth="yes"/>
      <point x="672" y="55"/>
      <point x="855" y="225"/>
      <point x="855" y="382" type="qcurve" smooth="yes"/>
      <point x="855" y="524"/>
      <point x="672" y="703"/>
      <point x="517" y="703" type="qcurve" smooth="yes"/>
      <point x="362" y="702"/>
      <point x="182" y="525"/>
    </contour>
    <contour>
      <point x="224" y="1091" type="qcurve" smooth="yes"/>
      <point x="224" y="959"/>
      <point x="382" y="789"/>
      <point x="517" y="788" type="qcurve" smooth="yes"/>
      <point x="652" y="788"/>
      <point x="813" y="959"/>
      <point x="813" y="1091" type="qcurve" smooth="yes"/>
      <point x="813" y="1228"/>
      <point x="652" y="1401"/>
      <point x="517" y="1401" type="qcurve" smooth="yes"/>
      <point x="382" y="1402"/>
      <point x="224" y="1228"/>
    </contour>
  </outline>
</glyph>
<glyph name="nine" format="2">
  <advance width="1038"/>
  <unicode hex="0039"/>
  <outline>
    <contour>
      <point x="69" y="992" type="qcurve" smooth="yes"/>
      <point x="69" y="1212"/>
      <point x="303" y="1486"/>
      <point x="491" y="1486" type="qcurve" smooth="yes"/>
      <point x="694" y="1486"/>
      <point x="945" y="1160"/>
      <point x="945" y="842" type="qcurve" smooth="yes"/>
      <point x="945" y="812" type="line" smooth="yes"/>
      <point x="945" y="428"/>
      <point x="559" y="-30"/>
      <point x="277" y="-30" type="qcurve" smooth="yes"/>
      <point x="257" y="-30" type="line"/>
      <point x="257" y="55" type="line"/>
      <point x="277" y="55" type="line" smooth="yes"/>
      <point x="519" y="55"/>
      <point x="856" y="443"/>
      <point x="856" y="802" type="qcurve" smooth="yes"/>
      <point x="856" y="852" type="line" smooth="yes"/>
      <point x="856" y="1153"/>
      <point x="651" y="1401"/>
      <point x="491" y="1401" type="qcurve" smooth="yes"/>
      <point x="331" y="1401"/>
      <point x="159" y="1187"/>
      <point x="159" y="992" type="qcurve" smooth="yes"/>
      <point x="159" y="810"/>
      <point x="322" y="613"/>
      <point x="477" y="613" type="qcurve" smooth="yes"/>
      <point x="633" y="613"/>
      <point x="863" y="828"/>
      <point x="863" y="992" type="qcurve"/>
      <point x="905" y="992" type="line"/>
      <point x="905" y="788"/>
      <point x="650" y="527"/>
      <point x="466" y="527" type="qcurve" smooth="yes"/>
      <point x="280" y="527"/>
      <point x="69" y="785"/>
    </contour>
  </outline>
</glyph>
<glyph name="semicolon" format="2">
  <advance width="492"/>
  <unicode hex="003B"/>
  <outline>
    <contour>
      <point x="157.04" y="-156.8925490196" type="line"/>
      <point x="185.1725490196" y="-111.8862745098"/>
      <point x="213.9725490196" y="-13.8737254902"/>
      <point x="213.9725490196" y="50.3325490196" type="qcurve" smooth="yes"/>
      <point x="213.9725490196" y="159.591372549" type="line"/>
      <point x="311.1701960784" y="159.591372549" type="line"/>
      <point x="311.1701960784" y="51.3325490196" type="line" smooth="yes"/>
      <point x="311.1701960784" y="-29.12"/>
      <point x="264.3639215686" y="-150.3388235294"/>
      <point x="220.771372549" y="-198.6650980392" type="qcurve"/>
    </contour>
    <contour>
      <point x="176" y="978.9411764706" type="qcurve" smooth="yes"/>
      <point x="176" y="1022.3137254902"/>
      <point x="215.3725490196" y="1068"/>
      <point x="246.431372549" y="1068" type="qcurve" smooth="yes"/>
      <point x="277.4901960784" y="1068"/>
      <point x="315.862745098" y="1022.3137254902"/>
      <point x="315.862745098" y="978.9411764706" type="qcurve" smooth="yes"/>
      <point x="315.862745098" y="936.2549019608"/>
      <point x="277.4901960784" y="889.8823529412"/>
      <point x="246.431372549" y="889.8823529412" type="qcurve" smooth="yes"/>
      <point x="216.0588235294" y="889.8823529412"/>
      <point x="176" y="936.2549019608"/>
    </contour>
  </outline>
</glyph>
<glyph name="less" format="2">
  <advance width="990"/>
  <unicode hex="003C"/>
  <outline>
    <contour>
      <point x="886.0" y="240.0" type="line"/>
      <point x="122.0" y="624.0" type="line"/>
      <point x="122.0" y="711.0" type="line"/>
      <point x="886.0" y="1092.0" type="line"/>
      <point x="886.0" y="1013.0" type="line"/>
      <point x="192.0" y="667.0" type="line"/>
      <point x="886.0" y="320.0" type="line"/>
    </contour>
  </outline>
</glyph>
<glyph name="equal" format="2">
	<unicode hex="003D"/>
	<advance width="990"/>
	<outline>
		<contour>
			<point x="88" y="430" type="line"/>
			<point x="88" y="510" type="line"/>
			<point x="902" y="510" type="line"/>
			<point x="902" y="430" type="line"/>
		</contour>
		<contour>
			<point x="88" y="836" type="line"/>
			<point x="88" y="916" type="line"/>
			<point x="902" y="916" type="line"/>
			<point x="902" y="836" type="line"/>
		</contour>
	</outline>
</glyph>
<glyph name="greater" format="2">
  <advance width="990"/>
  <unicode hex="003E"/>
  <outline>
    <contour>
      <point x="104.0" y="240.0" type="line"/>
      <point x="104.0" y="319.0" type="line"/>
      <point x="798.0" y="665.0" type="line"/>
      <point x="104.0" y="1012.0" type="line"/>
      <point x="104.0" y="1092.0" type="line"/>
      <point x="868.0" y="708.0" type="line"/>
      <point x="868.0" y="621.0" type="line"/>
    </contour>
  </outline>
</glyph>
<glyph name="at" format="2">
	<unicode hex="0040"/>
	<advance width="1925"/>
	<outline>
		<contour>
			<point x="613.6854901961" y="400" type="qcurve" smooth="yes"/>
			<point x="613.6854901961" y="680"/>
			<point x="863.2890196078" y="1052"/>
			<point x="1039.5184313725" y="1052" type="qcurve" smooth="yes"/>
			<point x="1108.0874509804" y="1052"/>
			<point x="1230.6203921569" y="979.24"/>
			<point x="1263.0643137255" y="946" type="qcurve"/>
			<point x="1309.497254902" y="946" type="line"/>
			<point x="1188.7168627451" y="350" type="line" smooth="yes"/>
			<point x="1156.9843137255" y="195.3725490196"/>
			<point x="1283.0870588235" y="75.5788235294"/>
			<point x="1384.7498039216" y="75.5788235294" type="qcurve" smooth="yes"/>
			<point x="1536.389089104" y="75.5788235294"/>
			<point x="1728" y="394"/>
			<point x="1728" y="650" type="qcurve" smooth="yes"/>
			<point x="1728" y="979"/>
			<point x="1322" y="1404"/>
			<point x="1007" y="1404" type="qcurve" smooth="yes"/>
			<point x="655" y="1404"/>
			<point x="200" y="872"/>
			<point x="200" y="460" type="qcurve" smooth="yes"/>
			<point x="200" y="63"/>
			<point x="566" y="-364"/>
			<point x="907" y="-364" type="qcurve" smooth="yes"/>
			<point x="1020" y="-364"/>
			<point x="1227" y="-317"/>
			<point x="1307" y="-274" type="qcurve"/>
			<point x="1307" y="-356" type="line"/>
			<point x="1237" y="-399"/>
			<point x="1030" y="-446"/>
			<point x="907" y="-446" type="qcurve" smooth="yes"/>
			<point x="525" y="-446"/>
			<point x="114" y="23"/>
			<point x="114" y="460" type="qcurve" smooth="yes"/>
			<point x="114" y="908"/>
			<point x="617" y="1486"/>
			<point x="1007" y="1486" type="qcurve" smooth="yes"/>
			<point x="1358" y="1486"/>
			<point x="1811" y="1015"/>
			<point x="1811" y="650" type="qcurve" smooth="yes"/>
			<point x="1811" y="360"/>
			<point x="1561.1380392157" y="0"/>
			<point x="1381.7498039216" y="0" type="qcurve" smooth="yes"/>
			<point x="1277.3065812088" y="0"/>
			<point x="1133.4207298216" y="101.7020479718"/>
			<point x="1100.9992156863" y="186.8" type="qcurve"/>
			<point x="1068.0977921537" y="100.0771258656"/>
			<point x="937.899894106" y="0"/>
			<point x="858.5341176471" y="0" type="qcurve" smooth="yes"/>
			<point x="746.0823529412" y="0"/>
			<point x="613.6854901961" y="220"/>
		</contour>
		<contour>
			<point x="700.5356862745" y="400" type="qcurve" smooth="yes"/>
			<point x="700.5356862745" y="243.3262745098"/>
			<point x="790.9455701504" y="80.9788235294"/>
			<point x="875.9717647059" y="80.9788235294" type="qcurve" smooth="yes"/>
			<point x="954.0346290912" y="80.9788235294"/>
			<point x="1073.183919737" y="221.0388008096"/>
			<point x="1110.9717647059" y="391.3725490196" type="qcurve" smooth="yes"/>
			<point x="1221.9345098039" y="917.8549019608" type="line"/>
			<point x="1191.6597311558" y="944.2614418065"/>
			<point x="1095.88" y="974.4549019608"/>
			<point x="1050.4709803922" y="974.4549019608" type="qcurve" smooth="yes"/>
			<point x="899.0923075437" y="974.4549019608"/>
			<point x="700.5356862745" y="647.1474509804"/>
		</contour>
	</outline>
</glyph>
<glyph name="B" format="2">
  <advance width="1064"/>
  <unicode hex="0042"/>
  <anchor x="532.0" y="0" name="bottom"/>
  <anchor x="532.0" y="1456" name="top"/>
  <outline>
    <contour>
      <point x="170" y="0" type="line"/>
      <point x="170" y="1456" type="line"/>
      <point x="540" y="1456" type="line" smooth="yes"/>
      <point x="719" y="1456"/>
      <point x="920" y="1284"/>
      <point x="920" y="1087" type="qcurve" smooth="yes"/>
      <point x="920" y="960"/>
      <point x="813" y="792"/>
      <point x="730" y="767" type="qcurve"/>
      <point x="730" y="763" type="line"/>
      <point x="836" y="736"/>
      <point x="963" y="549"/>
      <point x="963" y="399" type="qcurve" smooth="yes"/>
      <point x="963" y="204"/>
      <point x="753" y="0"/>
      <point x="574" y="0" type="qcurve" smooth="yes"/>
    </contour>
    <contour>
      <point x="258" y="85" type="line"/>
      <point x="574" y="85" type="line" smooth="yes"/>
      <point x="729" y="85"/>
      <point x="874" y="248"/>
      <point x="874" y="401" type="qcurve" smooth="yes"/>
      <point x="874" y="545"/>
      <point x="729" y="716"/>
      <point x="574" y="716" type="qcurve" smooth="yes"/>
      <point x="258" y="716" type="line"/>
    </contour>
    <contour>
      <point x="258" y="801" type="line"/>
      <point x="540" y="801" type="line" smooth="yes"/>
      <point x="694" y="801"/>
      <point x="831" y="951"/>
      <point x="831" y="1087" type="qcurve" smooth="yes"/>
      <point x="831" y="1231"/>
      <point x="694" y="1370"/>
      <point x="540" y="1371" type="qcurve" smooth="yes"/>
      <point x="258" y="1371" type="line"/>
    </contour>
  </outline>
</glyph>
<glyph name="C" format="2">
  <advance width="1153"/>
  <unicode hex="0043"/>
  <anchor x="617" y="0" name="bottom"/>
  <anchor x="617" y="1456" name="top"/>
  <outline>
    <contour>
      <point x="115" y="697" type="qcurve" smooth="yes"/>
      <point x="115" y="759" type="line" smooth="yes"/>
      <point x="115" y="1140"/>
      <point x="389" y="1486"/>
      <point x="616" y="1486" type="qcurve" smooth="yes"/>
      <point x="809" y="1486"/>
      <point x="1040" y="1234"/>
      <point x="1062" y="1000" type="qcurve" smooth="yes"/>
      <point x="1063" y="989" type="line"/>
      <point x="977" y="989" type="line"/>
      <point x="976" y="999" type="line" smooth="yes"/>
      <point x="957" y="1193"/>
      <point x="768" y="1401"/>
      <point x="616" y="1401" type="qcurve" smooth="yes"/>
      <point x="414" y="1401"/>
      <point x="204" y="1073"/>
      <point x="204" y="800" type="qcurve" smooth="yes"/>
      <point x="204" y="657" type="line" smooth="yes"/>
      <point x="204" y="351"/>
      <point x="429" y="55"/>
      <point x="615" y="55" type="qcurve" smooth="yes"/>
      <point x="768" y="55"/>
      <point x="957" y="263"/>
      <point x="976" y="457" type="qcurve" smooth="yes"/>
      <point x="977" y="467" type="line"/>
      <point x="1063" y="467" type="line"/>
      <point x="1062" y="457" type="line" smooth="yes"/>
      <point x="1038" y="222"/>
      <point x="807" y="-30"/>
      <point x="616" y="-30" type="qcurve" smooth="yes"/>
      <point x="387" y="-30"/>
      <point x="115" y="314"/>
    </contour>
  </outline>
</glyph>
<glyph name="D" format="2">
	<unicode hex="0044"/>
	<advance width="1168"/>
	<outline>
		<contour>
			<point x="170" y="0" type="line"/>
			<point x="170" y="1456" type="line"/>
			<point x="493" y="1456" type="line" smooth="yes"/>
			<point x="740" y="1456"/>
			<point x="1053" y="1111"/>
			<point x="1053" y="759" type="qcurve" smooth="yes"/>
			<point x="1053" y="697" type="line" smooth="yes"/>
			<point x="1053" y="345"/>
			<point x="740" y="0"/>
			<point x="493" y="0" type="qcurve" smooth="yes"/>
		</contour>
		<contour>
			<point x="259" y="85" type="line"/>
			<point x="493" y="85" type="line" smooth="yes"/>
			<point x="708" y="85"/>
			<point x="964" y="379"/>
			<point x="964" y="697" type="qcurve" smooth="yes"/>
			<point x="964" y="759" type="line" smooth="yes"/>
			<point x="964" y="1077"/>
			<point x="708" y="1370"/>
			<point x="493" y="1371" type="qcurve" smooth="yes"/>
			<point x="259" y="1371" type="line"/>
		</contour>
	</outline>
</glyph>
<glyph name="E" format="2">
	<unicode hex="0045"/>
	<advance width="975"/>
	<outline>
		<contour>
			<point x="170" y="0" type="line"/>
			<point x="170" y="1456" type="line"/>
			<point x="896" y="1456" type="line"/>
			<point x="896" y="1371" type="line"/>
			<point x="259" y="1371" type="line"/>
			<point x="259" y="793" type="line"/>
			<point x="792" y="793" type="line"/>
			<point x="792" y="708" type="line"/>
			<point x="259" y="708" type="line"/>
			<point x="259" y="85" type="line"/>
			<point x="907" y="85" type="line"/>
			<point x="907" y="0" type="line"/>
		</contour>
	</outline>
</glyph>
<glyph name="F" format="2">
	<unicode hex="0046"/>
	<advance width="941"/>
	<outline>
		<contour>
			<point x="170" y="0" type="line"/>
			<point x="170" y="1456" type="line"/>
			<point x="882" y="1456" type="line"/>
			<point x="882" y="1371" type="line"/>
			<point x="259" y="1371" type="line"/>
			<point x="259" y="763" type="line"/>
			<point x="794" y="763" type="line"/>
			<point x="794" y="678" type="line"/>
			<point x="259" y="678" type="line"/>
			<point x="259" y="0" type="line"/>
		</contour>
	</outline>
</glyph>
<glyph name="G" format="2">
  <advance width="1158"/>
  <unicode hex="0047"/>
  <anchor x="579.0" y="0" name="bottom"/>
  <anchor x="579.0" y="1456" name="top"/>
  <outline>
    <contour>
      <point x="115" y="697" type="qcurve" smooth="yes"/>
      <point x="115" y="759" type="line" smooth="yes"/>
      <point x="115" y="1136"/>
      <point x="390" y="1486"/>
      <point x="590" y="1486" type="qcurve" smooth="yes"/>
      <point x="806" y="1486"/>
      <point x="1030" y="1253"/>
      <point x="1057" y="1037" type="qcurve" smooth="yes"/>
      <point x="1058" y="1029" type="line"/>
      <point x="969" y="1029" type="line"/>
      <point x="968" y="1039" type="line" smooth="yes"/>
      <point x="950" y="1220"/>
      <point x="757" y="1401"/>
      <point x="594" y="1401" type="qcurve" smooth="yes"/>
      <point x="406" y="1401"/>
      <point x="204" y="1081"/>
      <point x="204" y="799" type="qcurve" smooth="yes"/>
      <point x="204" y="657" type="line" smooth="yes"/>
      <point x="204" y="344"/>
      <point x="427" y="55"/>
      <point x="625" y="55" type="qcurve" smooth="yes"/>
      <point x="741" y="55"/>
      <point x="910" y="108"/>
      <point x="974" y="163" type="qcurve"/>
      <point x="974" y="605" type="line"/>
      <point x="623" y="605" type="line"/>
      <point x="623" y="689" type="line"/>
      <point x="1058" y="689" type="line"/>
      <point x="1058" y="127" type="line"/>
      <point x="993" y="65"/>
      <point x="793" y="-30"/>
      <point x="620" y="-30" type="qcurve" smooth="yes"/>
      <point x="395" y="-30"/>
      <point x="115" y="296"/>
    </contour>
  </outline>
</glyph>
<glyph name="H" format="2">
	<unicode hex="0048"/>
	<advance width="1252"/>
	<outline>
		<contour>
			<point x="170" y="0" type="line"/>
			<point x="170" y="1456" type="line"/>
			<point x="258" y="1456" type="line"/>
			<point x="258" y="793" type="line"/>
			<point x="994" y="793" type="line"/>
			<point x="994" y="1456" type="line"/>
			<point x="1082" y="1456" type="line"/>
			<point x="1082" y="0" type="line"/>
			<point x="994" y="0" type="line"/>
			<point x="994" y="708" type="line"/>
			<point x="258" y="708" type="line"/>
			<point x="258" y="0" type="line"/>
		</contour>
	</outline>
	<anchor name="bottom" x="626" y="0"/>
	<anchor name="center" x="626" y="1085"/>
	<anchor name="top" x="626" y="1456"/>
</glyph>
<glyph name="I" format="2">
	<unicode hex="0049"/>
	<advance width="438"/>
	<outline>
		<contour>
			<point x="175" y="0" type="line"/>
			<point x="175" y="1456" type="line"/>
			<point x="263" y="1456" type="line"/>
			<point x="263" y="0" type="line"/>
		</contour>
	</outline>
	<anchor name="bottom" x="219" y="0"/>
	<anchor name="ogonek" x="232" y="0"/>
	<anchor name="top" x="219" y="1456"/>
</glyph>
<glyph name="J" format="2">
  <advance width="931"/>
  <unicode hex="004A"/>
  <anchor x="407" y="0" name="bottom"/>
  <anchor x="720" y="1456" name="top"/>
  <outline>
    <contour>
      <point x="52" y="429" type="qcurve" smooth="yes"/>
      <point x="52" y="439" type="line"/>
      <point x="141" y="439" type="line"/>
      <point x="141" y="399" type="line" smooth="yes"/>
      <point x="141" y="215"/>
      <point x="278" y="55"/>
      <point x="407" y="55" type="qcurve" smooth="yes"/>
      <point x="535" y="55"/>
      <point x="673" y="232"/>
      <point x="673" y="424" type="qcurve" smooth="yes"/>
      <point x="673" y="1456" type="line"/>
      <point x="761" y="1456" type="line"/>
      <point x="761" y="454" type="line" smooth="yes"/>
      <point x="761" y="200"/>
      <point x="570" y="-30"/>
      <point x="407" y="-30" type="qcurve" smooth="yes"/>
      <point x="243" y="-30"/>
      <point x="52" y="185"/>
    </contour>
  </outline>
</glyph>
<glyph name="K" format="2">
	<unicode hex="004B"/>
	<advance width="1081"/>
	<outline>
		<contour>
			<point x="170" y="0" type="line"/>
			<point x="170" y="1456" type="line"/>
			<point x="258" y="1456" type="line"/>
			<point x="258" y="611" type="line"/>
			<point x="934" y="1456" type="line"/>
			<point x="1042" y="1456" type="line"/>
			<point x="258" y="498" type="line"/>
			<point x="258" y="0" type="line"/>
		</contour>
		<contour>
			<point x="965" y="0" type="line"/>
			<point x="443" y="792" type="line"/>
			<point x="503" y="863" type="line"/>
			<point x="1073" y="0" type="line"/>
		</contour>
	</outline>
	<anchor name="bottom" x="588" y="0"/>
	<anchor name="top" x="588" y="1456"/>
</glyph>
<glyph name="L" format="2">
  <advance width="926"/>
  <unicode hex="004C"/>
  <outline>
    <contour>
      <point x="170" y="0" type="line"/>
      <point x="170" y="1456" type="line"/>
      <point x="259" y="1456" type="line"/>
      <point x="259" y="85" type="line"/>
      <point x="874" y="85" type="line"/>
      <point x="874" y="0" type="line"/>
    </contour>
  </outline>
</glyph>
<glyph name="M" format="2">
	<unicode hex="004D"/>
	<advance width="1515"/>
	<outline>
		<contour>
			<point x="170" y="0" type="line"/>
			<point x="170" y="1456" type="line"/>
			<point x="277" y="1456" type="line"/>
			<point x="716" y="221" type="line" smooth="yes"/>
			<point x="729" y="186"/>
			<point x="747" y="129"/>
			<point x="755" y="96" type="qcurve"/>
			<point x="761" y="96" type="line"/>
			<point x="769" y="129"/>
			<point x="790" y="187"/>
			<point x="803" y="222" type="qcurve" smooth="yes"/>
			<point x="1238" y="1456" type="line"/>
			<point x="1345" y="1456" type="line"/>
			<point x="1345" y="0" type="line"/>
			<point x="1257" y="0" type="line"/>
			<point x="1257" y="1154" type="line" smooth="yes"/>
			<point x="1257" y="1190"/>
			<point x="1260" y="1277"/>
			<point x="1265" y="1312" type="qcurve"/>
			<point x="1257" y="1312" type="line"/>
			<point x="1246" y="1277"/>
			<point x="1223" y="1190"/>
			<point x="1210" y="1154" type="qcurve" smooth="yes"/>
			<point x="803" y="0" type="line"/>
			<point x="713" y="0" type="line"/>
			<point x="305" y="1153" type="line" smooth="yes"/>
			<point x="292" y="1189"/>
			<point x="267" y="1276"/>
			<point x="258" y="1311" type="qcurve"/>
			<point x="250" y="1311" type="line"/>
			<point x="254" y="1276"/>
			<point x="258" y="1189"/>
			<point x="258" y="1153" type="qcurve" smooth="yes"/>
			<point x="258" y="0" type="line"/>
		</contour>
	</outline>
	<anchor name="bottom" x="787.5" y="0"/>
	<anchor name="top" x="787.5" y="1456"/>
</glyph>
<glyph name="N" format="2">
  <advance width="1243"/>
  <unicode hex="004E"/>
  <anchor x="621.5" y="0" name="bottom"/>
  <anchor x="621.5" y="1456" name="top"/>
  <outline>
    <contour>
      <point x="170" y="0" type="line"/>
      <point x="170" y="1456" type="line"/>
      <point x="292" y="1456" type="line"/>
      <point x="927" y="228" type="line" smooth="yes"/>
      <point x="939" y="202"/>
      <point x="975" y="118"/>
      <point x="986" y="86" type="qcurve"/>
      <point x="994" y="86" type="line"/>
      <point x="990" y="121"/>
      <point x="985" y="192"/>
      <point x="985" y="224" type="qcurve" smooth="yes"/>
      <point x="985" y="1456" type="line"/>
      <point x="1073" y="1456" type="line"/>
      <point x="1073" y="0" type="line"/>
      <point x="950" y="0" type="line"/>
      <point x="309" y="1237" type="line" smooth="yes"/>
      <point x="294" y="1268"/>
      <point x="259" y="1341"/>
      <point x="251" y="1369" type="qcurve"/>
      <point x="241" y="1369" type="line"/>
      <point x="248" y="1333"/>
      <point x="255" y="1251"/>
      <point x="255" y="1217" type="qcurve" smooth="yes"/>
      <point x="255" y="0" type="line"/>
    </contour>
  </outline>
</glyph>
<glyph name="P" format="2">
  <advance width="1017"/>
  <unicode hex="0050"/>
  <anchor x="508.5" y="0" name="bottom"/>
  <anchor x="508.5" y="1456" name="top"/>
  <outline>
    <contour>
      <point x="170" y="0" type="line"/>
      <point x="170" y="1456" type="line"/>
      <point x="539" y="1456" type="line" smooth="yes"/>
      <point x="742" y="1456"/>
      <point x="941" y="1245"/>
      <point x="941" y="1030" type="qcurve" smooth="yes"/>
      <point x="941" y="816"/>
      <point x="742" y="601"/>
      <point x="539" y="602" type="qcurve" smooth="yes"/>
      <point x="258" y="602" type="line"/>
      <point x="258" y="0" type="line"/>
    </contour>
    <contour>
      <point x="258" y="687" type="line"/>
      <point x="539" y="687" type="line" smooth="yes"/>
      <point x="713" y="687"/>
      <point x="852" y="872"/>
      <point x="852" y="1030" type="qcurve" smooth="yes"/>
      <point x="852" y="1189"/>
      <point x="713" y="1370"/>
      <point x="539" y="1371" type="qcurve" smooth="yes"/>
      <point x="258" y="1371" type="line"/>
    </contour>
  </outline>
</glyph>
<glyph name="T" format="2">
	<unicode hex="0054"/>
	<advance width="998"/>
	<outline>
		<contour>
			<point x="24" y="1371" type="line"/>
			<point x="24" y="1456" type="line"/>
			<point x="974" y="1456" type="line"/>
			<point x="974" y="1371" type="line"/>
			<point x="543" y="1371" type="line"/>
			<point x="543" y="0" type="line"/>
			<point x="455" y="0" type="line"/>
			<point x="455" y="1371" type="line"/>
		</contour>
	</outline>
	<anchor name="bottom" x="499" y="0"/>
	<anchor name="center" x="499" y="728"/>
	<anchor name="top" x="499" y="1456"/>
</glyph>
<glyph name="U" format="2">
	<unicode hex="0055"/>
	<advance width="1160"/>
	<outline>
		<contour>
			<point x="155" y="498.5882352941" type="qcurve" smooth="yes"/>
			<point x="155" y="1456" type="line"/>
			<point x="243" y="1456" type="line"/>
			<point x="243" y="459" type="line" smooth="yes"/>
			<point x="243" y="253"/>
			<point x="428" y="55"/>
			<point x="580" y="55" type="qcurve" smooth="yes"/>
			<point x="729" y="55"/>
			<point x="916" y="254"/>
			<point x="916" y="459" type="qcurve" smooth="yes"/>
			<point x="916" y="1456" type="line"/>
			<point x="1003.6274509804" y="1456" type="line"/>
			<point x="1003.6274509804" y="498.5882352941" type="line" smooth="yes"/>
			<point x="1003.6274509804" y="214.2941176471"/>
			<point x="765.271372549" y="-30"/>
			<point x="579.4705882353" y="-30" type="qcurve" smooth="yes"/>
			<point x="394.3560784314" y="-30"/>
			<point x="155" y="214.2941176471"/>
		</contour>
	</outline>
	<anchor name="bottom" x="580" y="0"/>
	<anchor name="ogonek" x="734" y="0"/>
	<anchor name="top" x="580" y="1456"/>
	<anchor name="topright" x="954" y="1456"/>
</glyph>
<glyph name="V" format="2">
  <advance width="1033"/>
  <unicode hex="0056"/>
  <anchor x="516.5" y="0" name="bottom"/>
  <anchor x="516.5" y="1456" name="top"/>
  <outline>
    <contour>
      <point x="0" y="1456" type="line"/>
      <point x="91" y="1456" type="line"/>
      <point x="466" y="246" type="line" smooth="yes"/>
      <point x="479" y="204"/>
      <point x="506" y="102"/>
      <point x="517" y="55" type="qcurve"/>
      <point x="524" y="55" type="line"/>
      <point x="535" y="102"/>
      <point x="562" y="204"/>
      <point x="575" y="246" type="qcurve" smooth="yes"/>
      <point x="946" y="1456" type="line"/>
      <point x="1032.6666666667" y="1456" type="line"/>
      <point x="579" y="-10" type="line"/>
      <point x="458" y="-10" type="line"/>
    </contour>
  </outline>
</glyph>
<glyph name="W" format="2">
  <advance width="1555"/>
  <unicode hex="0057"/>
  <anchor x="827.5" y="0" name="bottom"/>
  <anchor x="827.5" y="1456" name="top"/>
  <outline>
    <contour>
      <point x="347" y="-10" type="line"/>
      <point x="50" y="1456" type="line"/>
      <point x="140" y="1456" type="line"/>
      <point x="370" y="224" type="line" smooth="yes"/>
      <point x="377" y="188"/>
      <point x="388" y="138"/>
      <point x="395" y="102" type="qcurve"/>
      <point x="401" y="102" type="line"/>
      <point x="408" y="138"/>
      <point x="418" y="188"/>
      <point x="427" y="224" type="qcurve" smooth="yes"/>
      <point x="722" y="1456" type="line"/>
      <point x="839" y="1456" type="line"/>
      <point x="1131" y="224" type="line" smooth="yes"/>
      <point x="1140" y="188"/>
      <point x="1150" y="138"/>
      <point x="1157" y="102" type="qcurve"/>
      <point x="1163" y="102" type="line"/>
      <point x="1169" y="138"/>
      <point x="1178" y="188"/>
      <point x="1186" y="224" type="qcurve" smooth="yes"/>
      <point x="1420" y="1456" type="line"/>
      <point x="1505" y="1456" type="line"/>
      <point x="1209" y="-10" type="line"/>
      <point x="1112" y="-10" type="line"/>
      <point x="810" y="1241" type="line" smooth="yes"/>
      <point x="801" y="1277"/>
      <point x="787" y="1339"/>
      <point x="783" y="1364" type="qcurve"/>
      <point x="775" y="1364" type="line"/>
      <point x="771" y="1339"/>
      <point x="759" y="1277"/>
      <point x="750" y="1241" type="qcurve" smooth="yes"/>
      <point x="445" y="-10" type="line"/>
    </contour>
  </outline>
</glyph>
<glyph name="X" format="2">
  <advance width="972"/>
  <unicode hex="0058"/>
  <outline>
    <contour>
      <point x="15" y="0" type="line"/>
      <point x="456" y="775" type="line"/>
      <point x="467" y="775" type="line"/>
      <point x="833" y="1456" type="line"/>
      <point x="933" y="1456" type="line"/>
      <point x="516" y="701" type="line"/>
      <point x="507" y="701" type="line"/>
      <point x="114" y="0" type="line"/>
    </contour>
    <contour>
      <point x="40" y="1456" type="line"/>
      <point x="142" y="1456" type="line"/>
      <point x="508" y="775" type="line"/>
      <point x="518" y="775" type="line"/>
      <point x="957" y="0" type="line"/>
      <point x="854" y="0" type="line"/>
      <point x="465" y="701" type="line"/>
      <point x="455" y="701" type="line"/>
    </contour>
  </outline>
</glyph>
<glyph name="Y" format="2">
  <advance width="932"/>
  <unicode hex="0059"/>
  <outline>
    <contour>
      <point x="422" y="0" type="line"/>
      <point x="422" y="582" type="line"/>
      <point x="15" y="1456" type="line"/>
      <point x="114" y="1456" type="line"/>
      <point x="399" y="805" type="line" smooth="yes"/>
      <point x="412" y="775"/>
      <point x="451" y="689"/>
      <point x="464" y="654" type="qcurve"/>
      <point x="475" y="654" type="line"/>
      <point x="486" y="689"/>
      <point x="521" y="775"/>
      <point x="537" y="805" type="qcurve" smooth="yes"/>
      <point x="824" y="1456" type="line"/>
      <point x="917" y="1456" type="line"/>
      <point x="510" y="582" type="line"/>
      <point x="510" y="0" type="line"/>
    </contour>
  </outline>
</glyph>
<glyph name="Z" format="2">
	<unicode hex="005A"/>
	<advance width="1009"/>
	<outline>
		<contour>
			<point x="33" y="0" type="line"/>
			<point x="33" y="66" type="line"/>
			<point x="855" y="1371" type="line"/>
			<point x="47" y="1371" type="line"/>
			<point x="47" y="1456" type="line"/>
			<point x="967" y="1456" type="line"/>
			<point x="967" y="1390" type="line"/>
			<point x="145" y="85" type="line"/>
			<point x="1003" y="85" type="line"/>
			<point x="1003" y="0" type="line"/>
		</contour>
	</outline>
</glyph>
<glyph name="bracketleft" format="2">
  <advance width="469"/>
  <unicode hex="005B"/>
  <outline>
    <contour>
      <point x="144" y="-310" type="line"/>
      <point x="144" y="1456" type="line"/>
      <point x="522.1929411765" y="1456" type="line"/>
      <point x="522.1929411765" y="1373.0549019608" type="line"/>
      <point x="230.9764705882" y="1373.0549019608" type="line"/>
      <point x="230.9764705882" y="-227.0549019608" type="line"/>
      <point x="522.1929411765" y="-227.0549019608" type="line"/>
      <point x="522.1929411765" y="-310" type="line"/>
    </contour>
  </outline>
</glyph>
<glyph name="backslash" format="2">
	<unicode hex="005C"/>
	<advance width="493"/>
	<outline>
		<contour>
			<point x="-104" y="1456" type="line"/>
			<point x="-12" y="1456" type="line"/>
			<point x="597" y="-125" type="line"/>
			<point x="507" y="-125" type="line"/>
		</contour>
	</outline>
</glyph>
<glyph name="bracketright" format="2">
  <advance width="469"/>
  <unicode hex="005D"/>
  <outline>
    <contour>
      <point x="324.3490196078" y="-310" type="line"/>
      <point x="-54.5301960784" y="-310" type="line"/>
      <point x="-54.5301960784" y="-227.0549019608" type="line"/>
      <point x="236.6862745098" y="-227.0549019608" type="line"/>
      <point x="236.6862745098" y="1373.0549019608" type="line"/>
      <point x="-54.5301960784" y="1373.0549019608" type="line"/>
      <point x="-54.5301960784" y="1456" type="line"/>
      <point x="324.3490196078" y="1456" type="line"/>
    </contour>
  </outline>
</glyph>
<glyph name="underscore" format="2">
  <advance width="756"/>
  <unicode hex="005F"/>
  <outline>
    <contour>
      <point x="0" y="68.1960784314" type="line"/>
      <point x="0" y="142.8235294118" type="line"/>
      <point x="755.9803921569" y="142.8235294118" type="line"/>
      <point x="755.9803921569" y="68.1960784314" type="line"/>
    </contour>
  </outline>
</glyph>
<glyph name="grave" format="2">
	<unicode hex="0060"/>
	<advance width="1024"/>
	<outline>
		<contour>
			<point x="622" y="1220" type="line"/>
			<point x="324" y="1496" type="line"/>
			<point x="408" y="1554" type="line"/>
			<point x="663" y="1250" type="line"/>
		</contour>
	</outline>
</glyph>
<glyph name="b" format="2">
	<unicode hex="0062"/>
	<advance width="1006"/>
	<outline>
		<contour>
			<point x="148" y="0" type="line"/>
			<point x="148" y="1536" type="line"/>
			<point x="234" y="1536" type="line"/>
			<point x="234" y="928" type="line"/>
			<point x="287" y="992"/>
			<point x="440" y="1072"/>
			<point x="551" y="1072" type="qcurve" smooth="yes"/>
			<point x="730" y="1072"/>
			<point x="921" y="773"/>
			<point x="921" y="542" type="qcurve" smooth="yes"/>
			<point x="921" y="510" type="line" smooth="yes"/>
			<point x="921" y="255"/>
			<point x="713" y="-20"/>
			<point x="551" y="-20" type="qcurve" smooth="yes"/>
			<point x="440" y="-20"/>
			<point x="275" y="72"/>
			<point x="230" y="137" type="qcurve"/>
			<point x="231" y="137" type="line"/>
			<point x="229" y="0" type="line"/>
		</contour>
		<contour>
			<point x="234" y="239" type="line"/>
			<point x="269" y="168"/>
			<point x="413" y="63"/>
			<point x="521" y="63" type="qcurve" smooth="yes"/>
			<point x="672" y="63"/>
			<point x="833" y="298"/>
			<point x="833" y="480" type="qcurve" smooth="yes"/>
			<point x="833" y="572" type="line" smooth="yes"/>
			<point x="833" y="773"/>
			<point x="660" y="989"/>
			<point x="525" y="989" type="qcurve" smooth="yes"/>
			<point x="420" y="989"/>
			<point x="265" y="876"/>
			<point x="234" y="813" type="qcurve"/>
		</contour>
	</outline>
	<anchor name="bottom" x="508.5" y="0"/>
	<anchor name="top" x="508.5" y="1052"/>
</glyph>
<glyph name="c" format="2">
  <advance width="930"/>
  <unicode hex="0063"/>
  <anchor x="488.0" y="0" name="bottom"/>
  <anchor x="493.0" y="1052" name="top"/>
  <outline>
    <contour>
      <point x="85" y="510" type="qcurve" smooth="yes"/>
      <point x="85" y="542" type="line" smooth="yes"/>
      <point x="85" y="800"/>
      <point x="304" y="1082"/>
      <point x="494" y="1082" type="qcurve" smooth="yes"/>
      <point x="648" y="1082"/>
      <point x="846" y="891"/>
      <point x="846" y="714" type="qcurve" smooth="yes"/>
      <point x="846" y="709" type="line"/>
      <point x="763" y="709" type="line"/>
      <point x="763" y="714" type="line" smooth="yes"/>
      <point x="763" y="838"/>
      <point x="623" y="999"/>
      <point x="493" y="999" type="qcurve" smooth="yes"/>
      <point x="332" y="999"/>
      <point x="172" y="771"/>
      <point x="172" y="572" type="qcurve" smooth="yes"/>
      <point x="172" y="480" type="line" smooth="yes"/>
      <point x="172" y="280"/>
      <point x="331" y="52"/>
      <point x="484" y="52" type="qcurve" smooth="yes"/>
      <point x="618" y="52"/>
      <point x="763" y="213"/>
      <point x="763" y="338" type="qcurve" smooth="yes"/>
      <point x="763" y="343" type="line"/>
      <point x="846" y="343" type="line"/>
      <point x="846" y="338" type="line" smooth="yes"/>
      <point x="846" y="161"/>
      <point x="643" y="-30"/>
      <point x="486" y="-30" type="qcurve" smooth="yes"/>
      <point x="304" y="-30"/>
      <point x="85" y="252"/>
    </contour>
  </outline>
</glyph>
<glyph name="d" format="2">
  <advance width="1007"/>
  <unicode hex="0064"/>
  <anchor x="508.5" y="0" name="bottom"/>
  <anchor x="684" y="1304.0" name="center"/>
  <anchor x="509" y="1536" name="top"/>
  <anchor x="829" y="1052" name="topright"/>
  <outline>
    <contour>
      <point x="85" y="510" type="qcurve" smooth="yes"/>
      <point x="85" y="542" type="line" smooth="yes"/>
      <point x="85" y="773"/>
      <point x="275" y="1072"/>
      <point x="454" y="1072" type="qcurve" smooth="yes"/>
      <point x="566" y="1072"/>
      <point x="722" y="992"/>
      <point x="773" y="928" type="qcurve"/>
      <point x="773" y="1536" type="line"/>
      <point x="859" y="1536" type="line"/>
      <point x="859" y="0" type="line"/>
      <point x="779" y="0" type="line"/>
      <point x="776" y="137" type="line"/>
      <point x="778" y="137" type="line"/>
      <point x="733" y="72"/>
      <point x="565" y="-20"/>
      <point x="454" y="-20" type="qcurve" smooth="yes"/>
      <point x="292" y="-20"/>
      <point x="85" y="255"/>
    </contour>
    <contour>
      <point x="173" y="480" type="line" smooth="yes"/>
      <point x="173" y="298"/>
      <point x="332" y="63"/>
      <point x="483" y="63" type="qcurve" smooth="yes"/>
      <point x="592" y="63"/>
      <point x="739" y="169"/>
      <point x="773" y="239" type="qcurve"/>
      <point x="773" y="813" type="line"/>
      <point x="739" y="883"/>
      <point x="592" y="989"/>
      <point x="483" y="989" type="qcurve" smooth="yes"/>
      <point x="346" y="989"/>
      <point x="173" y="773"/>
      <point x="173" y="572" type="qcurve" smooth="yes"/>
    </contour>
  </outline>
</glyph>
<glyph name="f" format="2">
  <advance width="530"/>
  <unicode hex="0066"/>
  <anchor x="265.0" y="0" name="bottom"/>
  <anchor x="265.0" y="1556" name="top"/>
  <outline>
    <contour>
      <point x="210" y="0" type="line"/>
      <point x="210" y="1177" type="line" smooth="yes"/>
      <point x="210" y="1362"/>
      <point x="362" y="1556"/>
      <point x="495" y="1556" type="qcurve" smooth="yes"/>
      <point x="523" y="1556"/>
      <point x="586" y="1547"/>
      <point x="611" y="1540" type="qcurve"/>
      <point x="601" y="1463" type="line"/>
      <point x="582" y="1468"/>
      <point x="526" y="1477"/>
      <point x="498" y="1477" type="qcurve" smooth="yes"/>
      <point x="402" y="1477"/>
      <point x="296" y="1327"/>
      <point x="296" y="1177" type="qcurve" smooth="yes"/>
      <point x="296" y="1020" type="line"/>
      <point x="296" y="1006" type="line"/>
      <point x="296" y="0" type="line"/>
    </contour>
    <contour>
      <point x="25" y="972" type="line"/>
      <point x="25" y="1052" type="line"/>
      <point x="241" y="1052" type="line"/>
      <point x="263" y="1052" type="line"/>
      <point x="540" y="1052" type="line"/>
      <point x="540" y="972" type="line"/>
    </contour>
  </outline>
</glyph>
<glyph name="g" format="2">
	<unicode hex="0067"/>
	<advance width="1007"/>
	<outline>
		<contour>
			<point x="120" y="-320" type="qcurve"/>
			<point x="159" y="-246" type="line"/>
			<point x="204" y="-291"/>
			<point x="368" y="-353"/>
			<point x="462" y="-353" type="qcurve" smooth="yes"/>
			<point x="607" y="-353"/>
			<point x="771" y="-155"/>
			<point x="773" y="23" type="qcurve" smooth="yes"/>
			<point x="773" y="124" type="line"/>
			<point x="717" y="55"/>
			<point x="546" y="-20"/>
			<point x="441" y="-20" type="qcurve" smooth="yes"/>
			<point x="279" y="-20"/>
			<point x="85" y="255"/>
			<point x="85" y="510" type="qcurve" smooth="yes"/>
			<point x="85" y="542" type="line" smooth="yes"/>
			<point x="85" y="773"/>
			<point x="270" y="1072"/>
			<point x="449" y="1072" type="qcurve" smooth="yes"/>
			<point x="560" y="1072"/>
			<point x="733" y="980"/>
			<point x="778" y="915" type="qcurve"/>
			<point x="776" y="915" type="line"/>
			<point x="779" y="1052" type="line"/>
			<point x="859" y="1052" type="line"/>
			<point x="859" y="23" type="line" smooth="yes"/>
			<point x="859" y="-199"/>
			<point x="643" y="-436"/>
			<point x="467" y="-436" type="qcurve" smooth="yes"/>
			<point x="359" y="-436"/>
			<point x="183" y="-372"/>
		</contour>
		<contour>
			<point x="173" y="476" type="line" smooth="yes"/>
			<point x="173" y="296"/>
			<point x="324" y="63"/>
			<point x="471" y="63" type="qcurve" smooth="yes"/>
			<point x="585" y="63"/>
			<point x="740" y="154"/>
			<point x="773" y="239" type="qcurve"/>
			<point x="773" y="813" type="line"/>
			<point x="743" y="872"/>
			<point x="594" y="989"/>
			<point x="476" y="989" type="qcurve" smooth="yes"/>
			<point x="345" y="989"/>
			<point x="173" y="771"/>
			<point x="173" y="568" type="qcurve" smooth="yes"/>
		</contour>
	</outline>
	<anchor name="bottom" x="508.5" y="-416"/>
	<anchor name="top" x="508.5" y="1052"/>
</glyph>
<glyph name="h" format="2">
  <advance width="983"/>
  <unicode hex="0068"/>
  <anchor x="491.5" y="0" name="bottom"/>
  <anchor x="334" y="1302.0" name="center"/>
  <anchor x="193" y="1536" name="top"/>
  <outline>
    <contour>
      <point x="148" y="0" type="line"/>
      <point x="148" y="1536" type="line"/>
      <point x="234" y="1536" type="line"/>
      <point x="234" y="882" type="line"/>
      <point x="287" y="974"/>
      <point x="437" y="1072"/>
      <point x="556" y="1072" type="qcurve" smooth="yes"/>
      <point x="693" y="1072"/>
      <point x="845" y="907"/>
      <point x="845" y="738" type="qcurve" smooth="yes"/>
      <point x="845" y="0" type="line"/>
      <point x="759" y="0" type="line"/>
      <point x="759" y="740" type="line" smooth="yes"/>
      <point x="759" y="864"/>
      <point x="648" y="989"/>
      <point x="538" y="989" type="qcurve" smooth="yes"/>
      <point x="429" y="989"/>
      <point x="274" y="863"/>
      <point x="234" y="778" type="qcurve"/>
      <point x="234" y="0" type="line"/>
    </contour>
  </outline>
</glyph>
<glyph name="i" format="2">
  <advance width="400"/>
  <unicode hex="0069"/>
  <outline>
    <contour>
      <point x="157" y="0" type="line"/>
      <point x="157" y="1052" type="line"/>
      <point x="243.4964705882" y="1052" type="line"/>
      <point x="243.4964705882" y="0" type="line"/>
    </contour>
    <contour>
      <point x="133" y="1399" type="qcurve" smooth="yes"/>
      <point x="133" y="1429"/>
      <point x="169" y="1470"/>
      <point x="200" y="1470" type="qcurve" smooth="yes"/>
      <point x="231" y="1470"/>
      <point x="267" y="1429"/>
      <point x="267" y="1399" type="qcurve" smooth="yes"/>
      <point x="267" y="1368"/>
      <point x="231" y="1327"/>
      <point x="201" y="1327" type="qcurve" smooth="yes"/>
      <point x="169" y="1327"/>
      <point x="133" y="1368"/>
    </contour>
  </outline>
</glyph>
<glyph name="j" format="2">
  <advance width="400"/>
  <unicode hex="006A"/>
  <anchor x="200.0" y="-436" name="bottom"/>
  <anchor x="200.0" y="1052" name="top"/>
  <outline>
    <contour>
      <point x="-113" y="-414" type="qcurve"/>
      <point x="-113" y="-334" type="line"/>
      <point x="-94" y="-340"/>
      <point x="-32" y="-353"/>
      <point x="-6" y="-353" type="qcurve" smooth="yes"/>
      <point x="72" y="-353"/>
      <point x="157" y="-248"/>
      <point x="157" y="-127" type="qcurve" smooth="yes"/>
      <point x="157" y="1052" type="line"/>
      <point x="243" y="1052" type="line"/>
      <point x="243" y="-90" type="line" smooth="yes"/>
      <point x="243" y="-270"/>
      <point x="119" y="-436"/>
      <point x="-1" y="-436" type="qcurve" smooth="yes"/>
      <point x="-32" y="-436"/>
      <point x="-93" y="-422"/>
    </contour>
    <contour>
      <point x="133" y="1399" type="qcurve" smooth="yes"/>
      <point x="133" y="1429"/>
      <point x="169" y="1470"/>
      <point x="200" y="1470" type="qcurve" smooth="yes"/>
      <point x="231" y="1470"/>
      <point x="267" y="1429"/>
      <point x="267" y="1399" type="qcurve" smooth="yes"/>
      <point x="267" y="1368"/>
      <point x="231" y="1327"/>
      <point x="201" y="1327" type="qcurve" smooth="yes"/>
      <point x="169" y="1327"/>
      <point x="133" y="1368"/>
    </contour>
  </outline>
</glyph>
<glyph name="k" format="2">
	<unicode hex="006B"/>
	<advance width="899"/>
	<outline>
		<contour>
			<point x="148" y="0" type="line"/>
			<point x="148" y="1536" type="line"/>
			<point x="234" y="1536" type="line"/>
			<point x="234" y="449" type="line"/>
			<point x="720" y="1052" type="line"/>
			<point x="845" y="1052" type="line"/>
			<point x="234" y="341" type="line"/>
			<point x="234" y="0" type="line"/>
		</contour>
		<contour>
			<point x="786" y="0" type="line"/>
			<point x="446" y="643" type="line"/>
			<point x="509" y="710" type="line"/>
			<point x="891" y="0" type="line"/>
		</contour>
	</outline>
	<anchor name="bottom" x="497" y="0"/>
	<anchor name="top" x="450" y="1536"/>
</glyph>
<glyph name="l" format="2">
	<unicode hex="006C"/>
	<advance width="398"/>
	<outline>
		<contour>
			<point x="156" y="0" type="line"/>
			<point x="156" y="1536" type="line"/>
			<point x="242" y="1536" type="line"/>
			<point x="242" y="0" type="line"/>
		</contour>
	</outline>
	<anchor name="bottom" x="199" y="0"/>
	<anchor name="center" x="199" y="728"/>
	<anchor name="top" x="199" y="1536"/>
	<anchor name="topright" x="202" y="1052"/>
</glyph>
<glyph name="m" format="2">
  <advance width="1492"/>
  <unicode hex="006D"/>
  <anchor x="776.0" y="0" name="bottom"/>
  <anchor x="776.0" y="1052" name="top"/>
  <outline>
    <contour>
      <point x="148" y="0" type="line"/>
      <point x="148" y="1052" type="line"/>
      <point x="229" y="1052" type="line"/>
      <point x="231" y="902" type="line"/>
      <point x="230" y="902" type="line"/>
      <point x="288" y="986"/>
      <point x="435" y="1072"/>
      <point x="529" y="1072" type="qcurve" smooth="yes"/>
      <point x="627" y="1072"/>
      <point x="747" y="976"/>
      <point x="773" y="887" type="qcurve"/>
      <point x="771" y="887" type="line"/>
      <point x="823" y="972"/>
      <point x="980" y="1072"/>
      <point x="1088" y="1072" type="qcurve" smooth="yes"/>
      <point x="1214" y="1072"/>
      <point x="1352" y="907"/>
      <point x="1354" y="787" type="qcurve" smooth="yes"/>
      <point x="1354" y="0" type="line"/>
      <point x="1268" y="0" type="line"/>
      <point x="1268" y="758" type="line" smooth="yes"/>
      <point x="1268" y="880"/>
      <point x="1163" y="989"/>
      <point x="1058" y="989" type="qcurve" smooth="yes"/>
      <point x="955" y="989"/>
      <point x="829" y="883"/>
      <point x="794" y="818" type="qcurve"/>
      <point x="794" y="0" type="line"/>
      <point x="708" y="0" type="line"/>
      <point x="708" y="760" type="line" smooth="yes"/>
      <point x="708" y="880"/>
      <point x="595" y="989"/>
      <point x="501" y="989" type="qcurve" smooth="yes"/>
      <point x="409" y="989"/>
      <point x="273" y="883"/>
      <point x="234" y="808" type="qcurve"/>
      <point x="234" y="0" type="line"/>
    </contour>
  </outline>
</glyph>
<glyph name="n" format="2">
  <advance width="983"/>
  <unicode hex="006E"/>
  <anchor x="491.5" y="0" name="bottom"/>
  <anchor x="491.5" y="1052" name="top"/>
  <outline>
    <contour>
      <point x="148" y="0" type="line"/>
      <point x="148" y="1052" type="line"/>
      <point x="229" y="1052" type="line"/>
      <point x="231" y="902" type="line"/>
      <point x="230" y="902" type="line"/>
      <point x="288" y="987"/>
      <point x="450.3818378427" y="1072"/>
      <point x="553.98" y="1072" type="qcurve" smooth="yes"/>
      <point x="689.0470588235" y="1072"/>
      <point x="844.7992156863" y="906.7922466697"/>
      <point x="844.7992156863" y="712.2549019608" type="qcurve" smooth="yes"/>
      <point x="844.7992156863" y="0" type="line"/>
      <point x="758" y="0" type="line"/>
      <point x="758" y="724" type="line" smooth="yes"/>
      <point x="758" y="863"/>
      <point x="640" y="989"/>
      <point x="520" y="989" type="qcurve" smooth="yes"/>
      <point x="416" y="989"/>
      <point x="272" y="877"/>
      <point x="234" y="808" type="qcurve"/>
      <point x="234" y="0" type="line"/>
    </contour>
  </outline>
</glyph>
<glyph name="o" format="2">
	<unicode hex="006F"/>
	<advance width="1009"/>
	<outline>
		<contour>
			<point x="85" y="510" type="qcurve" smooth="yes"/>
			<point x="85" y="542" type="line" smooth="yes"/>
			<point x="85" y="794"/>
			<point x="313" y="1082"/>
			<point x="504" y="1082" type="qcurve" smooth="yes"/>
			<point x="695" y="1082"/>
			<point x="924" y="800"/>
			<point x="924" y="542" type="qcurve" smooth="yes"/>
			<point x="924" y="510" type="line" smooth="yes"/>
			<point x="924" y="252"/>
			<point x="695" y="-30"/>
			<point x="504" y="-30" type="qcurve" smooth="yes"/>
			<point x="313" y="-30"/>
			<point x="85" y="252"/>
		</contour>
		<contour>
			<point x="173" y="572" type="qcurve" smooth="yes"/>
			<point x="173" y="480" type="line" smooth="yes"/>
			<point x="173" y="281"/>
			<point x="341" y="53"/>
			<point x="504" y="53" type="qcurve" smooth="yes"/>
			<point x="667" y="53"/>
			<point x="836" y="281"/>
			<point x="836" y="480" type="qcurve" smooth="yes"/>
			<point x="836" y="572" type="line" smooth="yes"/>
			<point x="836" y="776"/>
			<point x="666" y="999"/>
			<point x="504" y="999" type="qcurve" smooth="yes"/>
			<point x="342" y="999"/>
			<point x="173" y="771"/>
		</contour>
	</outline>
	<anchor name="bottom" x="504.5" y="0"/>
	<anchor name="center" x="504.5" y="728"/>
	<anchor name="ogonek" x="643" y="0"/>
	<anchor name="top" x="504.5" y="1052"/>
	<anchor name="topright" x="689" y="1052"/>
</glyph>
<glyph name="q" format="2">
  <advance width="1017"/>
  <unicode hex="0071"/>
  <anchor x="508.5" y="0" name="bottom"/>
  <anchor x="508.5" y="1052" name="top"/>
  <outline>
    <contour>
      <point x="95" y="510" type="qcurve" smooth="yes"/>
      <point x="95" y="542" type="line" smooth="yes"/>
      <point x="95" y="772"/>
      <point x="288" y="1072"/>
      <point x="464" y="1072" type="qcurve" smooth="yes"/>
      <point x="576" y="1072"/>
      <point x="741" y="980"/>
      <point x="785" y="915" type="qcurve"/>
      <point x="785" y="915" type="line"/>
      <point x="787" y="1052" type="line"/>
      <point x="869" y="1052" type="line"/>
      <point x="869" y="-416" type="line"/>
      <point x="783" y="-416" type="line"/>
      <point x="783" y="124" type="line"/>
      <point x="781" y="124" type="line"/>
      <point x="730" y="60"/>
      <point x="576" y="-20"/>
      <point x="464" y="-20" type="qcurve" smooth="yes"/>
      <point x="288" y="-20"/>
      <point x="95" y="280"/>
    </contour>
    <contour>
      <point x="183" y="480" type="line" smooth="yes"/>
      <point x="183" y="283"/>
      <point x="332" y="63"/>
      <point x="493" y="63" type="qcurve" smooth="yes"/>
      <point x="602" y="63"/>
      <point x="749" y="169"/>
      <point x="783" y="239" type="qcurve"/>
      <point x="783" y="823" type="line"/>
      <point x="753" y="884"/>
      <point x="614" y="989"/>
      <point x="503" y="989" type="qcurve" smooth="yes"/>
      <point x="342" y="989"/>
      <point x="183" y="780"/>
      <point x="183" y="572" type="qcurve" smooth="yes"/>
    </contour>
  </outline>
</glyph>
<glyph name="r" format="2">
  <advance width="627"/>
  <unicode hex="0072"/>
  <anchor x="313.5" y="0" name="bottom"/>
  <anchor x="371" y="1052" name="top"/>
  <outline>
    <contour>
      <point x="148" y="0" type="line"/>
      <point x="148" y="1052" type="line"/>
      <point x="229" y="1052" type="line"/>
      <point x="231" y="917" type="line"/>
      <point x="230" y="917" type="line"/>
      <point x="275" y="983"/>
      <point x="416" y="1082"/>
      <point x="512" y="1082" type="qcurve" smooth="yes"/>
      <point x="536" y="1082"/>
      <point x="586" y="1072"/>
      <point x="597" y="1068" type="qcurve"/>
      <point x="597" y="982" type="line"/>
      <point x="575" y="986"/>
      <point x="530" y="993"/>
      <point x="503" y="993" type="qcurve" smooth="yes"/>
      <point x="412" y="993"/>
      <point x="272" y="886"/>
      <point x="234" y="808" type="qcurve"/>
      <point x="234" y="0" type="line"/>
    </contour>
  </outline>
</glyph>
<glyph name="s" format="2">
  <advance width="856"/>
  <unicode hex="0073"/>
  <anchor x="428.0" y="0" name="bottom"/>
  <anchor x="449.0" y="1052" name="top"/>
  <outline>
    <contour>
      <point x="80" y="311" type="line"/>
      <point x="166" y="311" type="line"/>
      <point x="166" y="306" type="line" smooth="yes"/>
      <point x="166" y="184"/>
      <point x="304" y="53"/>
      <point x="432" y="53" type="qcurve" smooth="yes"/>
      <point x="555" y="53"/>
      <point x="688" y="160"/>
      <point x="688" y="260" type="qcurve" smooth="yes"/>
      <point x="688" y="355"/>
      <point x="570" y="462"/>
      <point x="416" y="506" type="qcurve" smooth="yes"/>
      <point x="264" y="549"/>
      <point x="107" y="697"/>
      <point x="107" y="804" type="qcurve" smooth="yes"/>
      <point x="107" y="938"/>
      <point x="282" y="1082"/>
      <point x="438" y="1082" type="qcurve" smooth="yes"/>
      <point x="593" y="1082"/>
      <point x="759.0" y="912.0"/>
      <point x="759" y="753" type="qcurve" smooth="yes"/>
      <point x="759" y="746" type="line"/>
      <point x="673" y="746" type="line"/>
      <point x="673" y="751" type="line" smooth="yes"/>
      <point x="673" y="870"/>
      <point x="551" y="999"/>
      <point x="438" y="999" type="qcurve" smooth="yes"/>
      <point x="325" y="999"/>
      <point x="195" y="905"/>
      <point x="195" y="818" type="qcurve" smooth="yes"/>
      <point x="195" y="733"/>
      <point x="316" y="628"/>
      <point x="468" y="582" type="qcurve" smooth="yes"/>
      <point x="622" y="535"/>
      <point x="776" y="401"/>
      <point x="776" y="276" type="qcurve" smooth="yes"/>
      <point x="776" y="129"/>
      <point x="598" y="-30"/>
      <point x="432" y="-30" type="qcurve" smooth="yes"/>
      <point x="262" y="-30"/>
      <point x="80" y="144"/>
      <point x="80" y="306" type="qcurve" smooth="yes"/>
    </contour>
  </outline>
</glyph>
<glyph name="t" format="2">
  <advance width="586"/>
  <unicode hex="0074"/>
  <anchor x="357.0" y="0" name="bottom"/>
  <anchor x="272.0" y="644.0" name="center"/>
  <anchor x="247.0" y="1312" name="top"/>
  <anchor x="496" y="1052" name="topright"/>
  <outline>
    <contour>
      <point x="0" y="972" type="line"/>
      <point x="0" y="1052" type="line"/>
      <point x="536" y="1052" type="line"/>
      <point x="536" y="972" type="line"/>
    </contour>
    <contour>
      <point x="200" y="263" type="qcurve" smooth="yes"/>
      <point x="200" y="1005" type="line"/>
      <point x="200" y="1021" type="line"/>
      <point x="200" y="1312" type="line"/>
      <point x="286" y="1312" type="line"/>
      <point x="286" y="256" type="line" smooth="yes"/>
      <point x="286" y="140"/>
      <point x="350" y="53"/>
      <point x="420" y="53" type="qcurve" smooth="yes"/>
      <point x="446" y="53"/>
      <point x="491" y="61"/>
      <point x="514" y="69" type="qcurve"/>
      <point x="514" y="-7" type="line"/>
      <point x="495" y="-16"/>
      <point x="435" y="-30"/>
      <point x="398" y="-30" type="qcurve" smooth="yes"/>
      <point x="307" y="-30"/>
      <point x="200" y="111"/>
    </contour>
  </outline>
</glyph>
<glyph name="u" format="2">
  <advance width="983"/>
  <unicode hex="0075"/>
  <anchor x="491.5" y="0" name="bottom"/>
  <anchor x="795" y="0" name="ogonek"/>
  <anchor x="491.5" y="1052" name="top"/>
  <anchor x="795" y="1052" name="topright"/>
  <outline>
    <contour>
      <point x="138" y="340" type="qcurve" smooth="yes"/>
      <point x="138" y="1052" type="line"/>
      <point x="224" y="1052" type="line"/>
      <point x="224" y="338" type="line" smooth="yes"/>
      <point x="224" y="191"/>
      <point x="341" y="63"/>
      <point x="461" y="63" type="qcurve" smooth="yes"/>
      <point x="564" y="63"/>
      <point x="699" y="155"/>
      <point x="749" y="234" type="qcurve"/>
      <point x="749" y="1052" type="line"/>
      <point x="835" y="1052" type="line"/>
      <point x="835" y="0" type="line"/>
      <point x="755" y="0" type="line"/>
      <point x="753" y="130" type="line"/>
      <point x="752" y="130" type="line"/>
      <point x="697" y="58"/>
      <point x="540" y="-20"/>
      <point x="419" y="-20" type="qcurve" smooth="yes"/>
      <point x="295" y="-20"/>
      <point x="138" y="145"/>
    </contour>
  </outline>
</glyph>
<glyph name="v" format="2">
	<unicode hex="0076"/>
	<advance width="816"/>
	<outline>
		<contour>
			<point x="10" y="1052" type="line"/>
			<point x="102" y="1052" type="line"/>
			<point x="356" y="248" type="line" smooth="yes"/>
			<point x="369" y="208"/>
			<point x="391" y="120"/>
			<point x="400" y="68" type="qcurve"/>
			<point x="417" y="68" type="line"/>
			<point x="426" y="120"/>
			<point x="448" y="207"/>
			<point x="461" y="248" type="qcurve" smooth="yes"/>
			<point x="715" y="1052" type="line"/>
			<point x="806" y="1052" type="line"/>
			<point x="458" y="0" type="line"/>
			<point x="358" y="0" type="line"/>
		</contour>
	</outline>
	<anchor name="bottom" x="443" y="0"/>
	<anchor name="top" x="443" y="1052"/>
</glyph>
<glyph name="w" format="2">
  <advance width="1373"/>
  <unicode hex="0077"/>
  <outline>
    <contour>
      <point x="45" y="1052" type="line"/>
      <point x="134" y="1052" type="line"/>
      <point x="323" y="282" type="line" smooth="yes"/>
      <point x="333" y="242"/>
      <point x="357" y="131"/>
      <point x="364" y="91" type="qcurve"/>
      <point x="371" y="91" type="line"/>
      <point x="379" y="131"/>
      <point x="409" y="242"/>
      <point x="421" y="282" type="qcurve" smooth="yes"/>
      <point x="644" y="1052" type="line"/>
      <point x="723" y="1052" type="line"/>
      <point x="949" y="282" type="line" smooth="yes"/>
      <point x="961" y="242"/>
      <point x="994" y="131"/>
      <point x="1001" y="91" type="qcurve"/>
      <point x="1007" y="91" type="line"/>
      <point x="1017" y="131"/>
      <point x="1040" y="242"/>
      <point x="1050" y="282" type="qcurve" smooth="yes"/>
      <point x="1235" y="1052" type="line"/>
      <point x="1328" y="1052" type="line"/>
      <point x="1070" y="0" type="line"/>
      <point x="948" y="0" type="line"/>
      <point x="727" y="766" type="line" smooth="yes"/>
      <point x="715" y="806"/>
      <point x="696" y="876"/>
      <point x="688" y="916" type="qcurve"/>
      <point x="680" y="916" type="line"/>
      <point x="671" y="876"/>
      <point x="654" y="806"/>
      <point x="641" y="766" type="qcurve" smooth="yes"/>
      <point x="426" y="0" type="line"/>
      <point x="304" y="0" type="line"/>
    </contour>
  </outline>
</glyph>
<glyph name="x" format="2">
	<unicode hex="0078"/>
	<advance width="768"/>
	<outline>
		<contour>
			<point x="20" y="0" type="line"/>
			<point x="358" y="583" type="line"/>
			<point x="370" y="587" type="line"/>
			<point x="639" y="1052" type="line"/>
			<point x="737" y="1052" type="line"/>
			<point x="418" y="503" type="line"/>
			<point x="404" y="496" type="line"/>
			<point x="117" y="0" type="line"/>
		</contour>
		<contour>
			<point x="41" y="1052" type="line"/>
			<point x="139" y="1052" type="line"/>
			<point x="411" y="582" type="line"/>
			<point x="416" y="573" type="line"/>
			<point x="748" y="0" type="line"/>
			<point x="650" y="0" type="line"/>
			<point x="362" y="498" type="line"/>
			<point x="359" y="503" type="line"/>
		</contour>
	</outline>
	<anchor name="bottom" x="449" y="0"/>
	<anchor name="top" x="449" y="1052"/>
</glyph>
<glyph name="y" format="2">
  <advance width="808"/>
  <unicode hex="0079"/>
  <outline>
    <contour>
      <point x="47" y="-422" type="qcurve"/>
      <point x="47" y="-339" type="line"/>
      <point x="65" y="-346"/>
      <point x="97" y="-351"/>
      <point x="124" y="-351" type="qcurve" smooth="yes"/>
      <point x="184" y="-351"/>
      <point x="283" y="-205"/>
      <point x="346" y="6" type="qcurve"/>
      <point x="346" y="6" type="line"/>
      <point x="10" y="1052" type="line"/>
      <point x="103" y="1052" type="line"/>
      <point x="349" y="249" type="line" smooth="yes"/>
      <point x="358" y="219"/>
      <point x="383" y="118"/>
      <point x="392" y="68" type="qcurve"/>
      <point x="409" y="68" type="line"/>
      <point x="418" y="118"/>
      <point x="444" y="221"/>
      <point x="453" y="250" type="qcurve" smooth="yes"/>
      <point x="707" y="1052" type="line"/>
      <point x="798" y="1052" type="line"/>
      <point x="447" y="-2" type="line" smooth="yes"/>
      <point x="366" y="-246"/>
      <point x="227" y="-435"/>
      <point x="136" y="-434" type="qcurve" smooth="yes"/>
      <point x="100" y="-434"/>
      <point x="61" y="-428"/>
    </contour>
  </outline>
</glyph>
<glyph name="z" format="2">
	<unicode hex="007A"/>
	<advance width="864"/>
	<outline>
		<contour>
			<point x="95" y="0" type="line"/>
			<point x="95" y="87" type="line"/>
			<point x="641" y="969" type="line"/>
			<point x="104" y="969" type="line"/>
			<point x="104" y="1052" type="line"/>
			<point x="742" y="1052" type="line"/>
			<point x="742" y="965" type="line"/>
			<point x="196" y="83" type="line"/>
			<point x="774" y="83" type="line"/>
			<point x="774" y="0" type="line"/>
		</contour>
	</outline>
	<anchor name="bottom" x="432" y="0"/>
	<anchor name="top" x="432" y="1052"/>
</glyph>
<glyph name="braceleft" format="2">
	<unicode hex="007B"/>
	<advance width="601"/>
	<outline>
		<contour>
			<point x="570.911372549" y="-312" type="line"/>
			<point x="380.0501960784" y="-312"/>
			<point x="176.2533333333" y="-74.12"/>
			<point x="225.2949019608" y="123.1254901961" type="qcurve" smooth="yes"/>
			<point x="274.6274509804" y="332.6274509804" type="line" smooth="yes"/>
			<point x="304.0862745098" y="456.2674509804"/>
			<point x="174.3921568627" y="535.8274509804"/>
			<point x="63.6768627451" y="535.8274509804" type="qcurve"/>
			<point x="63.6768627451" y="612.1725490196" type="line"/>
			<point x="174.3921568627" y="612.1725490196"/>
			<point x="304.0862745098" y="691.7325490196"/>
			<point x="274.6274509804" y="815.3725490196" type="qcurve" smooth="yes"/>
			<point x="225.2949019608" y="1024.8745098039" type="line" smooth="yes"/>
			<point x="176.2533333333" y="1222.12"/>
			<point x="380.0501960784" y="1460"/>
			<point x="570.911372549" y="1460" type="qcurve"/>
			<point x="570.911372549" y="1380.5349019608" type="line"/>
			<point x="409.4564705882" y="1380.5349019608"/>
			<point x="269.388627451" y="1198.6023529412"/>
			<point x="313.271372549" y="1023.5019607843" type="qcurve" smooth="yes"/>
			<point x="363.2901960784" y="814" type="line" smooth="yes"/>
			<point x="384.4690196078" y="731.0062745098"/>
			<point x="310.622745098" y="599.968627451"/>
			<point x="213.4752941176" y="574" type="qcurve"/>
			<point x="310.622745098" y="548.031372549"/>
			<point x="383.462745098" y="417.84"/>
			<point x="363.2901960784" y="334" type="qcurve" smooth="yes"/>
			<point x="313.271372549" y="124.4980392157" type="line" smooth="yes"/>
			<point x="269.388627451" y="-50.6023529412"/>
			<point x="409.4564705882" y="-232.5349019608"/>
			<point x="570.911372549" y="-232.5349019608" type="qcurve"/>
		</contour>
	</outline>
</glyph>
<glyph name="braceright" format="2">
  <advance width="601"/>
  <unicode hex="007D"/>
  <outline>
    <contour>
      <point x="29.6925490196" y="-312" type="qcurve"/>
      <point x="29.6925490196" y="-232.5349019608" type="line"/>
      <point x="191.1474509804" y="-232.5349019608"/>
      <point x="331.9015686275" y="-50.6023529412"/>
      <point x="287.3325490196" y="124.4980392157" type="qcurve" smooth="yes"/>
      <point x="238" y="334" type="line" smooth="yes"/>
      <point x="217.8274509804" y="417.84"/>
      <point x="289.9811764706" y="548.031372549"/>
      <point x="387.8149019608" y="574" type="qcurve"/>
      <point x="289.9811764706" y="599.968627451"/>
      <point x="217.8274509804" y="730.16"/>
      <point x="238" y="814" type="qcurve" smooth="yes"/>
      <point x="287.3325490196" y="1023.5019607843" type="line" smooth="yes"/>
      <point x="331.9015686275" y="1198.6023529412"/>
      <point x="191.1474509804" y="1380.5349019608"/>
      <point x="29.6925490196" y="1380.5349019608" type="qcurve"/>
      <point x="29.6925490196" y="1460" type="line"/>
      <point x="220.5537254902" y="1460"/>
      <point x="426.0368627451" y="1222.12"/>
      <point x="375.9952941176" y="1024.8745098039" type="qcurve" smooth="yes"/>
      <point x="325.9764705882" y="815.3725490196" type="line" smooth="yes"/>
      <point x="296.5176470588" y="691.7325490196"/>
      <point x="426.2117647059" y="612.1725490196"/>
      <point x="537.6133333333" y="612.1725490196" type="qcurve"/>
      <point x="537.6133333333" y="535.8274509804" type="line"/>
      <point x="426.2117647059" y="535.8274509804"/>
      <point x="296.5176470588" y="456.2674509804"/>
      <point x="325.9764705882" y="332.6274509804" type="qcurve" smooth="yes"/>
      <point x="375.9952941176" y="123.1254901961" type="line" smooth="yes"/>
      <point x="426.0368627451" y="-74.12"/>
      <point x="220.5537254902" y="-312"/>
    </contour>
  </outline>
</glyph>
<glyph name="asciitilde" format="2">
	<unicode hex="007E"/>
	<advance width="1559"/>
	<outline>
		<contour>
			<point x="492.6862745098" y="594" type="qcurve"/>
			<point x="492.6862745098" y="692" type="line"/>
			<point x="516.431372549" y="722"/>
			<point x="579" y="749"/>
			<point x="622" y="749" type="qcurve" smooth="yes"/>
			<point x="641" y="749"/>
			<point x="717" y="735"/>
			<point x="782" y="720" type="qcurve" smooth="yes"/>
			<point x="848" y="705"/>
			<point x="922" y="692"/>
			<point x="938" y="692" type="qcurve" smooth="yes"/>
			<point x="987" y="692"/>
			<point x="1050.6470588235" y="729"/>
			<point x="1074.3921568627" y="764" type="qcurve"/>
			<point x="1074.3921568627" y="664" type="line"/>
			<point x="1051.6470588235" y="637"/>
			<point x="984" y="608"/>
			<point x="941" y="608" type="qcurve" smooth="yes"/>
			<point x="909" y="608"/>
			<point x="849" y="614"/>
			<point x="815" y="622" type="qcurve" smooth="yes"/>
			<point x="714" y="647"/>
			<point x="636" y="665"/>
			<point x="626" y="665" type="qcurve" smooth="yes"/>
			<point x="581" y="665"/>
			<point x="517.431372549" y="631"/>
		</contour>
	</outline>
</glyph>
<glyph name="exclamdown" format="2">
	<unicode hex="00A1"/>
	<advance width="505"/>
	<outline>
		<contour>
			<point x="319" y="1083" type="qcurve" smooth="yes"/>
			<point x="319" y="1047"/>
			<point x="284" y="996"/>
			<point x="252" y="996" type="qcurve" smooth="yes"/>
			<point x="220" y="996"/>
			<point x="186" y="1047"/>
			<point x="186" y="1083" type="qcurve" smooth="yes"/>
			<point x="186" y="1119"/>
			<point x="220" y="1170"/>
			<point x="252" y="1170" type="qcurve" smooth="yes"/>
			<point x="284" y="1170"/>
			<point x="319" y="1119"/>
		</contour>
		<contour>
			<point x="287" y="738" type="line"/>
			<point x="293" y="-308" type="line"/>
			<point x="212" y="-308" type="line"/>
			<point x="219" y="738" type="line"/>
		</contour>
	</outline>
</glyph>
<glyph name="yen" format="2">
  <advance width="974"/>
  <unicode hex="00A5"/>
  <outline>
    <contour>
      <point x="79" y="351" type="line"/>
      <point x="79" y="430" type="line"/>
      <point x="903" y="430" type="line"/>
      <point x="903" y="351" type="line"/>
    </contour>
    <contour>
      <point x="79" y="651" type="line"/>
      <point x="79" y="725" type="line"/>
      <point x="391" y="725" type="line"/>
      <point x="444" y="669" type="line"/>
      <point x="553" y="669" type="line"/>
      <point x="601" y="725" type="line"/>
      <point x="903" y="725" type="line"/>
      <point x="903" y="651" type="line"/>
    </contour>
    <contour>
      <point x="453" y="0" type="line"/>
      <point x="453" y="582" type="line"/>
      <point x="21" y="1456" type="line"/>
      <point x="114" y="1456" type="line"/>
      <point x="436" y="789" type="line" smooth="yes"/>
      <point x="451" y="758"/>
      <point x="469" y="716"/>
      <point x="486" y="679" type="qcurve"/>
      <point x="506" y="679" type="line"/>
      <point x="531" y="735"/>
      <point x="542" y="758"/>
      <point x="556" y="789" type="qcurve" smooth="yes"/>
      <point x="861" y="1456" type="line"/>
      <point x="953" y="1456" type="line"/>
      <point x="537" y="582" type="line"/>
      <point x="537" y="0" type="line"/>
    </contour>
  </outline>
</glyph>
<glyph name="section" format="2">
	<unicode hex="00A7"/>
	<advance width="1256"/>
	<outline>
		<contour>
			<point x="718" y="136" type="qcurve"/>
			<point x="718" y="214" type="line"/>
			<point x="837" y="229"/>
			<point x="967" y="371"/>
			<point x="967" y="488" type="qcurve" smooth="yes"/>
			<point x="967" y="609"/>
			<point x="827" y="737"/>
			<point x="639" y="787" type="qcurve" smooth="yes"/>
			<point x="444" y="839"/>
			<point x="269" y="1008"/>
			<point x="269" y="1147" type="qcurve" smooth="yes"/>
			<point x="269" y="1291"/>
			<point x="463" y="1490"/>
			<point x="625" y="1490" type="qcurve" smooth="yes"/>
			<point x="783" y="1490"/>
			<point x="973" y="1272"/>
			<point x="973" y="1107" type="qcurve"/>
			<point x="888" y="1107" type="line"/>
			<point x="888" y="1254"/>
			<point x="739" y="1412"/>
			<point x="625" y="1412" type="qcurve" smooth="yes"/>
			<point x="508" y="1412"/>
			<point x="358" y="1260"/>
			<point x="358" y="1147" type="qcurve" smooth="yes"/>
			<point x="358" y="1040"/>
			<point x="519" y="904"/>
			<point x="696" y="860" type="qcurve" smooth="yes"/>
			<point x="902" y="806"/>
			<point x="1056" y="647"/>
			<point x="1056" y="488" type="qcurve" smooth="yes"/>
			<point x="1056" y="333"/>
			<point x="881" y="151"/>
		</contour>
		<contour>
			<point x="506" y="919" type="qcurve"/>
			<point x="506" y="838" type="line"/>
			<point x="399" y="824"/>
			<point x="284" y="681"/>
			<point x="284" y="562" type="qcurve" smooth="yes"/>
			<point x="284" y="442"/>
			<point x="425" y="313"/>
			<point x="613" y="260" type="qcurve" smooth="yes"/>
			<point x="799" y="207"/>
			<point x="966" y="22"/>
			<point x="966" y="-132" type="qcurve" smooth="yes"/>
			<point x="966" y="-302"/>
			<point x="773" y="-505"/>
			<point x="582" y="-505" type="qcurve" smooth="yes"/>
			<point x="382" y="-505"/>
			<point x="204" y="-269"/>
			<point x="204" y="-97" type="qcurve"/>
			<point x="290" y="-97" type="line"/>
			<point x="290" y="-217"/>
			<point x="417" y="-424"/>
			<point x="582" y="-424" type="qcurve" smooth="yes"/>
			<point x="740" y="-424"/>
			<point x="877" y="-254"/>
			<point x="877" y="-132" type="qcurve" smooth="yes"/>
			<point x="877" y="-13"/>
			<point x="725" y="136"/>
			<point x="558" y="183" type="qcurve" smooth="yes"/>
			<point x="350" y="242"/>
			<point x="195" y="404"/>
			<point x="195" y="562" type="qcurve" smooth="yes"/>
			<point x="195" y="719"/>
			<point x="356" y="904"/>
		</contour>
	</outline>
	<guideline x="0" y="1658" angle="0" identifier="QzZ5gIiCyn"/>
	<guideline x="0" y="578" angle="0" identifier="9Hxjf2sdFw"/>
</glyph>
<glyph name="dieresis" format="2">
  <advance width="1024"/>
  <unicode hex="00A8"/>
  <outline>
    <contour>
      <point x="258.0" y="1298.0" type="qcurve" smooth="yes"/>
      <point x="258.0" y="1330.0"/>
      <point x="298.0" y="1375.0"/>
      <point x="336.0" y="1375.0" type="qcurve" smooth="yes"/>
      <point x="375.0" y="1375.0"/>
      <point x="415.0" y="1330.0"/>
      <point x="415.0" y="1298.0" type="qcurve" smooth="yes"/>
      <point x="415.0" y="1266.0"/>
      <point x="375.0" y="1222.0"/>
      <point x="336.0" y="1222.0" type="qcurve" smooth="yes"/>
      <point x="298.0" y="1222.0"/>
      <point x="258.0" y="1266.0"/>
    </contour>
    <contour>
      <point x="609.0" y="1296.0" type="qcurve" smooth="yes"/>
      <point x="609.0" y="1328.0"/>
      <point x="649.0" y="1373.0"/>
      <point x="687.0" y="1373.0" type="qcurve" smooth="yes"/>
      <point x="725.0" y="1373.0"/>
      <point x="766.0" y="1328.0"/>
      <point x="766.0" y="1296.0" type="qcurve" smooth="yes"/>
      <point x="766.0" y="1264.0"/>
      <point x="725.0" y="1220.0"/>
      <point x="687.0" y="1220.0" type="qcurve" smooth="yes"/>
      <point x="649.0" y="1220.0"/>
      <point x="609.0" y="1264.0"/>
    </contour>
  </outline>
</glyph>
<glyph name="logicalnot" format="2">
	<unicode hex="00AC"/>
	<advance width="990"/>
	<outline>
		<contour>
			<point x="868" y="761" type="line"/>
			<point x="868" y="356" type="line"/>
			<point x="782" y="356" type="line"/>
			<point x="782" y="688" type="line"/>
			<point x="68" y="688" type="line"/>
			<point x="68" y="761" type="line"/>
		</contour>
	</outline>
</glyph>
<glyph name="registered" format="2">
  <advance width="1548"/>
  <unicode hex="00AE"/>
  <outline>
    <contour>
      <point x="45" y="687" type="qcurve" smooth="yes"/>
      <point x="45" y="1039"/>
      <point x="448" y="1509"/>
      <point x="774" y="1509" type="qcurve" smooth="yes"/>
      <point x="1099" y="1509"/>
      <point x="1503" y="1039"/>
      <point x="1503" y="687" type="qcurve" smooth="yes"/>
      <point x="1503" y="337"/>
      <point x="1099" y="-137"/>
      <point x="774" y="-137" type="qcurve" smooth="yes"/>
      <point x="448" y="-137"/>
      <point x="45" y="337"/>
    </contour>
    <contour>
      <point x="134" y="687" type="qcurve" smooth="yes"/>
      <point x="134" y="364"/>
      <point x="473" y="-53"/>
      <point x="775" y="-53" type="qcurve" smooth="yes"/>
      <point x="1076" y="-53"/>
      <point x="1414" y="364"/>
      <point x="1414" y="687" type="qcurve" smooth="yes"/>
      <point x="1414" y="1009"/>
      <point x="1076" y="1425"/>
      <point x="775" y="1425" type="qcurve" smooth="yes"/>
      <point x="473" y="1425"/>
      <point x="134" y="1009"/>
    </contour>
    <contour>
      <point x="846" y="608" type="line"/>
      <point x="603" y="608" type="line"/>
      <point x="603" y="225" type="line"/>
      <point x="516" y="225" type="line"/>
      <point x="516" y="1158" type="line"/>
      <point x="768" y="1158" type="line" smooth="yes"/>
      <point x="915" y="1158"/>
      <point x="1074" y="1018"/>
      <point x="1074" y="888" type="qcurve" smooth="yes"/>
      <point x="1074" y="786"/>
      <point x="977" y="646"/>
      <point x="905" y="629" type="qcurve"/>
      <point x="923" y="606"/>
      <point x="959" y="553"/>
      <point x="972" y="520" type="qcurve" smooth="yes"/>
      <point x="1081" y="243" type="line"/>
      <point x="1081" y="225" type="line"/>
      <point x="994" y="225" type="line"/>
    </contour>
    <contour>
      <point x="769" y="1074" type="qcurve" smooth="yes"/>
      <point x="603" y="1074" type="line"/>
      <point x="603" y="690" type="line"/>
      <point x="794" y="690" type="line" smooth="yes"/>
      <point x="910" y="690"/>
      <point x="986" y="798"/>
      <point x="986" y="881" type="qcurve" smooth="yes"/>
      <point x="986" y="974"/>
      <point x="874" y="1074"/>
    </contour>
  </outline>
</glyph>
<glyph name="macron" format="2">
  <advance width="1024"/>
  <unicode hex="00AF"/>
  <outline>
    <contour>
      <point x="756.0" y="1304.0" type="line"/>
      <point x="756.0" y="1220.0" type="line"/>
      <point x="268.0" y="1220.0" type="line"/>
      <point x="268.0" y="1304.0" type="line"/>
    </contour>
  </outline>
</glyph>
<glyph name="plusminus" format="2">
	<unicode hex="00B1"/>
	<advance width="990"/>
	<outline>
		<contour>
			<point x="67" y="635" type="line"/>
			<point x="67" y="715" type="line"/>
			<point x="923" y="715" type="line"/>
			<point x="923" y="635" type="line"/>
		</contour>
		<contour>
			<point x="452" y="223" type="line"/>
			<point x="452" y="1125" type="line"/>
			<point x="538" y="1125" type="line"/>
			<point x="538" y="223" type="line"/>
		</contour>
		<contour>
			<point x="66" y="1" type="line"/>
			<point x="66" y="83" type="line"/>
			<point x="924" y="83" type="line"/>
			<point x="924" y="1" type="line"/>
		</contour>
	</outline>
</glyph>
<glyph name="twosuperior" format="2">
	<unicode hex="00B2"/>
	<advance width="635"/>
	<outline>
		<contour>
			<point x="98" y="697" type="line"/>
			<point x="98" y="785" type="line"/>
			<point x="308" y="1025" type="line" smooth="yes"/>
			<point x="370" y="1096"/>
			<point x="454" y="1210"/>
			<point x="454" y="1275" type="qcurve" smooth="yes"/>
			<point x="454" y="1342"/>
			<point x="379" y="1414"/>
			<point x="310" y="1414" type="qcurve" smooth="yes"/>
			<point x="233" y="1414"/>
			<point x="153" y="1318"/>
			<point x="155" y="1228" type="qcurve"/>
			<point x="81" y="1228" type="line"/>
			<point x="79" y="1353"/>
			<point x="197" y="1487"/>
			<point x="308" y="1487" type="qcurve" smooth="yes"/>
			<point x="417" y="1487"/>
			<point x="536" y="1377"/>
			<point x="536" y="1275" type="qcurve" smooth="yes"/>
			<point x="536" y="1200"/>
			<point x="429" y="1042"/>
			<point x="341" y="944" type="qcurve" smooth="yes"/>
			<point x="189" y="775" type="line"/>
			<point x="555" y="775" type="line"/>
			<point x="555" y="697" type="line"/>
		</contour>
	</outline>
</glyph>
<glyph name="micro" format="2">
	<unicode hex="00B5"/>
	<advance width="1072"/>
	<outline>
		<contour>
			<point x="290" y="1052" type="line"/>
			<point x="368" y="1052" type="line"/>
			<point x="236" y="371" type="line" smooth="yes"/>
			<point x="208" y="225"/>
			<point x="262" y="63"/>
			<point x="355" y="63" type="qcurve" smooth="yes"/>
			<point x="437" y="63"/>
			<point x="601" y="175"/>
			<point x="693" y="308" type="qcurve"/>
			<point x="837" y="1052" type="line"/>
			<point x="923" y="1052" type="line"/>
			<point x="719" y="0" type="line"/>
			<point x="651" y="0" type="line"/>
			<point x="685" y="202" type="line"/>
			<point x="679" y="202" type="line"/>
			<point x="583" y="83"/>
			<point x="412" y="-20"/>
			<point x="334" y="-20" type="qcurve" smooth="yes"/>
			<point x="264" y="-20"/>
			<point x="185" y="68"/>
			<point x="191" y="136" type="qcurve"/>
			<point x="84" y="-416" type="line"/>
			<point x="6" y="-416" type="line"/>
		</contour>
	</outline>
</glyph>
<glyph name="AE" format="2">
  <advance width="1531"/>
  <unicode hex="00C6"/>
  <anchor x="904" y="1456" name="top"/>
  <outline>
    <contour>
      <point x="286" y="420" type="line"/>
      <point x="316" y="499" type="line"/>
      <point x="846" y="499" type="line"/>
      <point x="846" y="420" type="line"/>
    </contour>
    <contour>
      <point x="-10" y="0" type="line"/>
      <point x="777" y="1456" type="line"/>
      <point x="1453" y="1456" type="line"/>
      <point x="1453" y="1371" type="line"/>
      <point x="906" y="1371" type="line"/>
      <point x="906" y="793" type="line"/>
      <point x="1357" y="793" type="line"/>
      <point x="1357" y="708" type="line"/>
      <point x="906" y="708" type="line"/>
      <point x="906" y="85" type="line"/>
      <point x="1463" y="85" type="line"/>
      <point x="1463" y="0" type="line"/>
      <point x="817" y="0" type="line"/>
      <point x="817" y="1371" type="line"/>
      <point x="88" y="0" type="line"/>
    </contour>
  </outline>
</glyph>
<glyph name="multiply" format="2">
  <advance width="990"/>
  <unicode hex="00D7"/>
  <outline>
    <contour>
      <point x="220.0" y="338.0" type="line"/>
      <point x="165.0" y="393.0" type="line"/>
      <point x="780.0" y="998.0" type="line"/>
      <point x="835.0" y="943.0" type="line"/>
    </contour>
    <contour>
      <point x="796.0" y="324.0" type="line"/>
      <point x="151.0" y="959.0" type="line"/>
      <point x="204.0" y="1011.0" type="line"/>
      <point x="848.0" y="377.0" type="line"/>
    </contour>
  </outline>
</glyph>
<glyph name="Thorn" format="2">
	<unicode hex="00DE"/>
	<advance width="950"/>
	<outline>
		<contour>
			<point x="170" y="1456" type="line"/>
			<point x="258" y="1456" type="line"/>
			<point x="258" y="1166" type="line"/>
			<point x="510" y="1166" type="line" smooth="yes"/>
			<point x="696" y="1166"/>
			<point x="874" y="953"/>
			<point x="874" y="744" type="qcurve" smooth="yes"/>
			<point x="874" y="534"/>
			<point x="695" y="315"/>
			<point x="510" y="314" type="qcurve" smooth="yes"/>
			<point x="258" y="314" type="line"/>
			<point x="258" y="0" type="line"/>
			<point x="170" y="0" type="line"/>
		</contour>
		<contour>
			<point x="510" y="1081" type="qcurve" smooth="yes"/>
			<point x="259" y="1081" type="line"/>
			<point x="259" y="399" type="line"/>
			<point x="510" y="399" type="line" smooth="yes"/>
			<point x="670" y="399"/>
			<point x="785" y="606"/>
			<point x="785" y="746" type="qcurve" smooth="yes"/>
			<point x="785" y="886"/>
			<point x="670" y="1080"/>
		</contour>
	</outline>
	<guideline x="0" y="901" angle="0" identifier="i9jYwjBDP4"/>
	<guideline x="0" y="555" angle="0" identifier="T8KKW8oxop"/>
</glyph>
<glyph name="germandbls" format="2">
	<unicode hex="00DF"/>
	<advance width="1178"/>
	<outline>
		<contour>
			<point name="hr00" x="307" y="1092" type="qcurve"/>
			<point x="307" y="0" type="line"/>
			<point x="219" y="0" type="line"/>
			<point x="219" y="1092" type="line" smooth="yes"/>
			<point x="219" y="1305"/>
			<point x="405" y="1534"/>
			<point x="575" y="1534" type="qcurve" smooth="yes"/>
			<point x="718" y="1534"/>
			<point x="871" y="1369"/>
			<point x="871" y="1215" type="qcurve" smooth="yes"/>
			<point x="871" y="1155"/>
			<point x="829" y="1033"/>
			<point x="789" y="977" type="qcurve" smooth="yes"/>
			<point x="731" y="897"/>
			<point x="695" y="833"/>
			<point x="695" y="804" type="qcurve" smooth="yes"/>
			<point x="695" y="763"/>
			<point x="768" y="678"/>
			<point x="887" y="590" type="qcurve" smooth="yes"/>
			<point x="983" y="518"/>
			<point x="1062" y="385"/>
			<point x="1062" y="282" type="qcurve" smooth="yes"/>
			<point x="1062" y="136"/>
			<point x="907" y="-20"/>
			<point x="762" y="-20" type="qcurve" smooth="yes"/>
			<point x="627" y="-20"/>
			<point x="472" y="139"/>
			<point x="472" y="286" type="qcurve" smooth="yes"/>
			<point x="472" y="304" type="line"/>
			<point x="565" y="304" type="line"/>
			<point x="565" y="287" type="line" smooth="yes"/>
			<point x="565" y="179"/>
			<point x="672" y="62"/>
			<point x="764" y="62" type="qcurve" smooth="yes"/>
			<point x="865" y="62"/>
			<point x="973" y="180"/>
			<point x="973" y="290" type="qcurve" smooth="yes"/>
			<point x="973" y="349"/>
			<point x="917" y="458"/>
			<point x="831" y="522" type="qcurve" smooth="yes"/>
			<point x="693" y="625"/>
			<point x="607" y="732"/>
			<point x="607" y="799" type="qcurve" smooth="yes"/>
			<point x="607" y="843"/>
			<point x="646" y="924"/>
			<point x="708" y="1011" type="qcurve" smooth="yes"/>
			<point x="748" y="1066"/>
			<point x="782" y="1166"/>
			<point x="782" y="1210" type="qcurve" smooth="yes"/>
			<point x="782" y="1327"/>
			<point x="673" y="1452"/>
			<point x="571" y="1452" type="qcurve" smooth="yes"/>
			<point x="446" y="1452"/>
			<point x="307" y="1265"/>
		</contour>
	</outline>
</glyph>
<glyph name="eth" format="2">
	<unicode hex="00F0"/>
	<advance width="868"/>
	<outline>
		<contour>
			<point x="177" y="1511" type="qcurve"/>
			<point x="201" y="1581" type="line"/>
			<point x="510" y="1500"/>
			<point x="786" y="1016"/>
			<point x="786" y="633" type="qcurve"/>
			<point x="786" y="535" type="line"/>
			<point x="786" y="268"/>
			<point x="606" y="-20"/>
			<point x="438" y="-20" type="qcurve" smooth="yes"/>
			<point x="266" y="-20"/>
			<point x="81" y="233"/>
			<point x="81" y="468" type="qcurve" smooth="yes"/>
			<point x="81" y="714"/>
			<point x="254" y="978"/>
			<point x="414" y="978" type="qcurve" smooth="yes"/>
			<point x="557" y="978"/>
			<point x="748" y="774"/>
			<point x="748" y="616" type="qcurve"/>
			<point x="698" y="614" type="line"/>
			<point x="698" y="737"/>
			<point x="544" y="895"/>
			<point x="425" y="895" type="qcurve" smooth="yes"/>
			<point x="302" y="895"/>
			<point x="169" y="674"/>
			<point x="169" y="468" type="qcurve" smooth="yes"/>
			<point x="169" y="273"/>
			<point x="310" y="63"/>
			<point x="442" y="63" type="qcurve" smooth="yes"/>
			<point x="565" y="63"/>
			<point x="698" y="308"/>
			<point x="698" y="535" type="qcurve" smooth="yes"/>
			<point x="698" y="635" type="line" smooth="yes"/>
			<point x="698" y="987"/>
			<point x="477" y="1431"/>
		</contour>
		<contour>
			<point x="680" y="1427" type="line"/>
			<point x="258" y="1107" type="line"/>
			<point x="219" y="1170" type="line"/>
			<point x="642" y="1490" type="line"/>
		</contour>
	</outline>
</glyph>
<glyph name="divide" format="2">
	<unicode hex="00F7"/>
	<advance width="990"/>
	<outline>
		<contour>
			<point x="383" y="1017" type="qcurve" smooth="yes"/>
			<point x="383" y="1049"/>
			<point x="423" y="1094"/>
			<point x="461" y="1094" type="qcurve" smooth="yes"/>
			<point x="500" y="1094"/>
			<point x="540" y="1049"/>
			<point x="540" y="1017" type="qcurve" smooth="yes"/>
			<point x="540" y="985"/>
			<point x="500" y="941"/>
			<point x="461" y="941" type="qcurve" smooth="yes"/>
			<point x="423" y="941"/>
			<point x="383" y="985"/>
		</contour>
		<contour>
			<point x="383" y="330" type="qcurve" smooth="yes"/>
			<point x="383" y="362"/>
			<point x="423" y="407"/>
			<point x="461" y="407" type="qcurve" smooth="yes"/>
			<point x="500" y="407"/>
			<point x="540" y="362"/>
			<point x="540" y="330" type="qcurve" smooth="yes"/>
			<point x="540" y="298"/>
			<point x="500" y="254"/>
			<point x="461" y="254" type="qcurve" smooth="yes"/>
			<point x="423" y="254"/>
			<point x="383" y="298"/>
		</contour>
		<contour>
			<point x="57" y="630" type="line"/>
			<point x="57" y="727" type="line"/>
			<point x="866" y="727" type="line"/>
			<point x="866" y="630" type="line"/>
		</contour>
	</outline>
</glyph>
<glyph name="thorn" format="2">
  <advance width="1005"/>
  <unicode hex="00FE"/>
  <outline>
    <contour>
      <point x="148" y="-416" type="line"/>
      <point x="148" y="1536" type="line"/>
      <point x="229" y="1536" type="line"/>
      <point x="231" y="915" type="line"/>
      <point x="277" y="980"/>
      <point x="437" y="1072"/>
      <point x="548" y="1072" type="qcurve" smooth="yes"/>
      <point x="727" y="1072"/>
      <point x="920" y="773"/>
      <point x="920" y="542" type="qcurve" smooth="yes"/>
      <point x="920" y="510" type="line" smooth="yes"/>
      <point x="920" y="255"/>
      <point x="710" y="-20"/>
      <point x="548" y="-20" type="qcurve" smooth="yes"/>
      <point x="437" y="-20"/>
      <point x="287" y="53"/>
      <point x="234" y="117" type="qcurve"/>
      <point x="234" y="118" type="line"/>
      <point x="234" y="-416" type="line"/>
    </contour>
    <contour>
      <point x="234" y="227" type="line"/>
      <point x="264" y="174"/>
      <point x="400" y="63"/>
      <point x="518" y="63" type="qcurve" smooth="yes"/>
      <point x="669" y="63"/>
      <point x="832" y="298"/>
      <point x="832" y="480" type="qcurve" smooth="yes"/>
      <point x="832" y="572" type="line" smooth="yes"/>
      <point x="832" y="773"/>
      <point x="658" y="989"/>
      <point x="523" y="989" type="qcurve" smooth="yes"/>
      <point x="412" y="989"/>
      <point x="267" y="884"/>
      <point x="234" y="823" type="qcurve"/>
    </contour>
  </outline>
</glyph>
<glyph name="idotless" format="2">
	<unicode hex="0131"/>
	<advance width="402"/>
	<outline>
		<contour>
			<point x="157" y="0" type="line"/>
			<point x="157" y="1052" type="line"/>
			<point x="245.32" y="1052" type="line"/>
			<point x="245.32" y="0" type="line"/>
		</contour>
	</outline>
	<anchor name="top" x="201" y="1052"/>
</glyph>
<glyph name="oe" format="2">
	<unicode hex="0153"/>
	<advance width="1405"/>
	<outline>
		<contour>
			<point x="171" y="572" type="qcurve" smooth="yes"/>
			<point x="171" y="480" type="line" smooth="yes"/>
			<point x="171" y="274"/>
			<point x="308" y="53"/>
			<point x="435" y="53" type="qcurve" smooth="yes"/>
			<point x="565" y="53"/>
			<point x="705" y="274"/>
			<point x="705" y="480" type="qcurve" smooth="yes"/>
			<point x="705" y="572" type="line" smooth="yes"/>
			<point x="705" y="778"/>
			<point x="565" y="999"/>
			<point x="435" y="999" type="qcurve" smooth="yes"/>
			<point x="308" y="999"/>
			<point x="171" y="778"/>
		</contour>
		<contour>
			<point x="748" y="808" type="qcurve"/>
			<point x="786" y="940"/>
			<point x="934" y="1082"/>
			<point x="1034" y="1082" type="qcurve" smooth="yes"/>
			<point x="1186" y="1082"/>
			<point x="1349" y="812"/>
			<point x="1349" y="560" type="qcurve" smooth="yes"/>
			<point x="1349" y="518" type="line"/>
			<point x="751" y="518" type="line"/>
			<point x="751" y="597" type="line"/>
			<point x="1265" y="597" type="line"/>
			<point x="1265" y="602" type="line"/>
			<point x="1265" y="787"/>
			<point x="1145" y="999"/>
			<point x="1033" y="999" type="qcurve" smooth="yes"/>
			<point x="917" y="999"/>
			<point x="793" y="778"/>
			<point x="793" y="572" type="qcurve" smooth="yes"/>
			<point x="793" y="480" type="line" smooth="yes"/>
			<point x="793" y="274"/>
			<point x="937" y="53"/>
			<point x="1070" y="53" type="qcurve" smooth="yes"/>
			<point x="1149" y="53"/>
			<point x="1248" y="120"/>
			<point x="1294" y="194" type="qcurve"/>
			<point x="1352" y="149" type="line"/>
			<point x="1311" y="65"/>
			<point x="1169" y="-30"/>
			<point x="1070" y="-30" type="qcurve" smooth="yes"/>
			<point x="953" y="-30"/>
			<point x="786" y="111"/>
			<point x="748" y="243" type="qcurve"/>
			<point x="709" y="111"/>
			<point x="547" y="-30"/>
			<point x="435" y="-30" type="qcurve" smooth="yes"/>
			<point x="266" y="-30"/>
			<point x="85" y="250"/>
			<point x="85" y="510" type="qcurve" smooth="yes"/>
			<point x="85" y="542" type="line" smooth="yes"/>
			<point x="85" y="802"/>
			<point x="266" y="1082"/>
			<point x="435" y="1082" type="qcurve" smooth="yes"/>
			<point x="547" y="1082"/>
			<point x="709" y="940"/>
		</contour>
	</outline>
</glyph>
<glyph name="florin" format="2">
  <advance width="623"/>
  <unicode hex="0192"/>
  <outline>
    <contour>
      <point x="466" y="878" type="line"/>
      <point x="466" y="807" type="line"/>
      <point x="260" y="807" type="line"/>
      <point x="260" y="111" type="line" smooth="yes"/>
      <point x="260" y="-183"/>
      <point x="103" y="-437"/>
      <point x="-56" y="-437" type="qcurve" smooth="yes"/>
      <point x="-87" y="-437"/>
      <point x="-140" y="-430"/>
      <point x="-168" y="-420" type="qcurve"/>
      <point x="-154" y="-341" type="line"/>
      <point x="-139" y="-347"/>
      <point x="-70" y="-354"/>
      <point x="-56" y="-354" type="qcurve" smooth="yes"/>
      <point x="80" y="-354"/>
      <point x="167" y="-109"/>
      <point x="171" y="111" type="qcurve" smooth="yes"/>
      <point x="171" y="807" type="line"/>
      <point x="25" y="807" type="line"/>
      <point x="25" y="878" type="line"/>
      <point x="171" y="878" type="line"/>
      <point x="171" y="1125" type="line" smooth="yes"/>
      <point x="171" y="1302"/>
      <point x="305" y="1487"/>
      <point x="437" y="1487" type="qcurve" smooth="yes"/>
      <point x="453" y="1487"/>
      <point x="488" y="1496"/>
      <point x="538" y="1471" type="qcurve"/>
      <point x="527" y="1392" type="line"/>
      <point x="502" y="1401"/>
      <point x="466" y="1406"/>
      <point x="444" y="1406" type="qcurve" smooth="yes"/>
      <point x="346" y="1406"/>
      <point x="256" y="1265"/>
      <point x="260" y="1125" type="qcurve" smooth="yes"/>
      <point x="260" y="878" type="line"/>
    </contour>
  </outline>
</glyph>
<glyph name="schwa" format="2">
	<unicode hex="0259"/>
	<advance width="833"/>
	<outline>
		<contour>
			<point x="748" y="542" type="qcurve" smooth="yes"/>
			<point x="748" y="510" type="line" smooth="yes"/>
			<point x="748" y="250"/>
			<point x="562" y="-30"/>
			<point x="385" y="-30" type="qcurve" smooth="yes"/>
			<point x="225" y="-30"/>
			<point x="53" y="228"/>
			<point x="53" y="492" type="qcurve" smooth="yes"/>
			<point x="53" y="534" type="line"/>
			<point x="701" y="534" type="line"/>
			<point x="701" y="454" type="line"/>
			<point x="142" y="454" type="line"/>
			<point x="142" y="442" type="line"/>
			<point x="142" y="237"/>
			<point x="270" y="53"/>
			<point x="385" y="53" type="qcurve" smooth="yes"/>
			<point x="513" y="53"/>
			<point x="659" y="292"/>
			<point x="659" y="510" type="qcurve" smooth="yes"/>
			<point x="659" y="542" type="line" smooth="yes"/>
			<point x="659" y="759"/>
			<point x="504" y="999"/>
			<point x="354" y="999" type="qcurve" smooth="yes"/>
			<point x="294" y="999"/>
			<point x="177" y="934"/>
			<point x="121" y="859" type="qcurve"/>
			<point x="60" y="914" type="line"/>
			<point x="122" y="1003"/>
			<point x="270" y="1082"/>
			<point x="354" y="1082" type="qcurve" smooth="yes"/>
			<point x="544" y="1082"/>
			<point x="748" y="802"/>
		</contour>
	</outline>
</glyph>
<glyph name="commaaccentturned" format="2">
  <advance width="1024"/>
  <unicode hex="02BB"/>
  <outline>
    <contour>
      <point x="610.2145882353" y="1663.0" type="line"/>
      <point x="581.2145882353" y="1559.0"/>
      <point x="557.2145882353" y="1431.0"/>
      <point x="525.2145882353" y="1292.0" type="qcurve"/>
      <point x="421.2145882353" y="1290.0" type="line"/>
      <point x="545.2145882353" y="1666.0" type="line"/>
    </contour>
  </outline>
</glyph>
<glyph name="apostrophemod" format="2">
	<unicode hex="02BC"/>
	<advance width="600"/>
	<outline>
		<contour>
			<point x="232" y="1137" type="line"/>
			<point x="264" y="1168"/>
			<point x="324" y="1292"/>
			<point x="338" y="1357" type="qcurve"/>
			<point x="292" y="1357"/>
			<point x="228" y="1411"/>
			<point x="228" y="1452" type="qcurve" smooth="yes"/>
			<point x="228" y="1493"/>
			<point x="281" y="1546"/>
			<point x="321" y="1546" type="qcurve" smooth="yes"/>
			<point x="360" y="1546"/>
			<point x="422" y="1479"/>
			<point x="422" y="1426" type="qcurve" smooth="yes"/>
			<point x="422" y="1340"/>
			<point x="319" y="1157"/>
			<point x="250" y="1117" type="qcurve"/>
		</contour>
	</outline>
</glyph>
<glyph name="caron" format="2">
  <advance width="1024"/>
  <unicode hex="02C7"/>
  <outline>
    <contour>
      <point x="478.0" y="1220.0" type="line"/>
      <point x="250.0" y="1533.0" type="line"/>
      <point x="344.0" y="1533.0" type="line"/>
      <point x="514.0" y="1304.0" type="line"/>
      <point x="683.0" y="1533.0" type="line"/>
      <point x="775.0" y="1533.0" type="line"/>
      <point x="550.0" y="1220.0" type="line"/>
    </contour>
  </outline>
</glyph>
<glyph name="breve" format="2">
	<unicode hex="02D8"/>
	<advance width="1024"/>
	<outline>
		<contour>
			<point x="770" y="1523" type="qcurve"/>
			<point x="824" y="1494" type="line"/>
			<point x="790" y="1379"/>
			<point x="627" y="1220"/>
			<point x="514" y="1220" type="qcurve" smooth="yes"/>
			<point x="399" y="1220"/>
			<point x="236" y="1379"/>
			<point x="202" y="1494" type="qcurve"/>
			<point x="256" y="1523" type="line"/>
			<point x="296" y="1421"/>
			<point x="429" y="1305"/>
			<point x="513" y="1305" type="qcurve" smooth="yes"/>
			<point x="597" y="1305"/>
			<point x="730" y="1421"/>
		</contour>
	</outline>
</glyph>
<glyph name="dotaccent" format="2">
  <advance width="1024"/>
  <unicode hex="02D9"/>
  <outline>
    <contour>
      <point x="445" y="1306" type="qcurve" smooth="yes"/>
      <point x="445" y="1336"/>
      <point x="481" y="1377"/>
      <point x="512" y="1377" type="qcurve" smooth="yes"/>
      <point x="543" y="1377"/>
      <point x="579" y="1336"/>
      <point x="579" y="1306" type="qcurve" smooth="yes"/>
      <point x="579" y="1275"/>
      <point x="543" y="1234"/>
      <point x="513" y="1234" type="qcurve" smooth="yes"/>
      <point x="481" y="1234"/>
      <point x="445" y="1275"/>
    </contour>
  </outline>
</glyph>
<glyph name="tilde" format="2">
	<unicode hex="02DC"/>
	<advance width="1024"/>
	<outline>
		<contour>
			<point x="229" y="1289" type="line"/>
			<point x="258" y="1352"/>
			<point x="353" y="1416"/>
			<point x="411" y="1416" type="qcurve" smooth="yes"/>
			<point x="436" y="1416"/>
			<point x="495" y="1391"/>
			<point x="550" y="1357" type="qcurve" smooth="yes"/>
			<point x="600" y="1326"/>
			<point x="654" y="1303"/>
			<point x="677" y="1303" type="qcurve" smooth="yes"/>
			<point x="712" y="1303"/>
			<point x="775" y="1358"/>
			<point x="795" y="1394" type="qcurve"/>
			<point x="838" y="1343" type="line"/>
			<point x="814" y="1283"/>
			<point x="729" y="1220"/>
			<point x="675" y="1220" type="qcurve" smooth="yes"/>
			<point x="634" y="1220"/>
			<point x="563" y="1246"/>
			<point x="507" y="1280" type="qcurve" smooth="yes"/>
			<point x="459" y="1310"/>
			<point x="412" y="1333"/>
			<point x="397" y="1333" type="qcurve" smooth="yes"/>
			<point x="356" y="1333"/>
			<point x="285" y="1264"/>
			<point x="270" y="1234" type="qcurve"/>
		</contour>
	</outline>
</glyph>
<glyph name="hookabovecomb" format="2">
	<unicode hex="0309"/>
	<advance width="1024"/>
	<outline>
		<contour>
			<point x="469" y="1220" type="line"/>
			<point x="469" y="1259" type="line" smooth="yes"/>
			<point x="469" y="1301"/>
			<point x="516" y="1333"/>
			<point x="603" y="1347" type="qcurve" smooth="yes"/>
			<point x="664" y="1357"/>
			<point x="728" y="1420"/>
			<point x="728" y="1469" type="qcurve" smooth="yes"/>
			<point x="728" y="1527"/>
			<point x="653" y="1589"/>
			<point x="584" y="1589" type="qcurve" smooth="yes"/>
			<point x="514" y="1589"/>
			<point x="405" y="1551"/>
			<point x="385" y="1540" type="qcurve"/>
			<point x="355" y="1604" type="line"/>
			<point x="387" y="1623"/>
			<point x="507" y="1662"/>
			<point x="592" y="1662" type="qcurve" smooth="yes"/>
			<point x="700" y="1662"/>
			<point x="817" y="1557"/>
			<point x="817" y="1472" type="qcurve" smooth="yes"/>
			<point x="817" y="1388"/>
			<point x="677" y="1283"/>
			<point x="552" y="1271" type="qcurve"/>
			<point x="552" y="1220" type="line"/>
		</contour>
	</outline>
	<anchor name="_top" x="512" y="1052"/>
	<anchor name="top" x="512" y="1662"/>
</glyph>
<glyph name="dotbelowcomb" format="2">
  <advance width="1024"/>
  <unicode hex="0323"/>
  <anchor x="512" y="0" name="_bottom"/>
  <anchor x="512" y="-319" name="bottom"/>
  <outline>
    <contour>
      <point x="445" y="-247" type="qcurve" smooth="yes"/>
      <point x="445" y="-217"/>
      <point x="481" y="-176"/>
      <point x="512" y="-176" type="qcurve" smooth="yes"/>
      <point x="543" y="-176"/>
      <point x="579" y="-217"/>
      <point x="579" y="-247" type="qcurve" smooth="yes"/>
      <point x="579" y="-278"/>
      <point x="543" y="-319"/>
      <point x="513" y="-319" type="qcurve" smooth="yes"/>
      <point x="481" y="-319"/>
      <point x="445" y="-278"/>
    </contour>
  </outline>
</glyph>
<glyph name="dieresisbelowcomb" format="2">
  <advance width="1024"/>
  <unicode hex="0324"/>
  <anchor x="512" y="0" name="_bottom"/>
  <anchor x="512" y="-357" name="bottom"/>
  <outline>
    <contour>
      <point x="289" y="-285" type="qcurve" smooth="yes"/>
      <point x="289" y="-255"/>
      <point x="325" y="-214"/>
      <point x="356" y="-214" type="qcurve" smooth="yes"/>
      <point x="387" y="-214"/>
      <point x="423" y="-255"/>
      <point x="423" y="-285" type="qcurve" smooth="yes"/>
      <point x="423" y="-316"/>
      <point x="387" y="-357"/>
      <point x="357" y="-357" type="qcurve" smooth="yes"/>
      <point x="325" y="-357"/>
      <point x="289" y="-316"/>
    </contour>
    <contour>
      <point x="600" y="-285" type="qcurve" smooth="yes"/>
      <point x="600" y="-255"/>
      <point x="636" y="-214"/>
      <point x="667" y="-214" type="qcurve" smooth="yes"/>
      <point x="698" y="-214"/>
      <point x="734" y="-255"/>
      <point x="734" y="-285" type="qcurve" smooth="yes"/>
      <point x="734" y="-316"/>
      <point x="698" y="-357"/>
      <point x="668" y="-357" type="qcurve" smooth="yes"/>
      <point x="636" y="-357"/>
      <point x="600" y="-316"/>
    </contour>
  </outline>
</glyph>
<glyph name="commaaccentcomb" format="2">
  <advance width="1024"/>
  <unicode hex="0326"/>
  <anchor x="512.0" y="0" name="_bottom"/>
  <anchor x="512.0" y="-600.0" name="bottom"/>
  <outline>
    <contour>
      <point x="427" y="-597" type="line"/>
      <point x="456" y="-493"/>
      <point x="480" y="-365"/>
      <point x="512" y="-226" type="qcurve"/>
      <point x="616" y="-224" type="line"/>
      <point x="492" y="-600" type="line"/>
    </contour>
  </outline>
</glyph>
<glyph name="brevebelowcomb" format="2">
  <advance width="1024"/>
  <unicode hex="032E"/>
  <anchor x="512.0" y="0" name="_bottom"/>
  <anchor x="512.0" y="-463" name="bottom"/>
  <outline>
    <contour>
      <point x="721" y="-176" type="qcurve"/>
      <point x="777" y="-189" type="line"/>
      <point x="747" y="-304"/>
      <point x="610" y="-463"/>
      <point x="515" y="-463" type="qcurve" smooth="yes"/>
      <point x="415" y="-463"/>
      <point x="278" y="-304"/>
      <point x="250" y="-189" type="qcurve"/>
      <point x="308" y="-176" type="line"/>
      <point x="340" y="-272"/>
      <point x="447" y="-383"/>
      <point x="515" y="-383" type="qcurve" smooth="yes"/>
      <point x="581" y="-383"/>
      <point x="688" y="-271"/>
    </contour>
  </outline>
</glyph>
<glyph name="numeralsign" format="2">
	<unicode hex="0374"/>
	<advance width="530"/>
	<outline>
		<contour>
			<point x="203" y="1054" type="line"/>
			<point x="154" y="1066" type="line"/>
			<point x="240" y="1549" type="line"/>
			<point x="341" y="1535" type="line"/>
		</contour>
	</outline>
</glyph>
<glyph name="lownumeralsign" format="2">
  <advance width="530"/>
  <unicode hex="0375"/>
  <outline>
    <contour>
      <point x="307" y="304" type="line"/>
      <point x="356" y="292" type="line"/>
      <point x="270" y="-191" type="line"/>
      <point x="169" y="-177" type="line"/>
    </contour>
  </outline>
</glyph>
<glyph name="tonos" format="2">
	<unicode hex="0384"/>
	<advance width="872"/>
	<outline>
		<contour>
			<point x="406" y="1204" type="line"/>
			<point x="357" y="1216" type="line"/>
			<point x="443" y="1599" type="line"/>
			<point x="544" y="1585" type="line"/>
		</contour>
	</outline>
	<guideline x="448" y="1204" angle="0" identifier="rccY5oJVKR"/>
</glyph>
<glyph name="dieresistonos" format="2">
  <advance width="1104"/>
  <unicode hex="0385"/>
  <guideline x="560" y="1204" angle="0" identifier="5EBq9Gll0T"/>
  <outline>
    <contour>
      <point x="336" y="1207" type="qcurve" smooth="yes"/>
      <point x="298" y="1207"/>
      <point x="258" y="1251"/>
      <point x="258" y="1283" type="qcurve" smooth="yes"/>
      <point x="258" y="1315"/>
      <point x="298" y="1360"/>
      <point x="336" y="1360" type="qcurve" smooth="yes"/>
      <point x="375" y="1360"/>
      <point x="415" y="1315"/>
      <point x="415" y="1283" type="qcurve" smooth="yes"/>
      <point x="415" y="1251"/>
      <point x="375" y="1207"/>
    </contour>
    <contour>
      <point x="565" y="1204" type="line"/>
      <point x="515" y="1210" type="line"/>
      <point x="556" y="1601" type="line"/>
      <point x="658" y="1601" type="line"/>
    </contour>
    <contour>
      <point x="767" y="1205" type="qcurve" smooth="yes"/>
      <point x="729" y="1205"/>
      <point x="689" y="1249"/>
      <point x="689" y="1281" type="qcurve" smooth="yes"/>
      <point x="689" y="1313"/>
      <point x="729" y="1358"/>
      <point x="767" y="1358" type="qcurve" smooth="yes"/>
      <point x="805" y="1358"/>
      <point x="846" y="1313"/>
      <point x="846" y="1281" type="qcurve" smooth="yes"/>
      <point x="846" y="1249"/>
      <point x="805" y="1205"/>
    </contour>
  </outline>
</glyph>
<glyph name="Delta" format="2">
	<unicode hex="0394"/>
	<advance width="1101"/>
	<outline>
		<contour>
			<point x="7" y="0" type="line"/>
			<point x="7" y="52" type="line"/>
			<point x="487" y="1466" type="line"/>
			<point x="609" y="1466" type="line"/>
			<point x="1094" y="52" type="line"/>
			<point x="1094" y="0" type="line"/>
		</contour>
		<contour>
			<point x="103" y="79" type="line"/>
			<point x="991" y="79" type="line"/>
			<point x="605" y="1232" type="line" smooth="yes"/>
			<point x="589" y="1279"/>
			<point x="564" y="1361"/>
			<point x="552" y="1401" type="qcurve"/>
			<point x="543" y="1401" type="line"/>
			<point x="532" y="1361"/>
			<point x="504" y="1278"/>
			<point x="489" y="1232" type="qcurve" smooth="yes"/>
		</contour>
	</outline>
</glyph>
<glyph name="Phi" format="2">
  <advance width="1291"/>
  <unicode hex="03A6"/>
  <outline>
    <contour>
      <point x="690" y="1476" type="line"/>
      <point x="690" y="1266" type="line"/>
      <point x="679" y="1266" type="line" smooth="yes"/>
      <point x="960" y="1266"/>
      <point x="1251" y="982"/>
      <point x="1251" y="741" type="qcurve" smooth="yes"/>
      <point x="1251" y="499"/>
      <point x="959" y="214"/>
      <point x="679" y="214" type="qcurve" smooth="yes"/>
      <point x="690" y="214" type="line"/>
      <point x="690" y="-20" type="line"/>
      <point x="601" y="-20" type="line"/>
      <point x="601" y="214" type="line"/>
      <point x="612" y="214" type="line" smooth="yes"/>
      <point x="333" y="214"/>
      <point x="40" y="499"/>
      <point x="40" y="741" type="qcurve" smooth="yes"/>
      <point x="40" y="982"/>
      <point x="332" y="1266"/>
      <point x="612" y="1266" type="qcurve" smooth="yes"/>
      <point x="601" y="1266" type="line"/>
      <point x="601" y="1476" type="line"/>
    </contour>
    <contour>
      <point x="679" y="1181" type="qcurve" smooth="yes"/>
      <point x="690" y="1181" type="line"/>
      <point x="690" y="299" type="line"/>
      <point x="679" y="299" type="line" smooth="yes"/>
      <point x="940" y="299"/>
      <point x="1164" y="542"/>
      <point x="1164" y="741" type="qcurve" smooth="yes"/>
      <point x="1164" y="939"/>
      <point x="940" y="1181"/>
    </contour>
    <contour>
      <point x="612" y="1181" type="line" smooth="yes"/>
      <point x="351" y="1181"/>
      <point x="127" y="939"/>
      <point x="127" y="741" type="qcurve" smooth="yes"/>
      <point x="127" y="542"/>
      <point x="351" y="299"/>
      <point x="612" y="299" type="qcurve" smooth="yes"/>
      <point x="601" y="299" type="line"/>
      <point x="601" y="1181" type="line"/>
    </contour>
  </outline>
</glyph>
<glyph name="Psi" format="2">
	<unicode hex="03A8"/>
	<advance width="1512"/>
	<outline>
		<contour>
			<point x="712" y="0" type="line"/>
			<point x="712" y="1456" type="line"/>
			<point x="799" y="1456" type="line"/>
			<point x="799" y="0" type="line"/>
		</contour>
		<contour>
			<point x="747" y="361" type="line"/>
			<point x="709" y="361" type="line" smooth="yes"/>
			<point x="403" y="361"/>
			<point x="149" y="635"/>
			<point x="155" y="928" type="qcurve" smooth="yes"/>
			<point x="155" y="1456" type="line"/>
			<point x="242" y="1456" type="line"/>
			<point x="242" y="926" type="line" smooth="yes"/>
			<point x="242" y="640"/>
			<point x="465" y="446"/>
			<point x="709" y="446" type="qcurve" smooth="yes"/>
			<point x="747" y="446" type="line"/>
		</contour>
		<contour>
			<point x="764" y="361" type="line"/>
			<point x="764" y="446" type="line"/>
			<point x="802" y="446" type="line" smooth="yes"/>
			<point x="1046" y="446"/>
			<point x="1269" y="640"/>
			<point x="1269" y="926" type="qcurve" smooth="yes"/>
			<point x="1269" y="1456" type="line"/>
			<point x="1356" y="1456" type="line"/>
			<point x="1356" y="928" type="line" smooth="yes"/>
			<point x="1362" y="635"/>
			<point x="1108" y="361"/>
			<point x="802" y="361" type="qcurve" smooth="yes"/>
		</contour>
	</outline>
</glyph>
<glyph name="Omega" format="2">
  <advance width="1100"/>
  <unicode hex="03A9"/>
  <guideline x="24" y="1383" angle="90" identifier="le3K4V1qWv"/>
  <anchor x="44" y="1456" name="GRK_topleft"/>
  <outline>
    <contour>
      <point x="25" y="0" type="line"/>
      <point x="25" y="83" type="line"/>
      <point x="372" y="83" type="line"/>
      <point x="372" y="313" type="line"/>
      <point x="217" y="359"/>
      <point x="24" y="641"/>
      <point x="24" y="852" type="qcurve" smooth="yes"/>
      <point x="24" y="908" type="line" smooth="yes"/>
      <point x="24" y="1181"/>
      <point x="291" y="1486"/>
      <point x="550" y="1486" type="qcurve"/>
      <point x="809" y="1486"/>
      <point x="1076" y="1181"/>
      <point x="1076" y="908" type="qcurve" smooth="yes"/>
      <point x="1076" y="852" type="line" smooth="yes"/>
      <point x="1076" y="641"/>
      <point x="883" y="359"/>
      <point x="728" y="313" type="qcurve"/>
      <point x="728" y="83" type="line"/>
      <point x="1075" y="83" type="line"/>
      <point x="1075" y="0" type="line"/>
      <point x="639" y="0" type="line"/>
      <point x="639" y="378" type="line"/>
      <point x="808" y="404"/>
      <point x="986" y="671"/>
      <point x="986" y="848" type="qcurve" smooth="yes"/>
      <point x="986" y="913" type="line" smooth="yes"/>
      <point x="986" y="1151"/>
      <point x="764" y="1401"/>
      <point x="550" y="1401" type="qcurve"/>
      <point x="336" y="1401"/>
      <point x="114" y="1151"/>
      <point x="114" y="913" type="qcurve" smooth="yes"/>
      <point x="114" y="848" type="line" smooth="yes"/>
      <point x="114" y="671"/>
      <point x="292" y="404"/>
      <point x="461" y="378" type="qcurve"/>
      <point x="461" y="0" type="line"/>
    </contour>
  </outline>
</glyph>
<glyph name="alpha" format="2">
  <advance width="1056"/>
  <unicode hex="03B1"/>
  <anchor x="489" y="1052" name="GRK_top"/>
  <outline>
    <contour>
      <point x="476" y="-20" type="qcurve"/>
      <point x="295" y="-20"/>
      <point x="85" y="257"/>
      <point x="85" y="510" type="qcurve" smooth="yes"/>
      <point x="85" y="542" type="line" smooth="yes"/>
      <point x="85" y="781"/>
      <point x="289" y="1072"/>
      <point x="489" y="1072" type="qcurve"/>
      <point x="583" y="1072"/>
      <point x="743" y="980"/>
      <point x="785" y="915" type="qcurve"/>
      <point x="785" y="915" type="line"/>
      <point x="787" y="1052" type="line"/>
      <point x="869" y="1052" type="line"/>
      <point x="869" y="170" type="line" smooth="yes"/>
      <point x="869" y="97"/>
      <point x="908" y="59"/>
      <point x="943" y="59" type="qcurve"/>
      <point x="959" y="59"/>
      <point x="992" y="68"/>
      <point x="1006" y="75" type="qcurve"/>
      <point x="1006" y="-4" type="line"/>
      <point x="991" y="-12"/>
      <point x="928" y="-20"/>
      <point x="911" y="-20" type="qcurve" smooth="yes"/>
      <point x="862" y="-20"/>
      <point x="791" y="37"/>
      <point x="781" y="124" type="qcurve"/>
      <point x="780" y="124" type="line"/>
      <point x="748" y="77"/>
      <point x="585" y="-20"/>
    </contour>
    <contour>
      <point x="486" y="63" type="qcurve" smooth="yes"/>
      <point x="593" y="63"/>
      <point x="747" y="167"/>
      <point x="781" y="240" type="qcurve"/>
      <point x="781" y="823" type="line"/>
      <point x="754" y="884"/>
      <point x="601" y="989"/>
      <point x="493" y="989" type="qcurve" smooth="yes"/>
      <point x="333" y="989"/>
      <point x="173" y="777"/>
      <point x="173" y="578" type="qcurve" smooth="yes"/>
      <point x="173" y="491" type="line" smooth="yes"/>
      <point x="173" y="281"/>
      <point x="325" y="63"/>
    </contour>
  </outline>
</glyph>
<glyph name="beta" format="2">
	<unicode hex="03B2"/>
	<advance width="1017"/>
	<outline>
		<contour>
			<point x="148" y="-416" type="line"/>
			<point x="148" y="1058" type="line" smooth="yes"/>
			<point x="148" y="1311"/>
			<point x="352" y="1556"/>
			<point x="515" y="1556" type="qcurve" smooth="yes"/>
			<point x="667" y="1556"/>
			<point x="857" y="1353"/>
			<point x="857" y="1187" type="qcurve"/>
			<point x="857" y="1036"/>
			<point x="724" y="829"/>
			<point x="620" y="825" type="qcurve"/>
			<point x="620" y="841" type="line"/>
			<point x="770" y="837"/>
			<point x="931" y="620"/>
			<point x="931" y="443" type="qcurve" smooth="yes"/>
			<point x="931" y="246"/>
			<point x="753" y="-20"/>
			<point x="539" y="-20" type="qcurve"/>
			<point x="456" y="-20"/>
			<point x="298" y="44"/>
			<point x="235" y="117" type="qcurve"/>
			<point x="235" y="-416" type="line"/>
		</contour>
		<contour>
			<point x="540" y="63" type="qcurve"/>
			<point x="694" y="63"/>
			<point x="841" y="255"/>
			<point x="841" y="442" type="qcurve" smooth="yes"/>
			<point x="841" y="627"/>
			<point x="667" y="785"/>
			<point x="514" y="786" type="qcurve" smooth="yes"/>
			<point x="399" y="786" type="line"/>
			<point x="399" y="871" type="line"/>
			<point x="515" y="871" type="line" smooth="yes"/>
			<point x="619" y="871"/>
			<point x="775" y="1027"/>
			<point x="775" y="1176" type="qcurve" smooth="yes"/>
			<point x="775" y="1314"/>
			<point x="626" y="1473"/>
			<point x="512" y="1473" type="qcurve" smooth="yes"/>
			<point x="379" y="1473"/>
			<point x="235" y="1291"/>
			<point x="235" y="1095" type="qcurve" smooth="yes"/>
			<point x="235" y="227" type="line"/>
			<point x="256" y="183"/>
			<point x="407" y="63"/>
		</contour>
	</outline>
</glyph>
<glyph name="gamma" format="2">
  <advance width="886"/>
  <unicode hex="03B3"/>
  <outline>
    <contour>
      <point x="399" y="-366" type="line"/>
      <point x="399" y="4" type="line"/>
      <point x="0" y="1052" type="line"/>
      <point x="107" y="1052" type="line"/>
      <point x="392" y="259" type="line" smooth="yes"/>
      <point x="422" y="179"/>
      <point x="438" y="111"/>
      <point x="439" y="94" type="qcurve"/>
      <point x="445" y="94" type="line"/>
      <point x="447" y="111"/>
      <point x="471" y="196"/>
      <point x="494" y="259" type="qcurve" smooth="yes"/>
      <point x="783" y="1052" type="line"/>
      <point x="886" y="1052" type="line"/>
      <point x="485" y="2" type="line"/>
      <point x="485" y="-366" type="line"/>
    </contour>
  </outline>
</glyph>
<glyph name="epsilon" format="2">
  <advance width="805"/>
  <unicode hex="03B5"/>
  <anchor x="447" y="1052" name="GRK_top"/>
  <outline>
    <contour>
      <point x="411" y="-30" type="qcurve"/>
      <point x="231" y="-30"/>
      <point x="51" y="134"/>
      <point x="51" y="263" type="qcurve" smooth="yes"/>
      <point x="51" y="379"/>
      <point x="167" y="524"/>
      <point x="285" y="536" type="qcurve"/>
      <point x="286" y="514" type="line"/>
      <point x="190" y="531"/>
      <point x="83" y="662"/>
      <point x="83" y="760" type="qcurve"/>
      <point x="83" y="911"/>
      <point x="285" y="1082"/>
      <point x="447" y="1082" type="qcurve" smooth="yes"/>
      <point x="642" y="1082"/>
      <point x="814" y="870"/>
      <point x="812" y="709" type="qcurve"/>
      <point x="731" y="709" type="line"/>
      <point x="728" y="845"/>
      <point x="599" y="998"/>
      <point x="447" y="998" type="qcurve" smooth="yes"/>
      <point x="306" y="998"/>
      <point x="172" y="873"/>
      <point x="172" y="765" type="qcurve" smooth="yes"/>
      <point x="172" y="670"/>
      <point x="272" y="571"/>
      <point x="364" y="571" type="qcurve"/>
      <point x="570" y="571" type="line"/>
      <point x="570" y="491" type="line"/>
      <point x="364" y="491" type="line" smooth="yes"/>
      <point x="245" y="491"/>
      <point x="140" y="385"/>
      <point x="140" y="276" type="qcurve" smooth="yes"/>
      <point x="140" y="173"/>
      <point x="260" y="52"/>
      <point x="411" y="52" type="qcurve"/>
      <point x="578" y="52"/>
      <point x="728" y="196"/>
      <point x="730" y="343" type="qcurve"/>
      <point x="813" y="343" type="line"/>
      <point x="813" y="179"/>
      <point x="636" y="-30"/>
    </contour>
  </outline>
</glyph>
<glyph name="eta" format="2">
  <advance width="983"/>
  <unicode hex="03B7"/>
  <anchor x="336" y="1052" name="GRK_top"/>
  <outline>
    <contour>
      <point x="758" y="-416" type="line"/>
      <point x="758" y="724" type="line" smooth="yes"/>
      <point x="758" y="863"/>
      <point x="640" y="990"/>
      <point x="520" y="990" type="qcurve" smooth="yes"/>
      <point x="416" y="990"/>
      <point x="272" y="877"/>
      <point x="234" y="808" type="qcurve"/>
      <point x="234" y="0" type="line"/>
      <point x="148" y="0" type="line"/>
      <point x="148" y="1052" type="line"/>
      <point x="229" y="1052" type="line"/>
      <point x="231" y="902" type="line"/>
      <point x="230" y="902" type="line"/>
      <point x="288" y="987"/>
      <point x="450" y="1072"/>
      <point x="554" y="1072" type="qcurve" smooth="yes"/>
      <point x="689" y="1072"/>
      <point x="845" y="907"/>
      <point x="845" y="712" type="qcurve" smooth="yes"/>
      <point x="845" y="-416" type="line"/>
    </contour>
  </outline>
</glyph>
<glyph name="theta" format="2">
  <advance width="997"/>
  <unicode hex="03B8"/>
  <outline>
    <contour>
      <point x="496" y="-30" type="qcurve" smooth="yes"/>
      <point x="301" y="-30"/>
      <point x="95" y="264"/>
      <point x="95" y="634" type="qcurve"/>
      <point x="95" y="902" type="line"/>
      <point x="95" y="1262"/>
      <point x="301" y="1556"/>
      <point x="494" y="1556" type="qcurve" smooth="yes"/>
      <point x="687" y="1556"/>
      <point x="896" y="1262"/>
      <point x="896" y="902" type="qcurve"/>
      <point x="896" y="634" type="line"/>
      <point x="896" y="264"/>
      <point x="691" y="-30"/>
    </contour>
    <contour>
      <point x="495" y="53" type="qcurve" smooth="yes"/>
      <point x="647" y="53"/>
      <point x="810" y="287"/>
      <point x="810" y="623" type="qcurve"/>
      <point x="810" y="917" type="line" smooth="yes"/>
      <point x="810" y="1256"/>
      <point x="645" y="1473"/>
      <point x="493" y="1473" type="qcurve" smooth="yes"/>
      <point x="326" y="1473"/>
      <point x="182" y="1231"/>
      <point x="182" y="917" type="qcurve" smooth="yes"/>
      <point x="182" y="623" type="line" smooth="yes"/>
      <point x="182" y="298"/>
      <point x="343" y="53"/>
    </contour>
    <contour>
      <point x="136" y="728" type="line"/>
      <point x="136" y="808" type="line"/>
      <point x="856" y="808" type="line"/>
      <point x="856" y="728" type="line"/>
    </contour>
  </outline>
</glyph>
<glyph name="iota" format="2">
  <advance width="502"/>
  <unicode hex="03B9"/>
  <anchor x="192" y="1052" name="GRK_top"/>
  <outline>
    <contour>
      <point x="336" y="-30" type="qcurve" smooth="yes"/>
      <point x="245" y="-30"/>
      <point x="138" y="111"/>
      <point x="138" y="263" type="qcurve" smooth="yes"/>
      <point x="138" y="1052" type="line"/>
      <point x="225" y="1052" type="line"/>
      <point x="225" y="256" type="line" smooth="yes"/>
      <point x="225" y="140"/>
      <point x="288" y="53"/>
      <point x="358" y="53" type="qcurve" smooth="yes"/>
      <point x="384" y="53"/>
      <point x="429" y="61"/>
      <point x="452" y="69" type="qcurve"/>
      <point x="452" y="-7" type="line"/>
      <point x="433" y="-16"/>
      <point x="373" y="-30"/>
    </contour>
  </outline>
</glyph>
<glyph name="kappa" format="2">
  <advance width="800"/>
  <unicode hex="03BA"/>
  <outline>
    <contour>
      <point x="148" y="0" type="line"/>
      <point x="148" y="1052" type="line"/>
      <point x="234" y="1052" type="line"/>
      <point x="234" y="577" type="line"/>
      <point x="406" y="577" type="line"/>
      <point x="674" y="1052" type="line"/>
      <point x="769" y="1052" type="line"/>
      <point x="473" y="540" type="line"/>
      <point x="805" y="0" type="line"/>
      <point x="705" y="0" type="line"/>
      <point x="403" y="494" type="line"/>
      <point x="234" y="494" type="line"/>
      <point x="234" y="0" type="line"/>
    </contour>
  </outline>
</glyph>
<glyph name="mu" format="2">
	<unicode hex="03BC"/>
	<advance width="1040"/>
	<outline>
		<contour>
			<point x="148" y="-416" type="line"/>
			<point x="148" y="1052" type="line"/>
			<point x="235" y="1052" type="line"/>
			<point x="235" y="204" type="line"/>
			<point x="244" y="157"/>
			<point x="370" y="65"/>
			<point x="479" y="65" type="qcurve" smooth="yes"/>
			<point x="597" y="65"/>
			<point x="758" y="221"/>
			<point x="758" y="362" type="qcurve" smooth="yes"/>
			<point x="758" y="1052" type="line"/>
			<point x="846" y="1052" type="line"/>
			<point x="846" y="170" type="line" smooth="yes"/>
			<point x="846" y="106"/>
			<point x="878" y="63"/>
			<point x="912" y="63" type="qcurve"/>
			<point x="933" y="63"/>
			<point x="969" y="73"/>
			<point x="982" y="78" type="qcurve"/>
			<point x="982" y="3" type="line"/>
			<point x="967" y="-6"/>
			<point x="923" y="-20"/>
			<point x="897" y="-20" type="qcurve" smooth="yes"/>
			<point x="832" y="-20"/>
			<point x="765" y="62"/>
			<point x="764" y="145" type="qcurve"/>
			<point x="763" y="145" type="line"/>
			<point x="730" y="70"/>
			<point x="596" y="-21"/>
			<point x="480" y="-21" type="qcurve"/>
			<point x="395" y="-21"/>
			<point x="264" y="44"/>
			<point x="235" y="94" type="qcurve"/>
			<point x="235" y="-416" type="line"/>
		</contour>
	</outline>
</glyph>
<glyph name="xi" format="2">
	<unicode hex="03BE"/>
	<advance width="683"/>
	<outline>
		<contour>
			<point x="602" y="-348" type="line"/>
			<point x="620" y="-299"/>
			<point x="636" y="-214"/>
			<point x="636" y="-169" type="qcurve"/>
			<point x="636" y="-90"/>
			<point x="567" y="-12"/>
			<point x="435" y="20" type="qcurve" smooth="yes"/>
			<point x="364" y="37" type="line" smooth="yes"/>
			<point x="229" y="69"/>
			<point x="84" y="248"/>
			<point x="85" y="406" type="qcurve"/>
			<point x="86" y="550"/>
			<point x="216" y="748"/>
			<point x="370" y="787" type="qcurve"/>
			<point x="370" y="772" type="line"/>
			<point x="239" y="808"/>
			<point x="124" y="958"/>
			<point x="124" y="1081" type="qcurve" smooth="yes"/>
			<point x="124" y="1217"/>
			<point x="282" y="1418"/>
			<point x="443" y="1458" type="qcurve"/>
			<point x="444" y="1451" type="line"/>
			<point x="97" y="1451" type="line"/>
			<point x="97" y="1536" type="line"/>
			<point x="740" y="1536" type="line"/>
			<point x="740" y="1458" type="line"/>
			<point x="475" y="1444"/>
			<point x="204" y="1255"/>
			<point x="204" y="1082" type="qcurve"/>
			<point x="204" y="963"/>
			<point x="348" y="823"/>
			<point x="506" y="823" type="qcurve" smooth="yes"/>
			<point x="661" y="823" type="line"/>
			<point x="661" y="738" type="line"/>
			<point x="506" y="738" type="line" smooth="yes"/>
			<point x="321" y="738"/>
			<point x="173" y="563"/>
			<point x="173" y="407" type="qcurve"/>
			<point x="173" y="283"/>
			<point x="292" y="142"/>
			<point x="417" y="114" type="qcurve" smooth="yes"/>
			<point x="471" y="102" type="line" smooth="yes"/>
			<point x="633" y="66"/>
			<point x="723" y="-57"/>
			<point x="723" y="-143" type="qcurve"/>
			<point x="724" y="-199"/>
			<point x="705" y="-301"/>
			<point x="685" y="-348" type="qcurve"/>
		</contour>
	</outline>
	<guideline x="85" y="369" angle="90" identifier="2LvURrkBW9"/>
</glyph>
<glyph name="pi" format="2">
	<unicode hex="03C0"/>
	<advance width="996"/>
	<outline>
		<contour>
			<point x="30" y="967" type="line"/>
			<point x="30" y="1052" type="line"/>
			<point x="974" y="1052" type="line"/>
			<point x="974" y="967" type="line"/>
		</contour>
		<contour>
			<point x="161" y="0" type="line"/>
			<point x="161" y="1010" type="line"/>
			<point x="248" y="1010" type="line"/>
			<point x="248" y="0" type="line"/>
		</contour>
		<contour>
			<point x="897" y="-20" type="qcurve" smooth="yes"/>
			<point x="821" y="-20"/>
			<point x="757" y="70"/>
			<point x="757" y="153" type="qcurve"/>
			<point x="757" y="1010" type="line"/>
			<point x="845" y="1010" type="line"/>
			<point x="845" y="164" type="line" smooth="yes"/>
			<point x="845" y="108"/>
			<point x="876" y="63"/>
			<point x="913" y="63" type="qcurve"/>
			<point x="932" y="63"/>
			<point x="969" y="73"/>
			<point x="981" y="78" type="qcurve"/>
			<point x="981" y="3" type="line"/>
			<point x="964" y="-7"/>
			<point x="922" y="-20"/>
		</contour>
	</outline>
</glyph>
<glyph name="finalsigma" format="2">
  <advance width="930"/>
  <unicode hex="03C2"/>
  <outline>
    <contour>
      <point x="592" y="-348" type="line"/>
      <point x="610" y="-299"/>
      <point x="626" y="-214"/>
      <point x="626" y="-169" type="qcurve"/>
      <point x="626" y="-90"/>
      <point x="556" y="-16"/>
      <point x="425" y="20" type="qcurve" smooth="yes"/>
      <point x="364" y="37" type="line" smooth="yes"/>
      <point x="227" y="75"/>
      <point x="85" y="282"/>
      <point x="85" y="467" type="qcurve" smooth="yes"/>
      <point x="85" y="502" type="line" smooth="yes"/>
      <point x="85" y="794"/>
      <point x="297" y="1082"/>
      <point x="499" y="1082" type="qcurve" smooth="yes"/>
      <point x="669" y="1082"/>
      <point x="846" y="870"/>
      <point x="846" y="714" type="qcurve" smooth="yes"/>
      <point x="846" y="709" type="line"/>
      <point x="763" y="709" type="line"/>
      <point x="763" y="715" type="line" smooth="yes"/>
      <point x="763" y="836"/>
      <point x="640" y="999"/>
      <point x="497" y="999" type="qcurve" smooth="yes"/>
      <point x="335" y="999"/>
      <point x="172" y="775"/>
      <point x="172" y="508" type="qcurve" smooth="yes"/>
      <point x="172" y="479" type="line" smooth="yes"/>
      <point x="172" y="324"/>
      <point x="276" y="152"/>
      <point x="417" y="114" type="qcurve" smooth="yes"/>
      <point x="461" y="102" type="line" smooth="yes"/>
      <point x="621" y="58"/>
      <point x="713" y="-57"/>
      <point x="713" y="-143" type="qcurve"/>
      <point x="714" y="-199"/>
      <point x="695" y="-301"/>
      <point x="675" y="-348" type="qcurve"/>
    </contour>
  </outline>
</glyph>
<glyph name="sigma" format="2">
	<unicode hex="03C3"/>
	<advance width="1052"/>
	<outline>
		<contour>
			<point x="505" y="-30" type="qcurve" smooth="yes"/>
			<point x="314" y="-30"/>
			<point x="85" y="251"/>
			<point x="85" y="481" type="qcurve" smooth="yes"/>
			<point x="85" y="512" type="line" smooth="yes"/>
			<point x="85" y="769"/>
			<point x="349" y="1052"/>
			<point x="582" y="1052" type="qcurve"/>
			<point x="1002" y="1052" type="line"/>
			<point x="1002" y="967" type="line"/>
			<point x="672" y="967" type="line"/>
			<point x="672" y="991" type="line"/>
			<point x="792" y="934"/>
			<point x="924" y="685"/>
			<point x="924" y="526" type="qcurve" smooth="yes"/>
			<point x="924" y="495" type="line" smooth="yes"/>
			<point x="924" y="252"/>
			<point x="696" y="-30"/>
		</contour>
		<contour>
			<point x="505" y="53" type="qcurve" smooth="yes"/>
			<point x="667" y="53"/>
			<point x="836" y="277"/>
			<point x="836" y="492" type="qcurve" smooth="yes"/>
			<point x="836" y="528" type="line" smooth="yes"/>
			<point x="836" y="726"/>
			<point x="660" y="948"/>
			<point x="583" y="976" type="qcurve"/>
			<point x="389" y="977"/>
			<point x="173" y="723"/>
			<point x="173" y="504" type="qcurve"/>
			<point x="173" y="488" type="line"/>
			<point x="173" y="278"/>
			<point x="343" y="53"/>
		</contour>
	</outline>
</glyph>
<glyph name="upsilon" format="2">
  <advance width="973"/>
  <unicode hex="03C5"/>
  <anchor x="487" y="1052" name="GRK_top"/>
  <outline>
    <contour>
      <point x="487" y="-20" type="qcurve" smooth="yes"/>
      <point x="327" y="-20"/>
      <point x="138" y="152"/>
      <point x="138" y="383" type="qcurve" smooth="yes"/>
      <point x="138" y="1052" type="line"/>
      <point x="225" y="1052" type="line"/>
      <point x="225" y="388" type="line" smooth="yes"/>
      <point x="225" y="207"/>
      <point x="350" y="62"/>
      <point x="487" y="62" type="qcurve" smooth="yes"/>
      <point x="625" y="62"/>
      <point x="748" y="207"/>
      <point x="748" y="388" type="qcurve" smooth="yes"/>
      <point x="748" y="1052" type="line"/>
      <point x="835" y="1052" type="line"/>
      <point x="835" y="383" type="line" smooth="yes"/>
      <point x="835" y="152"/>
      <point x="648" y="-20"/>
    </contour>
  </outline>
</glyph>
<glyph name="phi" format="2">
  <advance width="1203"/>
  <unicode hex="03C6"/>
  <outline>
    <contour>
      <point x="559" y="-416" type="line"/>
      <point x="559" y="-30" type="line"/>
      <point x="347" y="-20"/>
      <point x="85" y="257"/>
      <point x="85" y="510" type="qcurve" smooth="yes"/>
      <point x="85" y="542" type="line" smooth="yes"/>
      <point x="85" y="785"/>
      <point x="347" y="1072"/>
      <point x="559" y="1082" type="qcurve"/>
      <point x="559" y="1536" type="line"/>
      <point x="645" y="1536" type="line"/>
      <point x="645" y="1082" type="line"/>
      <point x="857" y="1072"/>
      <point x="1119" y="795"/>
      <point x="1119" y="542" type="qcurve" smooth="yes"/>
      <point x="1119" y="510" type="line" smooth="yes"/>
      <point x="1119" y="257"/>
      <point x="857" y="-20"/>
      <point x="645" y="-30" type="qcurve"/>
      <point x="645" y="-416" type="line"/>
    </contour>
    <contour>
      <point x="559" y="50" type="qcurve"/>
      <point x="559" y="1002" type="line"/>
      <point x="366" y="992"/>
      <point x="173" y="746"/>
      <point x="173" y="552" type="qcurve" smooth="yes"/>
      <point x="173" y="500" type="line" smooth="yes"/>
      <point x="173" y="306"/>
      <point x="374" y="60"/>
    </contour>
    <contour>
      <point x="645" y="50" type="line"/>
      <point x="838" y="60"/>
      <point x="1031" y="306"/>
      <point x="1031" y="500" type="qcurve" smooth="yes"/>
      <point x="1031" y="552" type="line" smooth="yes"/>
      <point x="1031" y="746"/>
      <point x="830" y="992"/>
      <point x="645" y="1002" type="qcurve"/>
    </contour>
  </outline>
</glyph>
<glyph name="chi" format="2">
  <advance width="845"/>
  <unicode hex="03C7"/>
  <outline>
    <contour>
      <point x="738" y="-416" type="line"/>
      <point x="412" y="296" type="line"/>
      <point x="409" y="296" type="line"/>
      <point x="51" y="1052" type="line"/>
      <point x="150" y="1052" type="line"/>
      <point x="466" y="364" type="line"/>
      <point x="469" y="364" type="line"/>
      <point x="838" y="-416" type="line"/>
    </contour>
    <contour>
      <point x="40" y="-416" type="line"/>
      <point x="417" y="376" type="line"/>
      <point x="427" y="376" type="line"/>
      <point x="737" y="1052" type="line"/>
      <point x="832" y="1052" type="line"/>
      <point x="466" y="283" type="line"/>
      <point x="456" y="283" type="line"/>
      <point x="135" y="-416" type="line"/>
    </contour>
  </outline>
</glyph>
<glyph name="psi" format="2">
  <advance width="1197"/>
  <unicode hex="03C8"/>
  <outline>
    <contour>
      <point x="593" y="-416" type="line"/>
      <point x="593" y="-20" type="line"/>
      <point x="374" y="-16"/>
      <point x="138" y="237"/>
      <point x="138" y="480" type="qcurve" smooth="yes"/>
      <point x="138" y="1052" type="line"/>
      <point x="225" y="1052" type="line"/>
      <point x="225" y="490" type="line" smooth="yes"/>
      <point x="225" y="305"/>
      <point x="377" y="71"/>
      <point x="593" y="62" type="qcurve"/>
      <point x="593" y="1536" type="line"/>
      <point x="680" y="1536" type="line"/>
      <point x="680" y="62" type="line"/>
      <point x="897" y="71"/>
      <point x="1049" y="305"/>
      <point x="1049" y="490" type="qcurve" smooth="yes"/>
      <point x="1049" y="1052" type="line"/>
      <point x="1137" y="1052" type="line"/>
      <point x="1137" y="480" type="line" smooth="yes"/>
      <point x="1137" y="237"/>
      <point x="899" y="-16"/>
      <point x="680" y="-20" type="qcurve"/>
      <point x="680" y="-416" type="line"/>
    </contour>
  </outline>
</glyph>
<glyph name="omega" format="2">
  <advance width="1433"/>
  <unicode hex="03C9"/>
  <anchor x="712" y="1052" name="GRK_top"/>
  <outline>
    <contour>
      <point x="443" y="-30" type="qcurve" smooth="yes"/>
      <point x="282" y="-30"/>
      <point x="95" y="217"/>
      <point x="95" y="453" type="qcurve"/>
      <point x="95" y="645"/>
      <point x="208" y="957"/>
      <point x="284" y="1052" type="qcurve"/>
      <point x="386" y="1052" type="line"/>
      <point x="306" y="964"/>
      <point x="183" y="655"/>
      <point x="183" y="451" type="qcurve"/>
      <point x="183" y="261"/>
      <point x="321" y="53"/>
      <point x="457" y="53" type="qcurve"/>
      <point x="564" y="53"/>
      <point x="672" y="204"/>
      <point x="672" y="378" type="qcurve"/>
      <point x="672" y="702" type="line"/>
      <point x="760" y="702" type="line"/>
      <point x="760" y="378" type="line"/>
      <point x="760" y="206"/>
      <point x="868" y="53"/>
      <point x="978" y="53" type="qcurve"/>
      <point x="1109" y="53"/>
      <point x="1251" y="257"/>
      <point x="1251" y="451" type="qcurve"/>
      <point x="1251" y="655"/>
      <point x="1127" y="964"/>
      <point x="1046" y="1052" type="qcurve"/>
      <point x="1148" y="1052" type="line"/>
      <point x="1227" y="952"/>
      <point x="1338" y="644"/>
      <point x="1338" y="463" type="qcurve"/>
      <point x="1338" y="213"/>
      <point x="1148" y="-30"/>
      <point x="988" y="-30" type="qcurve" smooth="yes"/>
      <point x="877" y="-30"/>
      <point x="726" y="100"/>
      <point x="711" y="211" type="qcurve"/>
      <point x="720" y="211" type="line"/>
      <point x="705" y="100"/>
      <point x="556" y="-30"/>
    </contour>
  </outline>
</glyph>
<glyph name="Kaisymbol" format="2">
	<unicode hex="03CF"/>
	<advance width="1081"/>
	<outline>
		<contour>
			<point x="480" y="-566" type="line"/>
			<point x="423" y="-510" type="line"/>
			<point x="968" y="-14" type="line"/>
			<point x="461" y="748" type="line"/>
			<point x="259" y="508" type="line"/>
			<point x="259" y="0" type="line"/>
			<point x="170" y="0" type="line"/>
			<point x="170" y="1456" type="line"/>
			<point x="258" y="1456" type="line"/>
			<point x="258" y="616" type="line"/>
			<point x="922" y="1456" type="line"/>
			<point x="1030" y="1456" type="line"/>
			<point x="523" y="819" type="line"/>
			<point x="1071" y="-14" type="line"/>
		</contour>
	</outline>
</glyph>
<glyph name="kaisymbol" format="2">
  <advance width="975"/>
  <unicode hex="03D7"/>
  <outline>
    <contour>
      <point x="323" y="-529" type="line"/>
      <point x="263" y="-474" type="line"/>
      <point x="713" y="-2" type="line"/>
      <point x="403" y="494" type="line"/>
      <point x="234" y="494" type="line"/>
      <point x="234" y="0" type="line"/>
      <point x="148" y="0" type="line"/>
      <point x="148" y="1052" type="line"/>
      <point x="234" y="1052" type="line"/>
      <point x="234" y="577" type="line"/>
      <point x="406" y="577" type="line"/>
      <point x="674" y="1052" type="line"/>
      <point x="769" y="1052" type="line"/>
      <point x="473" y="540" type="line"/>
      <point x="823" y="-3" type="line"/>
    </contour>
  </outline>
</glyph>
<glyph name="Dje" format="2">
	<unicode hex="0402"/>
	<advance width="1490"/>
	<outline>
		<contour>
			<point x="455" y="0" type="line"/>
			<point x="455" y="1373" type="line"/>
			<point x="24" y="1373" type="line"/>
			<point x="24" y="1456" type="line"/>
			<point x="974" y="1456" type="line"/>
			<point x="974" y="1373" type="line"/>
			<point x="542" y="1373" type="line"/>
			<point x="542" y="0" type="line"/>
		</contour>
		<contour>
			<point x="974" y="0" type="line"/>
			<point x="974" y="83" type="line"/>
			<point x="982" y="83" type="line" smooth="yes"/>
			<point x="1104" y="83"/>
			<point x="1236" y="251"/>
			<point x="1236" y="407" type="qcurve" smooth="yes"/>
			<point x="1236" y="425" type="line" smooth="yes"/>
			<point x="1236" y="590"/>
			<point x="1051" y="767"/>
			<point x="879" y="766" type="qcurve" smooth="yes"/>
			<point x="750" y="765"/>
			<point x="582" y="740"/>
			<point x="498" y="718" type="qcurve"/>
			<point x="498" y="803" type="line"/>
			<point x="610" y="824"/>
			<point x="745" y="850"/>
			<point x="869" y="850" type="qcurve" smooth="yes"/>
			<point x="1089" y="850"/>
			<point x="1325" y="630"/>
			<point x="1325" y="425" type="qcurve" smooth="yes"/>
			<point x="1325" y="408" type="line" smooth="yes"/>
			<point x="1325" y="211"/>
			<point x="1147" y="0"/>
			<point x="982" y="0" type="qcurve" smooth="yes"/>
		</contour>
	</outline>
	<guideline x="568" y="625" angle="90" identifier="YDADns81zF"/>
</glyph>
<glyph name="Ieukran" format="2">
	<unicode hex="0404"/>
	<advance width="1056"/>
	<outline>
		<contour>
			<point x="160" y="781" type="line"/>
			<point x="719" y="781" type="line"/>
			<point x="719" y="697" type="line"/>
			<point x="160" y="697" type="line"/>
		</contour>
		<contour>
			<point x="115" y="697" type="qcurve" smooth="yes"/>
			<point x="115" y="759" type="line" smooth="yes"/>
			<point x="115" y="1140"/>
			<point x="389" y="1486"/>
			<point x="616" y="1486" type="qcurve" smooth="yes"/>
			<point x="826" y="1486"/>
			<point x="1063" y="1248"/>
			<point x="1063" y="1029" type="qcurve" smooth="yes"/>
			<point x="1063" y="1019" type="line"/>
			<point x="974" y="1019" type="line"/>
			<point x="974" y="1029" type="line" smooth="yes"/>
			<point x="974" y="1208"/>
			<point x="788" y="1401"/>
			<point x="616" y="1401" type="qcurve" smooth="yes"/>
			<point x="414" y="1401"/>
			<point x="204" y="1073"/>
			<point x="204" y="777" type="qcurve" smooth="yes"/>
			<point x="204" y="665" type="line" smooth="yes"/>
			<point x="204" y="351"/>
			<point x="429" y="55"/>
			<point x="615" y="55" type="qcurve" smooth="yes"/>
			<point x="788" y="55"/>
			<point x="974" y="248"/>
			<point x="974" y="427" type="qcurve" smooth="yes"/>
			<point x="974" y="437" type="line"/>
			<point x="1063" y="437" type="line"/>
			<point x="1063" y="427" type="line" smooth="yes"/>
			<point x="1063" y="207"/>
			<point x="826" y="-30"/>
			<point x="616" y="-30" type="qcurve" smooth="yes"/>
			<point x="387" y="-30"/>
			<point x="115" y="314"/>
		</contour>
	</outline>
	<guideline x="211" y="787" angle="90" identifier="mFTeE97JTj"/>
</glyph>
<glyph name="Yi" format="2">
	<unicode hex="0407"/>
	<advance width="439"/>
	<outline>
		<contour>
			<point x="175" y="0" type="line"/>
			<point x="175" y="1456" type="line"/>
			<point x="263" y="1456" type="line"/>
			<point x="263" y="0" type="line"/>
		</contour>
		<contour>
			<point x="40" y="1756" type="qcurve" smooth="yes"/>
			<point x="40" y="1796"/>
			<point x="72" y="1839"/>
			<point x="101" y="1839" type="qcurve" smooth="yes"/>
			<point x="129" y="1839"/>
			<point x="162" y="1793"/>
			<point x="162" y="1756" type="qcurve" smooth="yes"/>
			<point x="162" y="1717"/>
			<point x="131" y="1674"/>
			<point x="101" y="1674" type="qcurve" smooth="yes"/>
			<point x="73" y="1674"/>
			<point x="40" y="1719"/>
		</contour>
		<contour>
			<point x="276" y="1756" type="qcurve" smooth="yes"/>
			<point x="276" y="1796"/>
			<point x="308" y="1839"/>
			<point x="337" y="1839" type="qcurve" smooth="yes"/>
			<point x="365" y="1839"/>
			<point x="398" y="1793"/>
			<point x="398" y="1756" type="qcurve" smooth="yes"/>
			<point x="398" y="1717"/>
			<point x="367" y="1674"/>
			<point x="337" y="1674" type="qcurve" smooth="yes"/>
			<point x="309" y="1674"/>
			<point x="276" y="1719"/>
		</contour>
	</outline>
</glyph>
<glyph name="Lje" format="2">
	<unicode hex="0409"/>
	<advance width="1739"/>
	<outline>
		<contour>
			<point x="298" y="1456" type="line"/>
			<point x="980" y="1456" type="line"/>
			<point x="980" y="874" type="line"/>
			<point x="1261" y="874" type="line" smooth="yes"/>
			<point x="1464" y="874"/>
			<point x="1663" y="655"/>
			<point x="1663" y="436" type="qcurve" smooth="yes"/>
			<point x="1663" y="217"/>
			<point x="1464" y="0"/>
			<point x="1261" y="0" type="qcurve" smooth="yes"/>
			<point x="892" y="0" type="line"/>
			<point x="892" y="1371" type="line"/>
			<point x="381" y="1371" type="line"/>
			<point x="347" y="562" type="line" smooth="yes"/>
			<point x="332.7941415434" y="223.9841326073"/>
			<point x="236.6198347107" y="-20"/>
			<point x="95" y="-20" type="qcurve" smooth="yes"/>
			<point x="73" y="-20"/>
			<point x="35" y="-10"/>
			<point x="10" y="0" type="qcurve"/>
			<point x="10" y="91" type="line"/>
			<point x="32" y="81"/>
			<point x="71" y="71"/>
			<point x="94" y="71" type="qcurve" smooth="yes"/>
			<point x="178.0318471338" y="71"/>
			<point x="248.9034434047" y="286.9711794459"/>
			<point x="261" y="575" type="qcurve" smooth="yes"/>
		</contour>
		<contour>
			<point x="980" y="790" type="line"/>
			<point x="980" y="83" type="line"/>
			<point x="1261" y="83" type="line" smooth="yes"/>
			<point x="1435" y="83"/>
			<point x="1574" y="274"/>
			<point x="1574" y="436" type="qcurve" smooth="yes"/>
			<point x="1574" y="600"/>
			<point x="1435" y="790"/>
			<point x="1260" y="790" type="qcurve" smooth="yes"/>
		</contour>
	</outline>
</glyph>
<glyph name="Nje" format="2">
	<unicode hex="040A"/>
	<advance width="1771"/>
	<outline>
		<contour>
			<point x="170" y="0" type="line"/>
			<point x="170" y="1456" type="line"/>
			<point x="258" y="1456" type="line"/>
			<point x="258" y="855" type="line"/>
			<point x="925" y="855" type="line"/>
			<point x="925" y="1456" type="line"/>
			<point x="1013" y="1456" type="line"/>
			<point x="1013" y="855" type="line"/>
			<point x="1293" y="855" type="line" smooth="yes"/>
			<point x="1496" y="855"/>
			<point x="1695" y="641"/>
			<point x="1695" y="428" type="qcurve" smooth="yes"/>
			<point x="1695" y="213"/>
			<point x="1496" y="0"/>
			<point x="1293" y="0" type="qcurve" smooth="yes"/>
			<point x="925" y="0" type="line"/>
			<point x="925" y="770" type="line"/>
			<point x="258" y="770" type="line"/>
			<point x="258" y="0" type="line"/>
		</contour>
		<contour>
			<point x="1013" y="770" type="line"/>
			<point x="1013" y="83" type="line"/>
			<point x="1293" y="83" type="line" smooth="yes"/>
			<point x="1467" y="83"/>
			<point x="1606" y="270"/>
			<point x="1606" y="428" type="qcurve" smooth="yes"/>
			<point x="1606" y="586"/>
			<point x="1467" y="770"/>
			<point x="1292" y="770" type="qcurve" smooth="yes"/>
		</contour>
	</outline>
</glyph>
<glyph name="Tshe" format="2">
  <advance width="1436"/>
  <unicode hex="040B"/>
  <outline>
    <contour>
      <point x="1208" y="0" type="line"/>
      <point x="1208" y="320" type="line" smooth="yes"/>
      <point x="1208" y="594"/>
      <point x="1029" y="765"/>
      <point x="864" y="765" type="qcurve" smooth="yes"/>
      <point x="756" y="765"/>
      <point x="566" y="740"/>
      <point x="498" y="716" type="qcurve"/>
      <point x="498" y="802" type="line"/>
      <point x="568" y="825"/>
      <point x="758" y="850"/>
      <point x="864" y="850" type="qcurve" smooth="yes"/>
      <point x="1066" y="850"/>
      <point x="1296" y="644"/>
      <point x="1296" y="320" type="qcurve" smooth="yes"/>
      <point x="1296" y="0" type="line"/>
    </contour>
    <contour>
      <point x="24" y="1371" type="line"/>
      <point x="24" y="1456" type="line"/>
      <point x="974" y="1456" type="line"/>
      <point x="974" y="1371" type="line"/>
      <point x="543" y="1371" type="line"/>
      <point x="543" y="0" type="line"/>
      <point x="455" y="0" type="line"/>
      <point x="455" y="1371" type="line"/>
    </contour>
  </outline>
</glyph>
<glyph name="Be" format="2">
	<unicode hex="0411"/>
	<advance width="1031"/>
	<outline>
		<contour>
			<point x="170" y="0" type="line"/>
			<point x="170" y="1456" type="line"/>
			<point x="882" y="1456" type="line"/>
			<point x="882" y="1371" type="line"/>
			<point x="258" y="1371" type="line"/>
			<point x="258" y="855" type="line"/>
			<point x="549" y="855" type="line" smooth="yes"/>
			<point x="752" y="855"/>
			<point x="951" y="640"/>
			<point x="951" y="426" type="qcurve" smooth="yes"/>
			<point x="951" y="213"/>
			<point x="752" y="0"/>
			<point x="549" y="0" type="qcurve" smooth="yes"/>
		</contour>
		<contour>
			<point x="258" y="770" type="line"/>
			<point x="258" y="85" type="line"/>
			<point x="549" y="85" type="line" smooth="yes"/>
			<point x="723" y="85"/>
			<point x="862" y="268"/>
			<point x="862" y="426" type="qcurve" smooth="yes"/>
			<point x="862" y="586"/>
			<point x="723" y="770"/>
			<point x="548" y="770" type="qcurve" smooth="yes"/>
		</contour>
	</outline>
</glyph>
<glyph name="De" format="2">
	<unicode hex="0414"/>
	<advance width="1212"/>
	<outline>
		<contour>
			<point x="1120" y="-290" type="line"/>
			<point x="1120" y="0" type="line"/>
			<point x="87" y="0" type="line"/>
			<point x="87" y="-290" type="line"/>
			<point x="5" y="-290" type="line"/>
			<point x="5" y="84" type="line"/>
			<point x="1202" y="84" type="line"/>
			<point x="1202" y="-290" type="line"/>
		</contour>
		<contour>
			<point x="260" y="1456" type="line"/>
			<point x="1032" y="1456" type="line"/>
			<point x="1032" y="0" type="line"/>
			<point x="944" y="0" type="line"/>
			<point x="944" y="1371" type="line"/>
			<point x="343" y="1371" type="line"/>
			<point x="319" y="710" type="line" smooth="yes"/>
			<point x="309" y="433"/>
			<point x="264" y="182"/>
			<point x="192" y="45" type="qcurve"/>
			<point x="93" y="45" type="line"/>
			<point x="178" y="183"/>
			<point x="225" y="444"/>
			<point x="234" y="709" type="qcurve" smooth="yes"/>
		</contour>
	</outline>
</glyph>
<glyph name="Zhe" format="2">
  <advance width="1599"/>
  <unicode hex="0416"/>
  <outline>
    <contour>
      <point x="753" y="0" type="line"/>
      <point x="753" y="1456" type="line"/>
      <point x="842" y="1456" type="line"/>
      <point x="842" y="0" type="line"/>
    </contour>
    <contour>
      <point x="1491" y="0" type="line"/>
      <point x="999" y="760" type="line"/>
      <point x="1098" y="771" type="line"/>
      <point x="1599" y="0" type="line"/>
    </contour>
    <contour>
      <point x="798" y="795" type="line"/>
      <point x="1030" y="795" type="line"/>
      <point x="1431" y="1456" type="line"/>
      <point x="1533" y="1456" type="line"/>
      <point x="1077" y="710" type="line"/>
      <point x="798" y="710" type="line"/>
    </contour>
    <contour>
      <point x="0" y="0" type="line"/>
      <point x="501" y="771" type="line"/>
      <point x="595" y="760" type="line"/>
      <point x="103" y="0" type="line"/>
    </contour>
    <contour>
      <point x="798" y="795" type="line"/>
      <point x="798" y="710" type="line"/>
      <point x="513" y="710" type="line"/>
      <point x="57" y="1456" type="line"/>
      <point x="163" y="1456" type="line"/>
      <point x="564" y="795" type="line"/>
    </contour>
  </outline>
</glyph>
<glyph name="Ze" format="2">
	<unicode hex="0417"/>
	<advance width="1033"/>
	<outline>
		<contour>
			<point x="490" y="55" type="qcurve" smooth="yes"/>
			<point x="682" y="55"/>
			<point x="874" y="237"/>
			<point x="874" y="401" type="qcurve" smooth="yes"/>
			<point x="874" y="537"/>
			<point x="712" y="715"/>
			<point x="461" y="715" type="qcurve" smooth="yes"/>
			<point x="358" y="715" type="line"/>
			<point x="358" y="799" type="line"/>
			<point x="503" y="799" type="line" smooth="yes"/>
			<point x="674" y="799"/>
			<point x="836" y="956"/>
			<point x="836" y="1094" type="qcurve" smooth="yes"/>
			<point x="836" y="1239"/>
			<point x="680" y="1401"/>
			<point x="514" y="1401" type="qcurve" smooth="yes"/>
			<point x="366" y="1401"/>
			<point x="175" y="1192"/>
			<point x="175" y="1030" type="qcurve" smooth="yes"/>
			<point x="175" y="1022" type="line"/>
			<point x="86" y="1022" type="line"/>
			<point x="86" y="1032" type="line" smooth="yes"/>
			<point x="86" y="1230"/>
			<point x="328" y="1486"/>
			<point x="516" y="1486" type="qcurve" smooth="yes"/>
			<point x="723" y="1486"/>
			<point x="925" y="1274"/>
			<point x="925" y="1103" type="qcurve" smooth="yes"/>
			<point x="925" y="968"/>
			<point x="794" y="796"/>
			<point x="676" y="764" type="qcurve"/>
			<point x="676" y="760" type="line"/>
			<point x="818" y="729"/>
			<point x="963" y="548"/>
			<point x="963" y="399" type="qcurve" smooth="yes"/>
			<point x="963" y="189"/>
			<point x="702" y="-30"/>
			<point x="492" y="-30" type="qcurve" smooth="yes"/>
			<point x="292" y="-30"/>
			<point x="33" y="228"/>
			<point x="33" y="427" type="qcurve" smooth="yes"/>
			<point x="33" y="437" type="line"/>
			<point x="122" y="437" type="line"/>
			<point x="122" y="427" type="line" smooth="yes"/>
			<point x="122" y="265"/>
			<point x="329" y="55"/>
		</contour>
	</outline>
</glyph>
<glyph name="Icyr" format="2">
	<unicode hex="0418"/>
	<advance width="1243"/>
	<outline>
		<contour>
			<point x="1073" y="0" type="line"/>
			<point x="985" y="0" type="line"/>
			<point x="985" y="1242" type="line" smooth="yes"/>
			<point x="985" y="1274"/>
			<point x="990" y="1345"/>
			<point x="994" y="1380" type="qcurve"/>
			<point x="986" y="1380" type="line"/>
			<point x="975" y="1348"/>
			<point x="940" y="1263"/>
			<point x="927" y="1238" type="qcurve" smooth="yes"/>
			<point x="282" y="0" type="line"/>
			<point x="170" y="0" type="line"/>
			<point x="170" y="1456" type="line"/>
			<point x="255" y="1456" type="line"/>
			<point x="255" y="229" type="line" smooth="yes"/>
			<point x="255" y="195"/>
			<point x="248" y="113"/>
			<point x="241" y="77" type="qcurve"/>
			<point x="251" y="77" type="line"/>
			<point x="259" y="105"/>
			<point x="293" y="179"/>
			<point x="309" y="209" type="qcurve" smooth="yes"/>
			<point x="960" y="1456" type="line"/>
			<point x="1073" y="1456" type="line"/>
		</contour>
	</outline>
	<guideline x="739" y="930" angle="90" identifier="jpSOnFR6u4"/>
</glyph>
<glyph name="Ka" format="2">
  <advance width="1116"/>
  <unicode hex="041A"/>
  <guideline x="480" y="796" angle="90" identifier="LxfLwWU0sJ"/>
  <outline>
    <contour>
      <point x="998" y="0" type="line"/>
      <point x="446" y="760" type="line"/>
      <point x="545" y="771" type="line"/>
      <point x="1106" y="0" type="line"/>
    </contour>
    <contour>
      <point x="214" y="795" type="line"/>
      <point x="477" y="795" type="line"/>
      <point x="938" y="1456" type="line"/>
      <point x="1040" y="1456" type="line"/>
      <point x="514" y="710" type="line"/>
      <point x="214" y="710" type="line"/>
    </contour>
    <contour>
      <point x="170" y="0" type="line"/>
      <point x="170" y="1456" type="line"/>
      <point x="258" y="1456" type="line"/>
      <point x="258" y="0" type="line"/>
    </contour>
  </outline>
</glyph>
<glyph name="El" format="2">
	<unicode hex="041B"/>
	<advance width="1232"/>
	<outline>
		<contour>
			<point x="298" y="1456" type="line"/>
			<point x="1062" y="1456" type="line"/>
			<point x="1062" y="0" type="line"/>
			<point x="974" y="0" type="line"/>
			<point x="974" y="1371" type="line"/>
			<point x="381" y="1371" type="line"/>
			<point x="347" y="562" type="line" smooth="yes"/>
			<point x="332.7941415434" y="223.9841326073"/>
			<point x="236.6198347107" y="-20"/>
			<point x="95" y="-20" type="qcurve" smooth="yes"/>
			<point x="73" y="-20"/>
			<point x="35" y="-10"/>
			<point x="10" y="0" type="qcurve"/>
			<point x="10" y="91" type="line"/>
			<point x="32" y="81"/>
			<point x="71" y="71"/>
			<point x="94" y="71" type="qcurve" smooth="yes"/>
			<point x="178.0318471338" y="71"/>
			<point x="248.9034434047" y="286.9711794459"/>
			<point x="261" y="575" type="qcurve" smooth="yes"/>
		</contour>
	</outline>
</glyph>
<glyph name="Ucyr" format="2">
	<unicode hex="0423"/>
	<advance width="1018"/>
	<outline>
		<contour>
			<point x="96" y="88" type="line"/>
			<point x="119" y="82"/>
			<point x="156" y="77"/>
			<point x="180" y="77" type="qcurve" smooth="yes"/>
			<point x="272" y="77"/>
			<point x="382" y="254"/>
			<point x="474" y="448" type="qcurve"/>
			<point x="459" y="384" type="line"/>
			<point x="14" y="1456" type="line"/>
			<point x="107" y="1456" type="line"/>
			<point x="436" y="656" type="line" smooth="yes"/>
			<point x="457" y="606"/>
			<point x="485" y="521"/>
			<point x="491" y="488" type="qcurve"/>
			<point x="499" y="488" type="line"/>
			<point x="505.0031209365" y="521.0171651507"/>
			<point x="540.4124958828" y="606.6571334464"/>
			<point x="562" y="656" type="qcurve" smooth="yes"/>
			<point x="912" y="1456" type="line"/>
			<point x="1001" y="1456" type="line"/>
			<point x="522" y="370" type="line" smooth="yes"/>
			<point x="447" y="200"/>
			<point x="305" y="-11"/>
			<point x="180" y="-11" type="qcurve" smooth="yes"/>
			<point x="155" y="-11"/>
			<point x="119" y="-6"/>
			<point x="96" y="0" type="qcurve"/>
		</contour>
	</outline>
</glyph>
<glyph name="Ef" format="2">
	<unicode hex="0424"/>
	<advance width="1581"/>
	<outline>
		<contour>
			<point x="835" y="1476" type="line"/>
			<point x="835" y="1266" type="line"/>
			<point x="854" y="1266" type="line" smooth="yes"/>
			<point x="1154.8310810811" y="1266"/>
			<point x="1466" y="982"/>
			<point x="1466" y="741" type="qcurve" smooth="yes"/>
			<point x="1466" y="499"/>
			<point x="1153.7972972973" y="214"/>
			<point x="854" y="214" type="qcurve" smooth="yes"/>
			<point x="835" y="214" type="line"/>
			<point x="835" y="-20" type="line"/>
			<point x="746" y="-20" type="line"/>
			<point x="746" y="214" type="line"/>
			<point x="727" y="214" type="line" smooth="yes"/>
			<point x="428.2364864865" y="214"/>
			<point x="115" y="499"/>
			<point x="115" y="741" type="qcurve" smooth="yes"/>
			<point x="115" y="982"/>
			<point x="427.2027027027" y="1266"/>
			<point x="727" y="1266" type="qcurve" smooth="yes"/>
			<point x="746" y="1266" type="line"/>
			<point x="746" y="1476" type="line"/>
		</contour>
		<contour>
			<point x="854" y="1181" type="qcurve" smooth="yes"/>
			<point x="835" y="1181" type="line"/>
			<point x="835" y="299" type="line"/>
			<point x="854" y="299" type="line" smooth="yes"/>
			<point x="1136.7722772277" y="299"/>
			<point x="1379" y="542"/>
			<point x="1379" y="741" type="qcurve" smooth="yes"/>
			<point x="1379" y="939"/>
			<point x="1136.7722772277" y="1181"/>
		</contour>
		<contour>
			<point x="727" y="1181" type="line" smooth="yes"/>
			<point x="444.2277227723" y="1181"/>
			<point x="202" y="939"/>
			<point x="202" y="741" type="qcurve" smooth="yes"/>
			<point x="202" y="542"/>
			<point x="444.2277227723" y="299"/>
			<point x="727" y="299" type="qcurve" smooth="yes"/>
			<point x="746" y="299" type="line"/>
			<point x="746" y="1181" type="line"/>
		</contour>
	</outline>
</glyph>
<glyph name="Tse" format="2">
  <advance width="1262"/>
  <unicode hex="0426"/>
  <outline>
    <contour>
      <point x="1170" y="-290" type="line"/>
      <point x="1170" y="0" type="line"/>
      <point x="170" y="0" type="line"/>
      <point x="170" y="1456" type="line"/>
      <point x="258" y="1456" type="line"/>
      <point x="258" y="85" type="line"/>
      <point x="994" y="85" type="line"/>
      <point x="994" y="1456" type="line"/>
      <point x="1082" y="1456" type="line"/>
      <point x="1082" y="85" type="line"/>
      <point x="1252" y="85" type="line"/>
      <point x="1252" y="-290" type="line"/>
    </contour>
  </outline>
</glyph>
<glyph name="Che" format="2">
	<unicode hex="0427"/>
	<advance width="1212"/>
	<outline>
		<contour>
			<point x="248" y="1046" type="line" smooth="yes"/>
			<point x="248" y="843"/>
			<point x="425" y="661"/>
			<point x="622" y="661" type="qcurve" smooth="yes"/>
			<point x="747" y="661"/>
			<point x="917" y="687"/>
			<point x="998" y="711" type="qcurve"/>
			<point x="998" y="625" type="line"/>
			<point x="924" y="604"/>
			<point x="757" y="576"/>
			<point x="618" y="576" type="qcurve" smooth="yes"/>
			<point x="384" y="576"/>
			<point x="160" y="799"/>
			<point x="160" y="1046" type="qcurve" smooth="yes"/>
			<point x="160" y="1456" type="line"/>
			<point x="248" y="1456" type="line"/>
		</contour>
		<contour>
			<point x="1042" y="1456" type="line"/>
			<point x="1042" y="0" type="line"/>
			<point x="954" y="0" type="line"/>
			<point x="954" y="1456" type="line"/>
		</contour>
	</outline>
	<guideline x="1123" y="741" angle="90" identifier="nfCxFSb4p1"/>
</glyph>
<glyph name="Shcha" format="2">
	<unicode hex="0429"/>
	<advance width="2045"/>
	<outline>
		<contour>
			<point x="170" y="1456" type="line"/>
			<point x="258" y="1456" type="line"/>
			<point x="258" y="85" type="line"/>
			<point x="973" y="85" type="line"/>
			<point x="973" y="1456" type="line"/>
			<point x="1061" y="1456" type="line"/>
			<point x="1061" y="85" type="line"/>
			<point x="1776" y="85" type="line"/>
			<point x="1776" y="1456" type="line"/>
			<point x="1864" y="1456" type="line"/>
			<point x="1864" y="85" type="line"/>
			<point x="2035" y="85" type="line"/>
			<point x="2035" y="-290" type="line"/>
			<point x="1953" y="-290" type="line"/>
			<point x="1953" y="0" type="line"/>
			<point x="170" y="0" type="line"/>
		</contour>
	</outline>
</glyph>
<glyph name="Hard" format="2">
  <advance width="1156"/>
  <unicode hex="042A"/>
  <outline>
    <contour>
      <point x="24" y="1373" type="line"/>
      <point x="24" y="1456" type="line"/>
      <point x="397" y="1456" type="line"/>
      <point x="397" y="875" type="line"/>
      <point x="668" y="875" type="line" smooth="yes"/>
      <point x="871.0" y="875.0"/>
      <point x="1080" y="655"/>
      <point x="1080" y="436" type="qcurve" smooth="yes"/>
      <point x="1080" y="217"/>
      <point x="871.0" y="0.0"/>
      <point x="668" y="0" type="qcurve" smooth="yes"/>
      <point x="309" y="0" type="line"/>
      <point x="309" y="1373" type="line"/>
    </contour>
    <contour>
      <point x="397" y="790" type="line"/>
      <point x="397" y="85" type="line"/>
      <point x="668" y="85" type="line" smooth="yes"/>
      <point x="842.0" y="85.0"/>
      <point x="991" y="274"/>
      <point x="991" y="436" type="qcurve" smooth="yes"/>
      <point x="991" y="600"/>
      <point x="842.0" y="790.0"/>
      <point x="667" y="790" type="qcurve" smooth="yes"/>
    </contour>
  </outline>
</glyph>
<glyph name="Ecyr" format="2">
	<unicode hex="042D"/>
	<advance width="1154"/>
	<outline>
		<contour>
			<point x="993" y="782" type="line"/>
			<point x="993" y="697" type="line"/>
			<point x="433" y="697" type="line"/>
			<point x="433" y="782" type="line"/>
		</contour>
		<contour>
			<point x="949" y="665" type="qcurve" smooth="yes"/>
			<point x="949" y="777" type="line" smooth="yes"/>
			<point x="949" y="1085"/>
			<point x="734" y="1401"/>
			<point x="544" y="1401" type="qcurve" smooth="yes"/>
			<point x="360.6546546547" y="1401"/>
			<point x="201" y="1207"/>
			<point x="201" y="1026" type="qcurve" smooth="yes"/>
			<point x="201" y="1019" type="line"/>
			<point x="112" y="1019" type="line"/>
			<point x="112" y="1026" type="line" smooth="yes"/>
			<point x="112" y="1248"/>
			<point x="336.1895734597" y="1486"/>
			<point x="544" y="1486" type="qcurve" smooth="yes"/>
			<point x="755" y="1486"/>
			<point x="1038" y="1140"/>
			<point x="1038" y="738" type="qcurve" smooth="yes"/>
			<point x="1038" y="672" type="line" smooth="yes"/>
			<point x="1038" y="336"/>
			<point x="762" y="-30"/>
			<point x="537" y="-30" type="qcurve" smooth="yes"/>
			<point x="322" y="-30"/>
			<point x="90" y="204"/>
			<point x="90" y="422" type="qcurve" smooth="yes"/>
			<point x="90" y="437" type="line"/>
			<point x="179" y="437" type="line"/>
			<point x="179" y="422" type="line" smooth="yes"/>
			<point x="179" y="245"/>
			<point x="365" y="55"/>
			<point x="538" y="55" type="qcurve" smooth="yes"/>
			<point x="736" y="55"/>
			<point x="949" y="399"/>
		</contour>
	</outline>
	<guideline x="1147" y="753" angle="90" identifier="Ovo68woMtl"/>
</glyph>
<glyph name="Yu" format="2">
  <advance width="1686"/>
  <unicode hex="042E"/>
  <guideline x="732" y="785" angle="90" identifier="6nH5tb4DEh"/>
  <outline>
    <contour>
      <point x="170" y="0" type="line"/>
      <point x="170" y="1456" type="line"/>
      <point x="258" y="1456" type="line"/>
      <point x="258" y="793" type="line"/>
      <point x="630" y="793" type="line"/>
      <point x="630" y="709" type="line"/>
      <point x="258" y="709" type="line"/>
      <point x="258" y="0" type="line"/>
    </contour>
    <contour>
      <point x="585" y="697" type="qcurve" smooth="yes"/>
      <point x="585" y="759" type="line" smooth="yes"/>
      <point x="585" y="1132"/>
      <point x="862" y="1486"/>
      <point x="1082" y="1486" type="qcurve" smooth="yes"/>
      <point x="1304" y="1486"/>
      <point x="1571" y="1132"/>
      <point x="1571" y="759" type="qcurve" smooth="yes"/>
      <point x="1571" y="697" type="line" smooth="yes"/>
      <point x="1571" y="324"/>
      <point x="1294" y="-30"/>
      <point x="1081" y="-30" type="qcurve" smooth="yes"/>
      <point x="863" y="-30"/>
      <point x="585" y="324"/>
    </contour>
    <contour>
      <point x="674" y="667" type="line" smooth="yes"/>
      <point x="674" y="352"/>
      <point x="909" y="55"/>
      <point x="1081" y="55" type="qcurve" smooth="yes"/>
      <point x="1249" y="55"/>
      <point x="1481" y="352"/>
      <point x="1481" y="667" type="qcurve" smooth="yes"/>
      <point x="1481" y="790" type="line" smooth="yes"/>
      <point x="1481" y="1105"/>
      <point x="1249" y="1401"/>
      <point x="1082" y="1401" type="qcurve" smooth="yes"/>
      <point x="909" y="1401"/>
      <point x="674" y="1105"/>
      <point x="674" y="790" type="qcurve" smooth="yes"/>
    </contour>
  </outline>
</glyph>
<glyph name="Ya" format="2">
  <advance width="1027"/>
  <unicode hex="042F"/>
  <outline>
    <contour>
      <point x="857" y="0" type="line"/>
      <point x="857" y="1456" type="line"/>
      <point x="502" y="1456" type="line" smooth="yes"/>
      <point x="287" y="1456"/>
      <point x="70" y="1255"/>
      <point x="70" y="1044" type="qcurve" smooth="yes"/>
      <point x="70" y="856"/>
      <point x="242" y="656"/>
      <point x="414" y="635" type="qcurve"/>
      <point x="416" y="631" type="line"/>
      <point x="769" y="631" type="line"/>
      <point x="769" y="0" type="line"/>
    </contour>
    <contour>
      <point x="769" y="714" type="line"/>
      <point x="497" y="714" type="line" smooth="yes"/>
      <point x="309" y="714"/>
      <point x="159" y="892"/>
      <point x="159" y="1044" type="qcurve" smooth="yes"/>
      <point x="159" y="1197"/>
      <point x="311" y="1374"/>
      <point x="502" y="1374" type="qcurve" smooth="yes"/>
      <point x="769" y="1374" type="line"/>
    </contour>
    <contour>
      <point x="144" y="0" type="line"/>
      <point x="465" y="672" type="line"/>
      <point x="373" y="672" type="line"/>
      <point x="50" y="0" type="line"/>
    </contour>
  </outline>
</glyph>
<glyph name="be" format="2">
	<unicode hex="0431"/>
	<advance width="1016"/>
	<outline>
		<contour>
			<point x="183" y="582" type="qcurve" smooth="yes"/>
			<point x="183" y="490" type="line" smooth="yes"/>
			<point x="183" y="288"/>
			<point x="351" y="53"/>
			<point x="514" y="53" type="qcurve" smooth="yes"/>
			<point x="677" y="53"/>
			<point x="846" y="288"/>
			<point x="846" y="490" type="qcurve" smooth="yes"/>
			<point x="846" y="582" type="line" smooth="yes"/>
			<point x="846" y="789"/>
			<point x="683" y="999"/>
			<point x="514" y="999" type="qcurve" smooth="yes"/>
			<point x="345" y="999"/>
			<point x="183" y="784"/>
		</contour>
		<contour>
			<point x="514" y="1082" type="qcurve" smooth="yes"/>
			<point x="716" y="1082"/>
			<point x="934" y="807"/>
			<point x="934" y="552" type="qcurve" smooth="yes"/>
			<point x="934" y="520" type="line" smooth="yes"/>
			<point x="934" y="258"/>
			<point x="705" y="-30"/>
			<point x="514" y="-30" type="qcurve" smooth="yes"/>
			<point x="332" y="-30"/>
			<point x="95" y="251"/>
			<point x="95" y="509" type="qcurve" smooth="yes"/>
			<point x="95" y="609" type="line" smooth="yes"/>
			<point x="95" y="996"/>
			<point x="264" y="1401"/>
			<point x="566" y="1442" type="qcurve" smooth="yes"/>
			<point x="729" y="1464"/>
			<point x="773.9944007723" y="1508.9720038615"/>
			<point x="779" y="1536" type="qcurve"/>
			<point x="856" y="1536" type="line"/>
			<point x="850" y="1455"/>
			<point x="744" y="1381"/>
			<point x="600" y="1363" type="qcurve" smooth="yes"/>
			<point x="356.5616859503" y="1333.2121894201"/>
			<point x="200" y="1110"/>
			<point x="181" y="878" type="qcurve"/>
			<point x="188" y="878" type="line"/>
			<point x="227" y="969"/>
			<point x="388.7746031746" y="1082"/>
		</contour>
	</outline>
</glyph>
<glyph name="ve" format="2">
  <advance width="939"/>
  <unicode hex="0432"/>
  <outline>
    <contour>
      <point x="148" y="0" type="line"/>
      <point x="148" y="1052" type="line"/>
      <point x="513" y="1052" type="line" smooth="yes"/>
      <point x="650" y="1052"/>
      <point x="811" y="910"/>
      <point x="811" y="774" type="qcurve" smooth="yes"/>
      <point x="811" y="681"/>
      <point x="716.947614739" y="557.9888166297"/>
      <point x="653" y="544" type="qcurve"/>
      <point x="653" y="541" type="line"/>
      <point x="742" y="528"/>
      <point x="854" y="397"/>
      <point x="854" y="306" type="qcurve" smooth="yes"/>
      <point x="854" y="161"/>
      <point x="688" y="0"/>
      <point x="549" y="0" type="qcurve" smooth="yes"/>
    </contour>
    <contour>
      <point x="234" y="576" type="line"/>
      <point x="513" y="576" type="line" smooth="yes"/>
      <point x="624" y="576"/>
      <point x="723" y="678"/>
      <point x="723" y="774" type="qcurve" smooth="yes"/>
      <point x="723" y="863"/>
      <point x="624" y="969"/>
      <point x="511" y="969" type="qcurve" smooth="yes"/>
      <point x="234" y="969" type="line"/>
    </contour>
    <contour>
      <point x="234" y="83" type="line"/>
      <point x="549" y="83" type="line" smooth="yes"/>
      <point x="659" y="83"/>
      <point x="767" y="203"/>
      <point x="767" y="306" type="qcurve" smooth="yes"/>
      <point x="767" y="390"/>
      <point x="655" y="494"/>
      <point x="549" y="494" type="qcurve" smooth="yes"/>
      <point x="234" y="494" type="line"/>
    </contour>
  </outline>
</glyph>
<glyph name="de" format="2">
	<unicode hex="0434"/>
	<advance width="974"/>
	<outline>
		<contour>
			<point x="846" y="-270" type="line"/>
			<point x="846" y="0" type="line"/>
			<point x="98" y="0" type="line"/>
			<point x="98" y="-270" type="line"/>
			<point x="10" y="-270" type="line"/>
			<point x="10" y="83" type="line"/>
			<point x="934" y="83" type="line"/>
			<point x="934" y="-270" type="line"/>
		</contour>
		<contour>
			<point x="281" y="969" type="line"/>
			<point x="263" y="502" type="line" smooth="yes"/>
			<point x="255.2141358526" y="300.0000801746"/>
			<point x="203.5514367047" y="106.3775039983"/>
			<point x="155" y="39" type="qcurve"/>
			<point x="60" y="39" type="line"/>
			<point x="129" y="133"/>
			<point x="173" y="314"/>
			<point x="180" y="507" type="qcurve" smooth="yes"/>
			<point x="201" y="1052" type="line"/>
			<point x="826" y="1052" type="line"/>
			<point x="826" y="0" type="line"/>
			<point x="740" y="0" type="line"/>
			<point x="740" y="969" type="line"/>
		</contour>
	</outline>
</glyph>
<glyph name="zhe" format="2">
	<unicode hex="0436"/>
	<advance width="1277"/>
	<outline>
		<contour>
			<point x="681" y="0" type="line"/>
			<point x="595" y="0" type="line"/>
			<point x="595" y="1052" type="line"/>
			<point x="681" y="1052" type="line"/>
		</contour>
		<contour>
			<point x="1180" y="0" type="line"/>
			<point x="896" y="506" type="line"/>
			<point x="955" y="570" type="line"/>
			<point x="1277" y="0" type="line"/>
		</contour>
		<contour>
			<point x="638" y="577" type="line"/>
			<point x="906" y="577" type="line"/>
			<point x="1155" y="1052" type="line"/>
			<point x="1243" y="1052" type="line"/>
			<point x="947" y="494" type="line"/>
			<point x="638" y="494" type="line"/>
		</contour>
		<contour>
			<point x="97" y="0" type="line"/>
			<point x="0" y="0" type="line"/>
			<point x="322" y="570" type="line"/>
			<point x="381" y="506" type="line"/>
		</contour>
		<contour>
			<point x="638" y="577" type="line"/>
			<point x="638" y="494" type="line"/>
			<point x="331" y="494" type="line"/>
			<point x="35" y="1052" type="line"/>
			<point x="122" y="1052" type="line"/>
			<point x="371" y="577" type="line"/>
		</contour>
	</outline>
</glyph>
<glyph name="ze" format="2">
	<unicode hex="0437"/>
	<advance width="842"/>
	<outline>
		<contour>
			<point x="407" y="-30" type="qcurve" smooth="yes"/>
			<point x="237" y="-30"/>
			<point x="55" y="161"/>
			<point x="55" y="308" type="qcurve" smooth="yes"/>
			<point x="55" y="313" type="line"/>
			<point x="138" y="313" type="line"/>
			<point x="138" y="308" type="line" smooth="yes"/>
			<point x="138" y="185"/>
			<point x="290" y="53"/>
			<point x="407" y="53" type="qcurve" smooth="yes"/>
			<point x="541" y="53"/>
			<point x="669" y="193"/>
			<point x="669" y="290" type="qcurve" smooth="yes"/>
			<point x="669" y="389"/>
			<point x="535" y="496"/>
			<point x="410" y="496" type="qcurve" smooth="yes"/>
			<point x="273" y="496" type="line"/>
			<point x="273" y="579" type="line"/>
			<point x="409" y="579" type="line" smooth="yes"/>
			<point x="516" y="579"/>
			<point x="631" y="684"/>
			<point x="631" y="782" type="qcurve" smooth="yes"/>
			<point x="631" y="877"/>
			<point x="521" y="1000"/>
			<point x="400" y="1000" type="qcurve" smooth="yes"/>
			<point x="294" y="1000"/>
			<point x="158" y="867"/>
			<point x="158" y="744" type="qcurve" smooth="yes"/>
			<point x="158" y="739" type="line"/>
			<point x="75" y="739" type="line"/>
			<point x="75" y="744" type="line" smooth="yes"/>
			<point x="75" y="891"/>
			<point x="252" y="1082"/>
			<point x="417" y="1082" type="qcurve" smooth="yes"/>
			<point x="544" y="1082"/>
			<point x="720" y="928"/>
			<point x="720" y="774" type="qcurve" smooth="yes"/>
			<point x="720" y="682"/>
			<point x="634" y="564"/>
			<point x="554" y="546" type="qcurve"/>
			<point x="554" y="543" type="line"/>
			<point x="652" y="528"/>
			<point x="757" y="397"/>
			<point x="757" y="291" type="qcurve" smooth="yes"/>
			<point x="757" y="157"/>
			<point x="580" y="-30"/>
		</contour>
	</outline>
</glyph>
<glyph name="icyr" format="2">
  <advance width="987"/>
  <unicode hex="0438"/>
  <outline>
    <contour>
      <point x="148" y="0" type="line"/>
      <point x="148" y="1052" type="line"/>
      <point x="234" y="1052" type="line"/>
      <point x="234" y="244" type="line" smooth="yes"/>
      <point x="234" y="214"/>
      <point x="233" y="139"/>
      <point x="232" y="109" type="qcurve"/>
      <point x="239" y="109" type="line"/>
      <point x="249" y="133"/>
      <point x="278" y="193"/>
      <point x="294" y="224" type="qcurve" smooth="yes"/>
      <point x="724" y="1052" type="line"/>
      <point x="839" y="1052" type="line"/>
      <point x="839" y="0" type="line"/>
      <point x="753" y="0" type="line"/>
      <point x="753" y="815" type="line" smooth="yes"/>
      <point x="753" y="845"/>
      <point x="754" y="920"/>
      <point x="755" y="950" type="qcurve"/>
      <point x="748" y="950" type="line"/>
      <point x="738" y="926"/>
      <point x="710" y="867"/>
      <point x="693" y="835" type="qcurve" smooth="yes"/>
      <point x="256" y="0" type="line"/>
    </contour>
  </outline>
</glyph>
<glyph name="ka" format="2">
	<unicode hex="043A"/>
	<advance width="810"/>
	<outline>
		<contour>
			<point x="715" y="0" type="line"/>
			<point x="403" y="494" type="line"/>
			<point x="462" y="558" type="line"/>
			<point x="815" y="0" type="line"/>
		</contour>
		<contour>
			<point x="191" y="577" type="line"/>
			<point x="406" y="577" type="line"/>
			<point x="684" y="1052" type="line"/>
			<point x="779" y="1052" type="line"/>
			<point x="447" y="494" type="line"/>
			<point x="191" y="494" type="line"/>
		</contour>
		<contour>
			<point x="234" y="1052" type="line"/>
			<point x="234" y="0" type="line"/>
			<point x="148" y="0" type="line"/>
			<point x="148" y="1052" type="line"/>
		</contour>
	</outline>
	<guideline x="241" y="553" angle="90" identifier="lmgRx0QBdK"/>
</glyph>
<glyph name="el" format="2">
	<unicode hex="043B"/>
	<advance width="978"/>
	<outline>
		<contour>
			<point x="287" y="969" type="line"/>
			<point x="267" y="337" type="line" smooth="yes"/>
			<point x="261" y="162"/>
			<point x="187" y="-15"/>
			<point x="82" y="-15" type="qcurve" smooth="yes"/>
			<point x="63" y="-15"/>
			<point x="28" y="-9"/>
			<point x="10" y="0" type="qcurve"/>
			<point x="10" y="88" type="line"/>
			<point x="29" y="80"/>
			<point x="62" y="73"/>
			<point x="81" y="73" type="qcurve" smooth="yes"/>
			<point x="140" y="73"/>
			<point x="181" y="206"/>
			<point x="185" y="335" type="qcurve" smooth="yes"/>
			<point x="208" y="1052" type="line"/>
			<point x="833" y="1052" type="line"/>
			<point x="833" y="0" type="line"/>
			<point x="747" y="0" type="line"/>
			<point x="747" y="969" type="line"/>
		</contour>
	</outline>
</glyph>
<glyph name="em" format="2">
	<unicode hex="043C"/>
	<advance width="1212"/>
	<outline>
		<contour>
			<point x="148" y="0" type="line"/>
			<point x="148" y="1052" type="line"/>
			<point x="261" y="1052" type="line"/>
			<point x="557" y="226" type="line"/>
			<point x="571" y="186"/>
			<point x="586" y="146"/>
			<point x="600" y="106" type="qcurve"/>
			<point x="606" y="106" type="line"/>
			<point x="620" y="146"/>
			<point x="635" y="186"/>
			<point x="649" y="226" type="qcurve"/>
			<point x="945" y="1052" type="line"/>
			<point x="1058" y="1052" type="line"/>
			<point x="1058" y="0" type="line"/>
			<point x="973" y="0" type="line"/>
			<point x="973" y="792" type="line" smooth="yes"/>
			<point x="973" y="822"/>
			<point x="979" y="895"/>
			<point x="981" y="925" type="qcurve"/>
			<point x="973" y="925" type="line"/>
			<point x="967" y="895"/>
			<point x="945" y="819"/>
			<point x="935" y="792" type="qcurve" smooth="yes"/>
			<point x="648" y="0" type="line"/>
			<point x="558" y="0" type="line"/>
			<point x="271" y="792" type="line" smooth="yes"/>
			<point x="261" y="819"/>
			<point x="239" y="895"/>
			<point x="233" y="925" type="qcurve"/>
			<point x="225" y="925" type="line"/>
			<point x="227" y="895"/>
			<point x="233" y="822"/>
			<point x="233" y="792" type="qcurve" smooth="yes"/>
			<point x="233" y="0" type="line"/>
		</contour>
	</outline>
</glyph>
<glyph name="pe" format="2">
	<unicode hex="043F"/>
	<advance width="983"/>
	<outline>
		<contour>
			<point x="148" y="1052" type="line"/>
			<point x="835" y="1052" type="line"/>
			<point x="835" y="0" type="line"/>
			<point x="749" y="0" type="line"/>
			<point x="749" y="969" type="line"/>
			<point x="234" y="969" type="line"/>
			<point x="234" y="0" type="line"/>
			<point x="148" y="0" type="line"/>
		</contour>
	</outline>
</glyph>
<glyph name="te" format="2">
	<unicode hex="0442"/>
	<advance width="898"/>
	<outline>
		<contour>
			<point x="70" y="969" type="line"/>
			<point x="70" y="1052" type="line"/>
			<point x="828" y="1052" type="line"/>
			<point x="828" y="969" type="line"/>
			<point x="492" y="969" type="line"/>
			<point x="492" y="0" type="line"/>
			<point x="406" y="0" type="line"/>
			<point x="406" y="969" type="line"/>
		</contour>
	</outline>
</glyph>
<glyph name="ef" format="2">
  <advance width="1143"/>
  <unicode hex="0444"/>
  <outline>
    <contour>
      <point x="173" y="480" type="line" smooth="yes"/>
      <point x="173" y="286"/>
      <point x="374" y="63"/>
      <point x="529" y="53" type="qcurve"/>
      <point x="529" y="999" type="line"/>
      <point x="366" y="989"/>
      <point x="173" y="766"/>
      <point x="173" y="572" type="qcurve" smooth="yes"/>
    </contour>
    <contour>
      <point x="971" y="572" type="line" smooth="yes"/>
      <point x="971" y="766"/>
      <point x="770" y="989"/>
      <point x="615" y="999" type="qcurve"/>
      <point x="615" y="53" type="line"/>
      <point x="778" y="63"/>
      <point x="971" y="286"/>
      <point x="971" y="480" type="qcurve" smooth="yes"/>
    </contour>
    <contour>
      <point x="529" y="-30" type="line"/>
      <point x="347" y="-20"/>
      <point x="85" y="257"/>
      <point x="85" y="510" type="qcurve" smooth="yes"/>
      <point x="85" y="542" type="line" smooth="yes"/>
      <point x="85" y="795"/>
      <point x="347" y="1072"/>
      <point x="529" y="1082" type="qcurve"/>
      <point x="529" y="1536" type="line"/>
      <point x="615" y="1536" type="line"/>
      <point x="615" y="1082" type="line"/>
      <point x="797" y="1072"/>
      <point x="1059" y="795"/>
      <point x="1059" y="542" type="qcurve" smooth="yes"/>
      <point x="1059" y="510" type="line" smooth="yes"/>
      <point x="1059" y="257"/>
      <point x="797" y="-20"/>
      <point x="615" y="-30" type="qcurve"/>
      <point x="615" y="-416" type="line"/>
      <point x="529" y="-416" type="line"/>
    </contour>
  </outline>
</glyph>
<glyph name="tse" format="2">
	<unicode hex="0446"/>
	<advance width="988"/>
	<outline>
		<contour>
			<point x="860" y="-270" type="line"/>
			<point x="860" y="0" type="line"/>
			<point x="148" y="0" type="line"/>
			<point x="148" y="1052" type="line"/>
			<point x="234" y="1052" type="line"/>
			<point x="234" y="83" type="line"/>
			<point x="754" y="83" type="line"/>
			<point x="754" y="1052" type="line"/>
			<point x="840" y="1052" type="line"/>
			<point x="840" y="83" type="line"/>
			<point x="948" y="83" type="line"/>
			<point x="948" y="-270" type="line"/>
		</contour>
	</outline>
</glyph>
<glyph name="che" format="2">
	<unicode hex="0447"/>
	<advance width="935"/>
	<outline>
		<contour>
			<point x="216" y="743" type="line" smooth="yes"/>
			<point x="216" y="609"/>
			<point x="331" y="499"/>
			<point x="467" y="499" type="qcurve" smooth="yes"/>
			<point x="567" y="499"/>
			<point x="673" y="517"/>
			<point x="744" y="543" type="qcurve"/>
			<point x="744" y="460" type="line"/>
			<point x="674" y="439"/>
			<point x="556" y="416"/>
			<point x="468" y="416" type="qcurve" smooth="yes"/>
			<point x="290" y="416"/>
			<point x="130" y="569"/>
			<point x="130" y="743" type="qcurve" smooth="yes"/>
			<point x="130" y="1052" type="line"/>
			<point x="216" y="1052" type="line"/>
		</contour>
		<contour>
			<point x="787" y="1052" type="line"/>
			<point x="787" y="0" type="line"/>
			<point x="701" y="0" type="line"/>
			<point x="701" y="1052" type="line"/>
		</contour>
	</outline>
	<guideline x="855" y="515" angle="90" identifier="GGEFes61Q6"/>
</glyph>
<glyph name="sha" format="2">
	<unicode hex="0448"/>
	<advance width="1514"/>
	<outline>
		<contour>
			<point x="148" y="0" type="line"/>
			<point x="148" y="1052" type="line"/>
			<point x="234" y="1052" type="line"/>
			<point x="234" y="83" type="line"/>
			<point x="714" y="83" type="line"/>
			<point x="714" y="1052" type="line"/>
			<point x="800" y="1052" type="line"/>
			<point x="800" y="83" type="line"/>
			<point x="1280" y="83" type="line"/>
			<point x="1280" y="1052" type="line"/>
			<point x="1366" y="1052" type="line"/>
			<point x="1366" y="0" type="line"/>
		</contour>
	</outline>
</glyph>
<glyph name="shcha" format="2">
	<unicode hex="0449"/>
	<advance width="1514"/>
	<outline>
		<contour>
			<point x="148" y="0" type="line"/>
			<point x="148" y="1052" type="line"/>
			<point x="234" y="1052" type="line"/>
			<point x="234" y="83" type="line"/>
			<point x="714" y="83" type="line"/>
			<point x="714" y="1052" type="line"/>
			<point x="800" y="1052" type="line"/>
			<point x="800" y="83" type="line"/>
			<point x="1280" y="83" type="line"/>
			<point x="1280" y="1052" type="line"/>
			<point x="1366" y="1052" type="line"/>
			<point x="1366" y="83" type="line"/>
			<point x="1474" y="83" type="line"/>
			<point x="1474" y="-270" type="line"/>
			<point x="1386" y="-270" type="line"/>
			<point x="1386" y="0" type="line"/>
		</contour>
	</outline>
</glyph>
<glyph name="hard" format="2">
	<unicode hex="044A"/>
	<advance width="1035"/>
	<outline>
		<contour>
			<point x="50" y="969" type="line"/>
			<point x="50" y="1052" type="line"/>
			<point x="357" y="1052" type="line"/>
			<point x="357" y="662" type="line"/>
			<point x="561" y="662" type="line" smooth="yes"/>
			<point x="745" y="662"/>
			<point x="945" y="484"/>
			<point x="945" y="333" type="qcurve" smooth="yes"/>
			<point x="945" y="182"/>
			<point x="745" y="0"/>
			<point x="561" y="0" type="qcurve" smooth="yes"/>
			<point x="271" y="0" type="line"/>
			<point x="271" y="969" type="line"/>
		</contour>
		<contour>
			<point x="561" y="579" type="qcurve" smooth="yes"/>
			<point x="357" y="579" type="line"/>
			<point x="357" y="83" type="line"/>
			<point x="561" y="83" type="line" smooth="yes"/>
			<point x="721" y="83"/>
			<point x="855" y="224"/>
			<point x="855" y="333" type="qcurve" smooth="yes"/>
			<point x="855" y="441"/>
			<point x="721" y="579"/>
		</contour>
	</outline>
</glyph>
<glyph name="soft" format="2">
	<unicode hex="044C"/>
	<advance width="912"/>
	<outline>
		<contour>
			<point x="234" y="1052" type="line"/>
			<point x="234" y="662" type="line"/>
			<point x="438" y="662" type="line" smooth="yes"/>
			<point x="622" y="662"/>
			<point x="822" y="484"/>
			<point x="822" y="333" type="qcurve" smooth="yes"/>
			<point x="822" y="182"/>
			<point x="622" y="0"/>
			<point x="438" y="0" type="qcurve" smooth="yes"/>
			<point x="148" y="0" type="line"/>
			<point x="148" y="1052" type="line"/>
		</contour>
		<contour>
			<point x="438" y="579" type="qcurve" smooth="yes"/>
			<point x="234" y="579" type="line"/>
			<point x="234" y="83" type="line"/>
			<point x="438" y="83" type="line" smooth="yes"/>
			<point x="598" y="83"/>
			<point x="732" y="224"/>
			<point x="732" y="333" type="qcurve" smooth="yes"/>
			<point x="732" y="441"/>
			<point x="598" y="579"/>
		</contour>
	</outline>
</glyph>
<glyph name="ecyr" format="2">
	<unicode hex="044D"/>
	<advance width="911"/>
	<outline>
		<contour>
			<point x="826" y="520" type="line" smooth="yes"/>
			<point x="826" y="255"/>
			<point x="609" y="-30"/>
			<point x="407" y="-30" type="qcurve" smooth="yes"/>
			<point x="231" y="-30"/>
			<point x="65" y="167"/>
			<point x="65" y="308" type="qcurve" smooth="yes"/>
			<point x="65" y="313" type="line"/>
			<point x="148" y="313" type="line"/>
			<point x="148" y="308" type="line" smooth="yes"/>
			<point x="148" y="201"/>
			<point x="274" y="53"/>
			<point x="408" y="53" type="qcurve" smooth="yes"/>
			<point x="567" y="53"/>
			<point x="739" y="285"/>
			<point x="739" y="500" type="qcurve" smooth="yes"/>
			<point x="739" y="560" type="line" smooth="yes"/>
			<point x="739" y="772"/>
			<point x="575" y="1000"/>
			<point x="423" y="1000" type="qcurve" smooth="yes"/>
			<point x="297" y="1000"/>
			<point x="172" y="869"/>
			<point x="172" y="744" type="qcurve" smooth="yes"/>
			<point x="172" y="739" type="line"/>
			<point x="89" y="739" type="line"/>
			<point x="89" y="744" type="line" smooth="yes"/>
			<point x="89" y="905"/>
			<point x="275" y="1082"/>
			<point x="421" y="1082" type="qcurve" smooth="yes"/>
			<point x="616" y="1082"/>
			<point x="826" y="807"/>
			<point x="826" y="552" type="qcurve" smooth="yes"/>
		</contour>
		<contour>
			<point x="781" y="577" type="line"/>
			<point x="781" y="494" type="line"/>
			<point x="310" y="494" type="line"/>
			<point x="310" y="577" type="line"/>
		</contour>
	</outline>
	<guideline x="889" y="493" angle="90" identifier="9ss4WcbEUf"/>
</glyph>
